<svg width="86" height="79" viewBox="0 0 86 79" fill="none" xmlns="http://www.w3.org/2000/svg">
<path d="M63.5581 11.7839C70.3196 14.0079 81.9425 24.0206 77.7658 43.4036C71.6222 61.9906 52.2113 74.4646 34.4386 68.6188C16.666 62.773 13.968 51.8395 16.7487 43.4257C19.4089 35.3774 35.4272 40.1774 40.8975 34.3355C48.0605 26.686 53.4812 8.46941 63.5581 11.7839Z" fill="#C4EC8E"/>
<mask id="path-2-outside-1_221_455" maskUnits="userSpaceOnUse" x="0" y="-0.00146484" width="60" height="60" fill="black">
<rect fill="white" y="-0.00146484" width="60" height="60"/>
<path d="M45.5625 20.2315C43.2632 20.2315 41.0157 20.9083 39.1039 22.1763C37.1922 23.4443 35.7022 25.2465 34.8223 27.3551C33.9425 29.4638 33.7123 31.784 34.1608 34.0225C34.6094 36.261 35.7165 38.3172 37.3423 39.9311C38.9681 41.5449 41.0395 42.644 43.2945 43.0892C45.5496 43.5345 47.887 43.306 50.0111 42.4326C52.1353 41.5591 53.9509 40.0801 55.2283 38.1824C56.5057 36.2847 57.1875 34.0536 57.1875 31.7712C57.184 28.7117 55.9581 25.7786 53.7787 23.6152C51.5994 21.4518 48.6445 20.2349 45.5625 20.2315ZM45.5625 41.3877C43.6464 41.3877 41.7735 40.8237 40.1804 39.767C38.5873 38.7103 37.3456 37.2085 36.6124 35.4513C35.8791 33.6941 35.6873 31.7605 36.0611 29.8951C36.4349 28.0297 37.3575 26.3162 38.7124 24.9713C40.0672 23.6265 41.7933 22.7106 43.6725 22.3395C45.5517 21.9685 47.4995 22.1589 49.2697 22.8868C51.0399 23.6146 52.5528 24.8472 53.6173 26.4286C54.6818 28.01 55.25 29.8693 55.25 31.7712C55.247 34.3208 54.2255 36.7651 52.4093 38.5679C50.5932 40.3707 48.1308 41.3848 45.5625 41.3877Z"/>
<path d="M45.5625 28.8863H47.5C47.7569 28.8863 48.0033 28.785 48.185 28.6046C48.3667 28.4243 48.4688 28.1797 48.4688 27.9246C48.4688 27.6696 48.3667 27.425 48.185 27.2446C48.0033 27.0643 47.7569 26.963 47.5 26.963H46.5313V26.0013C46.5313 25.7463 46.4292 25.5017 46.2475 25.3214C46.0658 25.141 45.8194 25.0397 45.5625 25.0397C45.3056 25.0397 45.0592 25.141 44.8775 25.3214C44.6958 25.5017 44.5938 25.7463 44.5938 26.0013V27.1284C43.9477 27.3554 43.4032 27.8018 43.0566 28.3887C42.7099 28.9756 42.5834 29.6653 42.6993 30.3358C42.8152 31.0063 43.1661 31.6147 43.69 32.0533C44.2139 32.4919 44.8771 32.7326 45.5625 32.7329C45.8194 32.7329 46.0658 32.8342 46.2475 33.0145C46.4292 33.1949 46.5313 33.4395 46.5313 33.6945C46.5313 33.9496 46.4292 34.1941 46.2475 34.3745C46.0658 34.5548 45.8194 34.6562 45.5625 34.6562H43.625C43.3681 34.6562 43.1217 34.7575 42.94 34.9378C42.7583 35.1182 42.6563 35.3628 42.6563 35.6178C42.6563 35.8728 42.7583 36.1174 42.94 36.2978C43.1217 36.4781 43.3681 36.5794 43.625 36.5794H44.5938V37.5411C44.5938 37.7961 44.6958 38.0407 44.8775 38.2211C45.0592 38.4014 45.3056 38.5027 45.5625 38.5027C45.8194 38.5027 46.0658 38.4014 46.2475 38.2211C46.4292 38.0407 46.5313 37.7961 46.5313 37.5411V36.414C47.1773 36.187 47.7218 35.7406 48.0684 35.1537C48.4151 34.5668 48.5416 33.8772 48.4257 33.2066C48.3098 32.5361 47.9589 31.9278 47.435 31.4892C46.9111 31.0505 46.2479 30.8098 45.5625 30.8096C45.3056 30.8096 45.0592 30.7083 44.8775 30.5279C44.6958 30.3476 44.5938 30.103 44.5938 29.8479C44.5938 29.5929 44.6958 29.3483 44.8775 29.1679C45.0592 28.9876 45.3056 28.8863 45.5625 28.8863Z"/>
<path d="M54.6382 43.9503L35.0143 49.0328L30.6356 47.2941L33.0582 46.6957C33.8203 46.5068 34.4843 46.043 34.9207 45.3946C35.3571 44.7463 35.5348 43.9599 35.419 43.1887C35.3032 42.4175 34.9024 41.7167 34.2945 41.2228C33.6867 40.7289 32.9154 40.4774 32.1309 40.5171L15.5501 41.3877L11.6563 41.3848V40.426C11.6563 40.171 11.5542 39.9264 11.3725 39.746C11.1908 39.5657 10.9444 39.4644 10.6875 39.4644H4.30756L11.0888 32.7329H18.4375C18.5647 32.7329 18.6907 32.708 18.8082 32.6597C18.9258 32.6113 19.0326 32.5405 19.1225 32.4512L33.3699 18.3082H41.6875C41.8147 18.3082 41.9407 18.2833 42.0582 18.235C42.1758 18.1867 42.2826 18.1158 42.3725 18.0265L56.2188 4.28184V7.73006C56.2188 7.9851 56.3208 8.2297 56.5025 8.41004C56.6842 8.59039 56.9306 8.6917 57.1875 8.6917C57.4444 8.6917 57.6908 8.59039 57.8725 8.41004C58.0542 8.2297 58.1563 7.9851 58.1563 7.73006V1.96018C58.1563 1.70514 58.0542 1.46054 57.8725 1.28019C57.6908 1.09985 57.4444 0.998535 57.1875 0.998535H51.375C51.1181 0.998535 50.8717 1.09985 50.69 1.28019C50.5083 1.46054 50.4063 1.70514 50.4063 1.96018C50.4063 2.21523 50.5083 2.45982 50.69 2.64017C50.8717 2.82051 51.1181 2.92183 51.375 2.92183H54.8487L41.2862 16.3849H32.9688C32.8415 16.3849 32.7156 16.4097 32.598 16.4581C32.4805 16.5064 32.3737 16.5772 32.2837 16.6665L18.0363 30.8096H10.6875C10.5603 30.8096 10.4343 30.8344 10.3168 30.8828C10.1992 30.9311 10.0924 31.0019 10.0025 31.0912L1.28372 39.746C1.19363 39.8352 1.12219 39.9412 1.0735 40.0579C1.02481 40.1746 0.999831 40.2997 1 40.426V57.7357C1 57.9907 1.10207 58.2353 1.28374 58.4156C1.46542 58.596 1.71182 58.6973 1.96875 58.6973H10.6875C10.9444 58.6973 11.1908 58.596 11.3725 58.4156C11.5542 58.2353 11.6563 57.9907 11.6563 57.7357V56.6472L17.4688 55.8282L33.76 59.6333C33.9493 59.6775 34.1476 59.6641 34.3291 59.5949L56.9131 50.9724C57.8006 50.6336 58.5238 49.9704 58.9341 49.1189C59.3445 48.2674 59.411 47.2923 59.1198 46.3937C58.8287 45.4952 58.2021 44.7413 57.3687 44.2869C56.5353 43.8325 55.5583 43.7121 54.6382 43.9503ZM9.71875 56.774H2.9375V41.3877H9.71875V56.774ZM15.6266 43.3096L32.2301 42.4374C32.4515 42.4264 32.6719 42.4754 32.8675 42.579C33.0631 42.6827 33.2267 42.8371 33.3407 43.0259C33.4548 43.2147 33.515 43.4307 33.5149 43.6508C33.5149 43.8709 33.4546 44.0869 33.3405 44.2756C33.2583 44.4125 33.1495 44.5319 33.0205 44.6268C32.8916 44.7217 32.7449 44.7903 32.589 44.8286L23.0468 47.1857C22.9226 47.2154 22.8055 47.2693 22.7024 47.3442C22.5992 47.4191 22.512 47.5135 22.4457 47.6219C22.3795 47.7304 22.3355 47.8508 22.3163 47.9763C22.2972 48.1017 22.3032 48.2296 22.334 48.3527C22.3649 48.4758 22.42 48.5917 22.4962 48.6935C22.5723 48.7954 22.668 48.8813 22.7778 48.9463C22.8875 49.0113 23.0091 49.0541 23.1356 49.0722C23.2621 49.0904 23.3909 49.0835 23.5147 49.052L27.419 48.0876L34.5902 50.935C34.7824 51.0113 34.9942 51.0244 35.1945 50.9726L55.1265 45.811C55.5672 45.6978 56.0349 45.7561 56.4337 45.9741C56.8325 46.192 57.1322 46.5531 57.2715 46.9833C57.4108 47.4136 57.3792 47.8804 57.183 48.2882C56.9868 48.696 56.641 49.0139 56.2163 49.1768L33.9133 57.6932L17.7352 53.9147C17.6179 53.8872 17.4965 53.8817 17.3772 53.8987L11.6563 54.7047V43.3081L15.6266 43.3096Z"/>
</mask>
<path d="M45.5625 20.2315C43.2632 20.2315 41.0157 20.9083 39.1039 22.1763C37.1922 23.4443 35.7022 25.2465 34.8223 27.3551C33.9425 29.4638 33.7123 31.784 34.1608 34.0225C34.6094 36.261 35.7165 38.3172 37.3423 39.9311C38.9681 41.5449 41.0395 42.644 43.2945 43.0892C45.5496 43.5345 47.887 43.306 50.0111 42.4326C52.1353 41.5591 53.9509 40.0801 55.2283 38.1824C56.5057 36.2847 57.1875 34.0536 57.1875 31.7712C57.184 28.7117 55.9581 25.7786 53.7787 23.6152C51.5994 21.4518 48.6445 20.2349 45.5625 20.2315ZM45.5625 41.3877C43.6464 41.3877 41.7735 40.8237 40.1804 39.767C38.5873 38.7103 37.3456 37.2085 36.6124 35.4513C35.8791 33.6941 35.6873 31.7605 36.0611 29.8951C36.4349 28.0297 37.3575 26.3162 38.7124 24.9713C40.0672 23.6265 41.7933 22.7106 43.6725 22.3395C45.5517 21.9685 47.4995 22.1589 49.2697 22.8868C51.0399 23.6146 52.5528 24.8472 53.6173 26.4286C54.6818 28.01 55.25 29.8693 55.25 31.7712C55.247 34.3208 54.2255 36.7651 52.4093 38.5679C50.5932 40.3707 48.1308 41.3848 45.5625 41.3877Z" fill="#1C2D5A"/>
<path d="M45.5625 28.8863H47.5C47.7569 28.8863 48.0033 28.785 48.185 28.6046C48.3667 28.4243 48.4688 28.1797 48.4688 27.9246C48.4688 27.6696 48.3667 27.425 48.185 27.2446C48.0033 27.0643 47.7569 26.963 47.5 26.963H46.5313V26.0013C46.5313 25.7463 46.4292 25.5017 46.2475 25.3214C46.0658 25.141 45.8194 25.0397 45.5625 25.0397C45.3056 25.0397 45.0592 25.141 44.8775 25.3214C44.6958 25.5017 44.5938 25.7463 44.5938 26.0013V27.1284C43.9477 27.3554 43.4032 27.8018 43.0566 28.3887C42.7099 28.9756 42.5834 29.6653 42.6993 30.3358C42.8152 31.0063 43.1661 31.6147 43.69 32.0533C44.2139 32.4919 44.8771 32.7326 45.5625 32.7329C45.8194 32.7329 46.0658 32.8342 46.2475 33.0145C46.4292 33.1949 46.5313 33.4395 46.5313 33.6945C46.5313 33.9496 46.4292 34.1941 46.2475 34.3745C46.0658 34.5548 45.8194 34.6562 45.5625 34.6562H43.625C43.3681 34.6562 43.1217 34.7575 42.94 34.9378C42.7583 35.1182 42.6563 35.3628 42.6563 35.6178C42.6563 35.8728 42.7583 36.1174 42.94 36.2978C43.1217 36.4781 43.3681 36.5794 43.625 36.5794H44.5938V37.5411C44.5938 37.7961 44.6958 38.0407 44.8775 38.2211C45.0592 38.4014 45.3056 38.5027 45.5625 38.5027C45.8194 38.5027 46.0658 38.4014 46.2475 38.2211C46.4292 38.0407 46.5313 37.7961 46.5313 37.5411V36.414C47.1773 36.187 47.7218 35.7406 48.0684 35.1537C48.4151 34.5668 48.5416 33.8772 48.4257 33.2066C48.3098 32.5361 47.9589 31.9278 47.435 31.4892C46.9111 31.0505 46.2479 30.8098 45.5625 30.8096C45.3056 30.8096 45.0592 30.7083 44.8775 30.5279C44.6958 30.3476 44.5938 30.103 44.5938 29.8479C44.5938 29.5929 44.6958 29.3483 44.8775 29.1679C45.0592 28.9876 45.3056 28.8863 45.5625 28.8863Z" fill="#1C2D5A"/>
<path d="M54.6382 43.9503L35.0143 49.0328L30.6356 47.2941L33.0582 46.6957C33.8203 46.5068 34.4843 46.043 34.9207 45.3946C35.3571 44.7463 35.5348 43.9599 35.419 43.1887C35.3032 42.4175 34.9024 41.7167 34.2945 41.2228C33.6867 40.7289 32.9154 40.4774 32.1309 40.5171L15.5501 41.3877L11.6563 41.3848V40.426C11.6563 40.171 11.5542 39.9264 11.3725 39.746C11.1908 39.5657 10.9444 39.4644 10.6875 39.4644H4.30756L11.0888 32.7329H18.4375C18.5647 32.7329 18.6907 32.708 18.8082 32.6597C18.9258 32.6113 19.0326 32.5405 19.1225 32.4512L33.3699 18.3082H41.6875C41.8147 18.3082 41.9407 18.2833 42.0582 18.235C42.1758 18.1867 42.2826 18.1158 42.3725 18.0265L56.2188 4.28184V7.73006C56.2188 7.9851 56.3208 8.2297 56.5025 8.41004C56.6842 8.59039 56.9306 8.6917 57.1875 8.6917C57.4444 8.6917 57.6908 8.59039 57.8725 8.41004C58.0542 8.2297 58.1563 7.9851 58.1563 7.73006V1.96018C58.1563 1.70514 58.0542 1.46054 57.8725 1.28019C57.6908 1.09985 57.4444 0.998535 57.1875 0.998535H51.375C51.1181 0.998535 50.8717 1.09985 50.69 1.28019C50.5083 1.46054 50.4063 1.70514 50.4063 1.96018C50.4063 2.21523 50.5083 2.45982 50.69 2.64017C50.8717 2.82051 51.1181 2.92183 51.375 2.92183H54.8487L41.2862 16.3849H32.9688C32.8415 16.3849 32.7156 16.4097 32.598 16.4581C32.4805 16.5064 32.3737 16.5772 32.2837 16.6665L18.0363 30.8096H10.6875C10.5603 30.8096 10.4343 30.8344 10.3168 30.8828C10.1992 30.9311 10.0924 31.0019 10.0025 31.0912L1.28372 39.746C1.19363 39.8352 1.12219 39.9412 1.0735 40.0579C1.02481 40.1746 0.999831 40.2997 1 40.426V57.7357C1 57.9907 1.10207 58.2353 1.28374 58.4156C1.46542 58.596 1.71182 58.6973 1.96875 58.6973H10.6875C10.9444 58.6973 11.1908 58.596 11.3725 58.4156C11.5542 58.2353 11.6563 57.9907 11.6563 57.7357V56.6472L17.4688 55.8282L33.76 59.6333C33.9493 59.6775 34.1476 59.6641 34.3291 59.5949L56.9131 50.9724C57.8006 50.6336 58.5238 49.9704 58.9341 49.1189C59.3445 48.2674 59.411 47.2923 59.1198 46.3937C58.8287 45.4952 58.2021 44.7413 57.3687 44.2869C56.5353 43.8325 55.5583 43.7121 54.6382 43.9503ZM9.71875 56.774H2.9375V41.3877H9.71875V56.774ZM15.6266 43.3096L32.2301 42.4374C32.4515 42.4264 32.6719 42.4754 32.8675 42.579C33.0631 42.6827 33.2267 42.8371 33.3407 43.0259C33.4548 43.2147 33.515 43.4307 33.5149 43.6508C33.5149 43.8709 33.4546 44.0869 33.3405 44.2756C33.2583 44.4125 33.1495 44.5319 33.0205 44.6268C32.8916 44.7217 32.7449 44.7903 32.589 44.8286L23.0468 47.1857C22.9226 47.2154 22.8055 47.2693 22.7024 47.3442C22.5992 47.4191 22.512 47.5135 22.4457 47.6219C22.3795 47.7304 22.3355 47.8508 22.3163 47.9763C22.2972 48.1017 22.3032 48.2296 22.334 48.3527C22.3649 48.4758 22.42 48.5917 22.4962 48.6935C22.5723 48.7954 22.668 48.8813 22.7778 48.9463C22.8875 49.0113 23.0091 49.0541 23.1356 49.0722C23.2621 49.0904 23.3909 49.0835 23.5147 49.052L27.419 48.0876L34.5902 50.935C34.7824 51.0113 34.9942 51.0244 35.1945 50.9726L55.1265 45.811C55.5672 45.6978 56.0349 45.7561 56.4337 45.9741C56.8325 46.192 57.1322 46.5531 57.2715 46.9833C57.4108 47.4136 57.3792 47.8804 57.183 48.2882C56.9868 48.696 56.641 49.0139 56.2163 49.1768L33.9133 57.6932L17.7352 53.9147C17.6179 53.8872 17.4965 53.8817 17.3772 53.8987L11.6563 54.7047V43.3081L15.6266 43.3096Z" fill="#1C2D5A"/>
<path d="M45.5625 20.2315C43.2632 20.2315 41.0157 20.9083 39.1039 22.1763C37.1922 23.4443 35.7022 25.2465 34.8223 27.3551C33.9425 29.4638 33.7123 31.784 34.1608 34.0225C34.6094 36.261 35.7165 38.3172 37.3423 39.9311C38.9681 41.5449 41.0395 42.644 43.2945 43.0892C45.5496 43.5345 47.887 43.306 50.0111 42.4326C52.1353 41.5591 53.9509 40.0801 55.2283 38.1824C56.5057 36.2847 57.1875 34.0536 57.1875 31.7712C57.184 28.7117 55.9581 25.7786 53.7787 23.6152C51.5994 21.4518 48.6445 20.2349 45.5625 20.2315ZM45.5625 41.3877C43.6464 41.3877 41.7735 40.8237 40.1804 39.767C38.5873 38.7103 37.3456 37.2085 36.6124 35.4513C35.8791 33.6941 35.6873 31.7605 36.0611 29.8951C36.4349 28.0297 37.3575 26.3162 38.7124 24.9713C40.0672 23.6265 41.7933 22.7106 43.6725 22.3395C45.5517 21.9685 47.4995 22.1589 49.2697 22.8868C51.0399 23.6146 52.5528 24.8472 53.6173 26.4286C54.6818 28.01 55.25 29.8693 55.25 31.7712C55.247 34.3208 54.2255 36.7651 52.4093 38.5679C50.5932 40.3707 48.1308 41.3848 45.5625 41.3877Z" stroke="#1C2D5A" stroke-width="0.6" mask="url(#path-2-outside-1_221_455)"/>
<path d="M45.5625 28.8863H47.5C47.7569 28.8863 48.0033 28.785 48.185 28.6046C48.3667 28.4243 48.4688 28.1797 48.4688 27.9246C48.4688 27.6696 48.3667 27.425 48.185 27.2446C48.0033 27.0643 47.7569 26.963 47.5 26.963H46.5313V26.0013C46.5313 25.7463 46.4292 25.5017 46.2475 25.3214C46.0658 25.141 45.8194 25.0397 45.5625 25.0397C45.3056 25.0397 45.0592 25.141 44.8775 25.3214C44.6958 25.5017 44.5938 25.7463 44.5938 26.0013V27.1284C43.9477 27.3554 43.4032 27.8018 43.0566 28.3887C42.7099 28.9756 42.5834 29.6653 42.6993 30.3358C42.8152 31.0063 43.1661 31.6147 43.69 32.0533C44.2139 32.4919 44.8771 32.7326 45.5625 32.7329C45.8194 32.7329 46.0658 32.8342 46.2475 33.0145C46.4292 33.1949 46.5313 33.4395 46.5313 33.6945C46.5313 33.9496 46.4292 34.1941 46.2475 34.3745C46.0658 34.5548 45.8194 34.6562 45.5625 34.6562H43.625C43.3681 34.6562 43.1217 34.7575 42.94 34.9378C42.7583 35.1182 42.6563 35.3628 42.6563 35.6178C42.6563 35.8728 42.7583 36.1174 42.94 36.2978C43.1217 36.4781 43.3681 36.5794 43.625 36.5794H44.5938V37.5411C44.5938 37.7961 44.6958 38.0407 44.8775 38.2211C45.0592 38.4014 45.3056 38.5027 45.5625 38.5027C45.8194 38.5027 46.0658 38.4014 46.2475 38.2211C46.4292 38.0407 46.5313 37.7961 46.5313 37.5411V36.414C47.1773 36.187 47.7218 35.7406 48.0684 35.1537C48.4151 34.5668 48.5416 33.8772 48.4257 33.2066C48.3098 32.5361 47.9589 31.9278 47.435 31.4892C46.9111 31.0505 46.2479 30.8098 45.5625 30.8096C45.3056 30.8096 45.0592 30.7083 44.8775 30.5279C44.6958 30.3476 44.5938 30.103 44.5938 29.8479C44.5938 29.5929 44.6958 29.3483 44.8775 29.1679C45.0592 28.9876 45.3056 28.8863 45.5625 28.8863Z" stroke="#1C2D5A" stroke-width="0.6" mask="url(#path-2-outside-1_221_455)"/>
<path d="M54.6382 43.9503L35.0143 49.0328L30.6356 47.2941L33.0582 46.6957C33.8203 46.5068 34.4843 46.043 34.9207 45.3946C35.3571 44.7463 35.5348 43.9599 35.419 43.1887C35.3032 42.4175 34.9024 41.7167 34.2945 41.2228C33.6867 40.7289 32.9154 40.4774 32.1309 40.5171L15.5501 41.3877L11.6563 41.3848V40.426C11.6563 40.171 11.5542 39.9264 11.3725 39.746C11.1908 39.5657 10.9444 39.4644 10.6875 39.4644H4.30756L11.0888 32.7329H18.4375C18.5647 32.7329 18.6907 32.708 18.8082 32.6597C18.9258 32.6113 19.0326 32.5405 19.1225 32.4512L33.3699 18.3082H41.6875C41.8147 18.3082 41.9407 18.2833 42.0582 18.235C42.1758 18.1867 42.2826 18.1158 42.3725 18.0265L56.2188 4.28184V7.73006C56.2188 7.9851 56.3208 8.2297 56.5025 8.41004C56.6842 8.59039 56.9306 8.6917 57.1875 8.6917C57.4444 8.6917 57.6908 8.59039 57.8725 8.41004C58.0542 8.2297 58.1563 7.9851 58.1563 7.73006V1.96018C58.1563 1.70514 58.0542 1.46054 57.8725 1.28019C57.6908 1.09985 57.4444 0.998535 57.1875 0.998535H51.375C51.1181 0.998535 50.8717 1.09985 50.69 1.28019C50.5083 1.46054 50.4063 1.70514 50.4063 1.96018C50.4063 2.21523 50.5083 2.45982 50.69 2.64017C50.8717 2.82051 51.1181 2.92183 51.375 2.92183H54.8487L41.2862 16.3849H32.9688C32.8415 16.3849 32.7156 16.4097 32.598 16.4581C32.4805 16.5064 32.3737 16.5772 32.2837 16.6665L18.0363 30.8096H10.6875C10.5603 30.8096 10.4343 30.8344 10.3168 30.8828C10.1992 30.9311 10.0924 31.0019 10.0025 31.0912L1.28372 39.746C1.19363 39.8352 1.12219 39.9412 1.0735 40.0579C1.02481 40.1746 0.999831 40.2997 1 40.426V57.7357C1 57.9907 1.10207 58.2353 1.28374 58.4156C1.46542 58.596 1.71182 58.6973 1.96875 58.6973H10.6875C10.9444 58.6973 11.1908 58.596 11.3725 58.4156C11.5542 58.2353 11.6563 57.9907 11.6563 57.7357V56.6472L17.4688 55.8282L33.76 59.6333C33.9493 59.6775 34.1476 59.6641 34.3291 59.5949L56.9131 50.9724C57.8006 50.6336 58.5238 49.9704 58.9341 49.1189C59.3445 48.2674 59.411 47.2923 59.1198 46.3937C58.8287 45.4952 58.2021 44.7413 57.3687 44.2869C56.5353 43.8325 55.5583 43.7121 54.6382 43.9503ZM9.71875 56.774H2.9375V41.3877H9.71875V56.774ZM15.6266 43.3096L32.2301 42.4374C32.4515 42.4264 32.6719 42.4754 32.8675 42.579C33.0631 42.6827 33.2267 42.8371 33.3407 43.0259C33.4548 43.2147 33.515 43.4307 33.5149 43.6508C33.5149 43.8709 33.4546 44.0869 33.3405 44.2756C33.2583 44.4125 33.1495 44.5319 33.0205 44.6268C32.8916 44.7217 32.7449 44.7903 32.589 44.8286L23.0468 47.1857C22.9226 47.2154 22.8055 47.2693 22.7024 47.3442C22.5992 47.4191 22.512 47.5135 22.4457 47.6219C22.3795 47.7304 22.3355 47.8508 22.3163 47.9763C22.2972 48.1017 22.3032 48.2296 22.334 48.3527C22.3649 48.4758 22.42 48.5917 22.4962 48.6935C22.5723 48.7954 22.668 48.8813 22.7778 48.9463C22.8875 49.0113 23.0091 49.0541 23.1356 49.0722C23.2621 49.0904 23.3909 49.0835 23.5147 49.052L27.419 48.0876L34.5902 50.935C34.7824 51.0113 34.9942 51.0244 35.1945 50.9726L55.1265 45.811C55.5672 45.6978 56.0349 45.7561 56.4337 45.9741C56.8325 46.192 57.1322 46.5531 57.2715 46.9833C57.4108 47.4136 57.3792 47.8804 57.183 48.2882C56.9868 48.696 56.641 49.0139 56.2163 49.1768L33.9133 57.6932L17.7352 53.9147C17.6179 53.8872 17.4965 53.8817 17.3772 53.8987L11.6563 54.7047V43.3081L15.6266 43.3096Z" stroke="#1C2D5A" stroke-width="0.6" mask="url(#path-2-outside-1_221_455)"/>
</svg>
