<svg width="12" height="12" viewBox="0 0 12 12" fill="none" xmlns="http://www.w3.org/2000/svg">
<g clip-path="url(#clip0_221_230)">
<path d="M7.95471 6.0615L12.0002 8.619V3.396L7.95471 6.0615Z" fill="#1C2D5A"/>
<path d="M0 3.396V8.619L4.0455 6.0615L0 3.396Z" fill="#1C2D5A"/>
<path d="M11.2502 1.875H0.750205C0.375955 1.875 0.0789551 2.154 0.0227051 2.51325L6.0002 6.4515L11.9777 2.51325C11.9215 2.154 11.6245 1.875 11.2502 1.875Z" fill="#1C2D5A"/>
<path d="M7.26791 6.51467L6.20666 7.21367C6.14366 7.25492 6.07241 7.27517 6.00041 7.27517C5.92841 7.27517 5.85716 7.25492 5.79416 7.21367L4.73291 6.51392L0.0244141 9.49217C0.0821641 9.84842 0.377664 10.1252 0.750414 10.1252H11.2504C11.6232 10.1252 11.9187 9.84842 11.9764 9.49217L7.26791 6.51467Z" fill="#1C2D5A"/>
</g>
<defs>
<clipPath id="clip0_221_230">
<rect width="12" height="12" fill="white"/>
</clipPath>
</defs>
</svg>
