<svg width="250" height="123" viewBox="0 0 250 123" fill="none" xmlns="http://www.w3.org/2000/svg">
<path d="M63.217 43.1708C63.2273 50.2975 57.3609 64.4932 37.6217 66.6132C18.0211 66.6132 0.0631379 52.0796 0.0359272 33.3468C0.00871654 14.614 9.55498 8.6136 18.4275 8.61328C26.9146 8.61328 27.3848 25.3495 34.6574 28.7143C44.1804 33.1203 63.2016 32.5494 63.217 43.1708Z" fill="url(#paint0_linear_221_513)"/>
<mask id="path-2-outside-1_221_513" maskUnits="userSpaceOnUse" x="28.5" y="1.61328" width="43" height="54" fill="black">
<rect fill="white" x="28.5" y="1.61328" width="43" height="54"/>
<path d="M50 2.61328C38.6963 2.61328 29.5 11.8095 29.5 23.1133C29.5 30.1579 33.0722 36.3836 38.5 40.0753V53.1132C38.5 53.6222 38.758 54.0965 39.1855 54.3728C39.6128 54.6491 40.1513 54.6898 40.6155 54.481L50 50.2582L59.3845 54.4811C59.581 54.5695 59.7907 54.6133 59.9998 54.6133C60.2846 54.6133 60.568 54.5322 60.8145 54.3729C61.2418 54.0965 61.5 53.6222 61.5 53.1133V40.0754C66.9278 36.3837 70.5 30.158 70.5 23.1134C70.5 11.8095 61.3037 2.61328 50 2.61328ZM58.5 50.7935L50.6155 47.2455C50.4197 47.1574 50.2098 47.1133 50 47.1133C49.7902 47.1133 49.5802 47.1573 49.3845 47.2454L41.5 50.7934V41.7711C42.2539 42.1148 43.0277 42.4101 43.8162 42.6593C43.8608 42.6735 43.9054 42.688 43.9503 42.7018C44.051 42.7328 44.1519 42.7627 44.253 42.792C44.3278 42.814 44.4027 42.8357 44.4777 42.8568C44.5593 42.8796 44.6411 42.9016 44.723 42.9233C44.8185 42.9488 44.9141 42.9737 45.0101 42.9979C45.078 43.0148 45.1459 43.0315 45.214 43.0476C45.3244 43.0742 45.4351 43.0998 45.5462 43.1244C45.6038 43.1372 45.6614 43.1499 45.7191 43.1622C45.8408 43.1882 45.9629 43.2128 46.0855 43.2367C46.1353 43.2463 46.1852 43.2562 46.2352 43.2655C46.365 43.2897 46.4953 43.3123 46.6259 43.3341C46.6707 43.3416 46.7155 43.3493 46.7603 43.3564C46.8951 43.3779 47.0305 43.3977 47.1663 43.4165C47.2083 43.4223 47.2503 43.4286 47.2923 43.4342C47.4297 43.4524 47.5678 43.4687 47.7059 43.4842C47.7471 43.4887 47.7882 43.4939 47.8294 43.4984C47.9672 43.513 48.1055 43.5255 48.2442 43.5373C48.2862 43.5408 48.3281 43.5452 48.3702 43.5485C48.5068 43.5592 48.644 43.5679 48.7814 43.576C48.8255 43.5786 48.8694 43.5821 48.9137 43.5844C49.0525 43.5917 49.1919 43.5967 49.3314 43.6012C49.3734 43.6026 49.4152 43.6048 49.4572 43.6059C49.6376 43.6106 49.8186 43.6132 50.0002 43.6132C50.1817 43.6132 50.3627 43.6106 50.543 43.6059C50.5851 43.6048 50.6268 43.6026 50.6689 43.6012C50.8084 43.5967 50.9478 43.5916 51.0866 43.5844C51.1307 43.5821 51.1747 43.5786 51.2188 43.576C51.3563 43.5679 51.4935 43.5593 51.6301 43.5485C51.6722 43.5452 51.7141 43.5408 51.7561 43.5373C51.8947 43.5255 52.0331 43.5129 52.1709 43.4984C52.2121 43.494 52.2532 43.4888 52.2944 43.4842C52.4326 43.4686 52.5705 43.4524 52.7079 43.4342C52.7501 43.4286 52.7919 43.4224 52.834 43.4165C52.9697 43.3977 53.1051 43.3779 53.2399 43.3564C53.2848 43.3492 53.3295 43.3415 53.3744 43.3341C53.505 43.3123 53.6353 43.2897 53.7651 43.2655C53.8151 43.2562 53.8649 43.2464 53.9148 43.2367C54.0373 43.2129 54.1594 43.1881 54.2812 43.1622C54.3389 43.1499 54.3965 43.1372 54.4541 43.1244C54.5652 43.0998 54.6759 43.0742 54.7863 43.0476C54.8543 43.0314 54.9222 43.0147 54.9902 42.9979C55.0861 42.9738 55.1817 42.9489 55.2773 42.9233C55.3591 42.9015 55.441 42.8797 55.5226 42.8568C55.5976 42.8357 55.6726 42.814 55.7473 42.792C55.8484 42.7626 55.9494 42.7328 56.05 42.7018C56.0949 42.6879 56.1394 42.6734 56.1841 42.6593C56.9726 42.4101 57.7464 42.1149 58.5003 41.7712V50.7935H58.5ZM55.7107 39.6556C55.6509 39.6762 55.5911 39.6969 55.5311 39.7169C55.4399 39.7474 55.3483 39.7773 55.2564 39.8063C55.1494 39.8399 55.0422 39.8723 54.9346 39.9038C54.8587 39.9261 54.7828 39.9484 54.7065 39.9697C54.5642 40.0094 54.4214 40.0474 54.2781 40.0834C54.2247 40.097 54.1711 40.1097 54.1175 40.1227C53.9773 40.1567 53.8364 40.189 53.6952 40.2194C53.6597 40.2272 53.6244 40.2353 53.5889 40.2426C53.4067 40.2807 53.2239 40.3161 53.0404 40.3483C53.0217 40.3516 53.0029 40.3544 52.9841 40.3578C52.8188 40.3863 52.6529 40.4122 52.4867 40.4359C52.4493 40.4412 52.4118 40.4465 52.3741 40.4517C52.1969 40.4758 52.0194 40.4979 51.8412 40.5166C51.8345 40.5173 51.8278 40.5182 51.8211 40.5189C51.6346 40.5383 51.4475 40.5543 51.2601 40.5676C51.2194 40.5705 51.1786 40.5727 51.1379 40.5754C50.9922 40.5849 50.8464 40.5923 50.7003 40.5982C50.6506 40.6002 50.6009 40.6022 50.5513 40.6039C50.3677 40.6094 50.184 40.6133 50 40.6133C49.816 40.6133 49.6322 40.6095 49.4487 40.6036C49.3989 40.6021 49.3493 40.6 49.2997 40.598C49.1536 40.5922 49.0078 40.5847 48.8621 40.5752C48.8214 40.5726 48.7806 40.5703 48.7399 40.5674C48.5525 40.554 48.3654 40.538 48.1789 40.5187C48.1722 40.518 48.1655 40.5171 48.1588 40.5164C47.9806 40.4977 47.8031 40.4756 47.6259 40.4515C47.5884 40.4464 47.5509 40.4411 47.5133 40.4357C47.3471 40.4119 47.1812 40.3861 47.0159 40.3576C46.9972 40.3544 46.9784 40.3515 46.9596 40.3481C46.7761 40.3159 46.5932 40.2804 46.4111 40.2424C46.3756 40.235 46.3403 40.2267 46.3047 40.2192C46.1636 40.1889 46.0227 40.1565 45.8824 40.1225C45.8288 40.1095 45.7752 40.0967 45.7219 40.0832C45.5786 40.0473 45.4358 40.0091 45.2935 39.9695C45.2172 39.9482 45.1412 39.9259 45.0654 39.9036C44.9579 39.872 44.8506 39.8397 44.7435 39.8061C44.6516 39.777 44.5601 39.7472 44.4688 39.7167C44.4087 39.6967 44.3488 39.676 44.2891 39.6554C37.4353 37.2828 32.5 30.7639 32.5 23.1133C32.5 13.4638 40.3504 5.61323 50 5.61323C59.6495 5.61323 67.5 13.4637 67.5 23.1133C67.5 30.7639 62.5646 37.2828 55.7107 39.6556Z"/>
</mask>
<path d="M50 2.61328C38.6963 2.61328 29.5 11.8095 29.5 23.1133C29.5 30.1579 33.0722 36.3836 38.5 40.0753V53.1132C38.5 53.6222 38.758 54.0965 39.1855 54.3728C39.6128 54.6491 40.1513 54.6898 40.6155 54.481L50 50.2582L59.3845 54.4811C59.581 54.5695 59.7907 54.6133 59.9998 54.6133C60.2846 54.6133 60.568 54.5322 60.8145 54.3729C61.2418 54.0965 61.5 53.6222 61.5 53.1133V40.0754C66.9278 36.3837 70.5 30.158 70.5 23.1134C70.5 11.8095 61.3037 2.61328 50 2.61328ZM58.5 50.7935L50.6155 47.2455C50.4197 47.1574 50.2098 47.1133 50 47.1133C49.7902 47.1133 49.5802 47.1573 49.3845 47.2454L41.5 50.7934V41.7711C42.2539 42.1148 43.0277 42.4101 43.8162 42.6593C43.8608 42.6735 43.9054 42.688 43.9503 42.7018C44.051 42.7328 44.1519 42.7627 44.253 42.792C44.3278 42.814 44.4027 42.8357 44.4777 42.8568C44.5593 42.8796 44.6411 42.9016 44.723 42.9233C44.8185 42.9488 44.9141 42.9737 45.0101 42.9979C45.078 43.0148 45.1459 43.0315 45.214 43.0476C45.3244 43.0742 45.4351 43.0998 45.5462 43.1244C45.6038 43.1372 45.6614 43.1499 45.7191 43.1622C45.8408 43.1882 45.9629 43.2128 46.0855 43.2367C46.1353 43.2463 46.1852 43.2562 46.2352 43.2655C46.365 43.2897 46.4953 43.3123 46.6259 43.3341C46.6707 43.3416 46.7155 43.3493 46.7603 43.3564C46.8951 43.3779 47.0305 43.3977 47.1663 43.4165C47.2083 43.4223 47.2503 43.4286 47.2923 43.4342C47.4297 43.4524 47.5678 43.4687 47.7059 43.4842C47.7471 43.4887 47.7882 43.4939 47.8294 43.4984C47.9672 43.513 48.1055 43.5255 48.2442 43.5373C48.2862 43.5408 48.3281 43.5452 48.3702 43.5485C48.5068 43.5592 48.644 43.5679 48.7814 43.576C48.8255 43.5786 48.8694 43.5821 48.9137 43.5844C49.0525 43.5917 49.1919 43.5967 49.3314 43.6012C49.3734 43.6026 49.4152 43.6048 49.4572 43.6059C49.6376 43.6106 49.8186 43.6132 50.0002 43.6132C50.1817 43.6132 50.3627 43.6106 50.543 43.6059C50.5851 43.6048 50.6268 43.6026 50.6689 43.6012C50.8084 43.5967 50.9478 43.5916 51.0866 43.5844C51.1307 43.5821 51.1747 43.5786 51.2188 43.576C51.3563 43.5679 51.4935 43.5593 51.6301 43.5485C51.6722 43.5452 51.7141 43.5408 51.7561 43.5373C51.8947 43.5255 52.0331 43.5129 52.1709 43.4984C52.2121 43.494 52.2532 43.4888 52.2944 43.4842C52.4326 43.4686 52.5705 43.4524 52.7079 43.4342C52.7501 43.4286 52.7919 43.4224 52.834 43.4165C52.9697 43.3977 53.1051 43.3779 53.2399 43.3564C53.2848 43.3492 53.3295 43.3415 53.3744 43.3341C53.505 43.3123 53.6353 43.2897 53.7651 43.2655C53.8151 43.2562 53.8649 43.2464 53.9148 43.2367C54.0373 43.2129 54.1594 43.1881 54.2812 43.1622C54.3389 43.1499 54.3965 43.1372 54.4541 43.1244C54.5652 43.0998 54.6759 43.0742 54.7863 43.0476C54.8543 43.0314 54.9222 43.0147 54.9902 42.9979C55.0861 42.9738 55.1817 42.9489 55.2773 42.9233C55.3591 42.9015 55.441 42.8797 55.5226 42.8568C55.5976 42.8357 55.6726 42.814 55.7473 42.792C55.8484 42.7626 55.9494 42.7328 56.05 42.7018C56.0949 42.6879 56.1394 42.6734 56.1841 42.6593C56.9726 42.4101 57.7464 42.1149 58.5003 41.7712V50.7935H58.5ZM55.7107 39.6556C55.6509 39.6762 55.5911 39.6969 55.5311 39.7169C55.4399 39.7474 55.3483 39.7773 55.2564 39.8063C55.1494 39.8399 55.0422 39.8723 54.9346 39.9038C54.8587 39.9261 54.7828 39.9484 54.7065 39.9697C54.5642 40.0094 54.4214 40.0474 54.2781 40.0834C54.2247 40.097 54.1711 40.1097 54.1175 40.1227C53.9773 40.1567 53.8364 40.189 53.6952 40.2194C53.6597 40.2272 53.6244 40.2353 53.5889 40.2426C53.4067 40.2807 53.2239 40.3161 53.0404 40.3483C53.0217 40.3516 53.0029 40.3544 52.9841 40.3578C52.8188 40.3863 52.6529 40.4122 52.4867 40.4359C52.4493 40.4412 52.4118 40.4465 52.3741 40.4517C52.1969 40.4758 52.0194 40.4979 51.8412 40.5166C51.8345 40.5173 51.8278 40.5182 51.8211 40.5189C51.6346 40.5383 51.4475 40.5543 51.2601 40.5676C51.2194 40.5705 51.1786 40.5727 51.1379 40.5754C50.9922 40.5849 50.8464 40.5923 50.7003 40.5982C50.6506 40.6002 50.6009 40.6022 50.5513 40.6039C50.3677 40.6094 50.184 40.6133 50 40.6133C49.816 40.6133 49.6322 40.6095 49.4487 40.6036C49.3989 40.6021 49.3493 40.6 49.2997 40.598C49.1536 40.5922 49.0078 40.5847 48.8621 40.5752C48.8214 40.5726 48.7806 40.5703 48.7399 40.5674C48.5525 40.554 48.3654 40.538 48.1789 40.5187C48.1722 40.518 48.1655 40.5171 48.1588 40.5164C47.9806 40.4977 47.8031 40.4756 47.6259 40.4515C47.5884 40.4464 47.5509 40.4411 47.5133 40.4357C47.3471 40.4119 47.1812 40.3861 47.0159 40.3576C46.9972 40.3544 46.9784 40.3515 46.9596 40.3481C46.7761 40.3159 46.5932 40.2804 46.4111 40.2424C46.3756 40.235 46.3403 40.2267 46.3047 40.2192C46.1636 40.1889 46.0227 40.1565 45.8824 40.1225C45.8288 40.1095 45.7752 40.0967 45.7219 40.0832C45.5786 40.0473 45.4358 40.0091 45.2935 39.9695C45.2172 39.9482 45.1412 39.9259 45.0654 39.9036C44.9579 39.872 44.8506 39.8397 44.7435 39.8061C44.6516 39.777 44.5601 39.7472 44.4688 39.7167C44.4087 39.6967 44.3488 39.676 44.2891 39.6554C37.4353 37.2828 32.5 30.7639 32.5 23.1133C32.5 13.4638 40.3504 5.61323 50 5.61323C59.6495 5.61323 67.5 13.4637 67.5 23.1133C67.5 30.7639 62.5646 37.2828 55.7107 39.6556Z" fill="white"/>
<path d="M50 2.61328C38.6963 2.61328 29.5 11.8095 29.5 23.1133C29.5 30.1579 33.0722 36.3836 38.5 40.0753V53.1132C38.5 53.6222 38.758 54.0965 39.1855 54.3728C39.6128 54.6491 40.1513 54.6898 40.6155 54.481L50 50.2582L59.3845 54.4811C59.581 54.5695 59.7907 54.6133 59.9998 54.6133C60.2846 54.6133 60.568 54.5322 60.8145 54.3729C61.2418 54.0965 61.5 53.6222 61.5 53.1133V40.0754C66.9278 36.3837 70.5 30.158 70.5 23.1134C70.5 11.8095 61.3037 2.61328 50 2.61328ZM58.5 50.7935L50.6155 47.2455C50.4197 47.1574 50.2098 47.1133 50 47.1133C49.7902 47.1133 49.5802 47.1573 49.3845 47.2454L41.5 50.7934V41.7711C42.2539 42.1148 43.0277 42.4101 43.8162 42.6593C43.8608 42.6735 43.9054 42.688 43.9503 42.7018C44.051 42.7328 44.1519 42.7627 44.253 42.792C44.3278 42.814 44.4027 42.8357 44.4777 42.8568C44.5593 42.8796 44.6411 42.9016 44.723 42.9233C44.8185 42.9488 44.9141 42.9737 45.0101 42.9979C45.078 43.0148 45.1459 43.0315 45.214 43.0476C45.3244 43.0742 45.4351 43.0998 45.5462 43.1244C45.6038 43.1372 45.6614 43.1499 45.7191 43.1622C45.8408 43.1882 45.9629 43.2128 46.0855 43.2367C46.1353 43.2463 46.1852 43.2562 46.2352 43.2655C46.365 43.2897 46.4953 43.3123 46.6259 43.3341C46.6707 43.3416 46.7155 43.3493 46.7603 43.3564C46.8951 43.3779 47.0305 43.3977 47.1663 43.4165C47.2083 43.4223 47.2503 43.4286 47.2923 43.4342C47.4297 43.4524 47.5678 43.4687 47.7059 43.4842C47.7471 43.4887 47.7882 43.4939 47.8294 43.4984C47.9672 43.513 48.1055 43.5255 48.2442 43.5373C48.2862 43.5408 48.3281 43.5452 48.3702 43.5485C48.5068 43.5592 48.644 43.5679 48.7814 43.576C48.8255 43.5786 48.8694 43.5821 48.9137 43.5844C49.0525 43.5917 49.1919 43.5967 49.3314 43.6012C49.3734 43.6026 49.4152 43.6048 49.4572 43.6059C49.6376 43.6106 49.8186 43.6132 50.0002 43.6132C50.1817 43.6132 50.3627 43.6106 50.543 43.6059C50.5851 43.6048 50.6268 43.6026 50.6689 43.6012C50.8084 43.5967 50.9478 43.5916 51.0866 43.5844C51.1307 43.5821 51.1747 43.5786 51.2188 43.576C51.3563 43.5679 51.4935 43.5593 51.6301 43.5485C51.6722 43.5452 51.7141 43.5408 51.7561 43.5373C51.8947 43.5255 52.0331 43.5129 52.1709 43.4984C52.2121 43.494 52.2532 43.4888 52.2944 43.4842C52.4326 43.4686 52.5705 43.4524 52.7079 43.4342C52.7501 43.4286 52.7919 43.4224 52.834 43.4165C52.9697 43.3977 53.1051 43.3779 53.2399 43.3564C53.2848 43.3492 53.3295 43.3415 53.3744 43.3341C53.505 43.3123 53.6353 43.2897 53.7651 43.2655C53.8151 43.2562 53.8649 43.2464 53.9148 43.2367C54.0373 43.2129 54.1594 43.1881 54.2812 43.1622C54.3389 43.1499 54.3965 43.1372 54.4541 43.1244C54.5652 43.0998 54.6759 43.0742 54.7863 43.0476C54.8543 43.0314 54.9222 43.0147 54.9902 42.9979C55.0861 42.9738 55.1817 42.9489 55.2773 42.9233C55.3591 42.9015 55.441 42.8797 55.5226 42.8568C55.5976 42.8357 55.6726 42.814 55.7473 42.792C55.8484 42.7626 55.9494 42.7328 56.05 42.7018C56.0949 42.6879 56.1394 42.6734 56.1841 42.6593C56.9726 42.4101 57.7464 42.1149 58.5003 41.7712V50.7935H58.5ZM55.7107 39.6556C55.6509 39.6762 55.5911 39.6969 55.5311 39.7169C55.4399 39.7474 55.3483 39.7773 55.2564 39.8063C55.1494 39.8399 55.0422 39.8723 54.9346 39.9038C54.8587 39.9261 54.7828 39.9484 54.7065 39.9697C54.5642 40.0094 54.4214 40.0474 54.2781 40.0834C54.2247 40.097 54.1711 40.1097 54.1175 40.1227C53.9773 40.1567 53.8364 40.189 53.6952 40.2194C53.6597 40.2272 53.6244 40.2353 53.5889 40.2426C53.4067 40.2807 53.2239 40.3161 53.0404 40.3483C53.0217 40.3516 53.0029 40.3544 52.9841 40.3578C52.8188 40.3863 52.6529 40.4122 52.4867 40.4359C52.4493 40.4412 52.4118 40.4465 52.3741 40.4517C52.1969 40.4758 52.0194 40.4979 51.8412 40.5166C51.8345 40.5173 51.8278 40.5182 51.8211 40.5189C51.6346 40.5383 51.4475 40.5543 51.2601 40.5676C51.2194 40.5705 51.1786 40.5727 51.1379 40.5754C50.9922 40.5849 50.8464 40.5923 50.7003 40.5982C50.6506 40.6002 50.6009 40.6022 50.5513 40.6039C50.3677 40.6094 50.184 40.6133 50 40.6133C49.816 40.6133 49.6322 40.6095 49.4487 40.6036C49.3989 40.6021 49.3493 40.6 49.2997 40.598C49.1536 40.5922 49.0078 40.5847 48.8621 40.5752C48.8214 40.5726 48.7806 40.5703 48.7399 40.5674C48.5525 40.554 48.3654 40.538 48.1789 40.5187C48.1722 40.518 48.1655 40.5171 48.1588 40.5164C47.9806 40.4977 47.8031 40.4756 47.6259 40.4515C47.5884 40.4464 47.5509 40.4411 47.5133 40.4357C47.3471 40.4119 47.1812 40.3861 47.0159 40.3576C46.9972 40.3544 46.9784 40.3515 46.9596 40.3481C46.7761 40.3159 46.5932 40.2804 46.4111 40.2424C46.3756 40.235 46.3403 40.2267 46.3047 40.2192C46.1636 40.1889 46.0227 40.1565 45.8824 40.1225C45.8288 40.1095 45.7752 40.0967 45.7219 40.0832C45.5786 40.0473 45.4358 40.0091 45.2935 39.9695C45.2172 39.9482 45.1412 39.9259 45.0654 39.9036C44.9579 39.872 44.8506 39.8397 44.7435 39.8061C44.6516 39.777 44.5601 39.7472 44.4688 39.7167C44.4087 39.6967 44.3488 39.676 44.2891 39.6554C37.4353 37.2828 32.5 30.7639 32.5 23.1133C32.5 13.4638 40.3504 5.61323 50 5.61323C59.6495 5.61323 67.5 13.4637 67.5 23.1133C67.5 30.7639 62.5646 37.2828 55.7107 39.6556Z" stroke="white" stroke-width="0.8" mask="url(#path-2-outside-1_221_513)"/>
<path d="M51.4436 10.2128L51.4435 10.2128C51.1329 9.71556 50.588 9.41328 50.0016 9.41328C49.4153 9.41328 48.8704 9.71556 48.5598 10.2128L48.5597 10.2128L45.4389 15.2102L39.5506 15.4142C39.5505 15.4142 39.5505 15.4142 39.5505 15.4142C38.9645 15.4345 38.4303 15.7555 38.1372 16.2632C37.844 16.7709 37.8331 17.394 38.1086 17.9116C38.1086 17.9117 38.1086 17.9117 38.1086 17.9117L40.8761 23.1132L38.1086 28.3147C38.1086 28.3147 38.1086 28.3147 38.1086 28.3147C37.8331 28.8324 37.844 29.4554 38.1372 29.9631C38.4303 30.4708 38.9645 30.7919 39.5506 30.8121L45.4389 31.0161L48.5597 36.0135L48.7294 35.9076L48.5597 36.0136C48.8703 36.5108 49.4153 36.8131 50.0016 36.8131C50.588 36.8131 51.1329 36.5108 51.4435 36.0136L51.4436 36.0135L54.5644 31.0161L60.4527 30.8121C61.0388 30.7919 61.573 30.4708 61.8661 29.9631C62.1593 29.4554 62.1702 28.8323 61.8946 28.3147L59.1273 23.1132L61.8947 17.9117C61.8947 17.9117 61.8948 17.9117 61.8948 17.9116C62.1703 17.394 62.1594 16.7709 61.8662 16.2632C61.5731 15.7555 61.0389 15.4345 60.4528 15.4142L54.5645 15.2102L51.4436 10.2128ZM46.4606 27.6496L46.4606 27.6496L42.3889 27.5084L44.3025 23.9117C44.3025 23.9117 44.3025 23.9117 44.3025 23.9117C44.5682 23.4124 44.5682 22.8139 44.3025 22.3147C44.3025 22.3147 44.3025 22.3147 44.3025 22.3147L42.3889 18.7179L46.4606 18.5768C47.0256 18.5572 47.5442 18.2579 47.8436 17.7782C47.8436 17.7782 47.8436 17.7782 47.8436 17.7782L50.0016 14.3226L52.1597 17.7783C52.4592 18.2579 52.9776 18.5572 53.5427 18.5769L53.5427 18.5769L57.6144 18.718L55.7008 22.3148L55.7008 22.3148C55.4352 22.814 55.4352 23.4126 55.7009 23.9118C55.7009 23.9118 55.7009 23.9118 55.7009 23.9118L57.6145 27.5085L53.5428 27.6495C52.9778 27.669 52.4592 27.9684 52.1598 28.448C52.1598 28.4481 52.1598 28.4481 52.1598 28.4481L50.0016 31.9038L47.8436 28.4481C47.5441 27.9685 47.0256 27.6692 46.4606 27.6496Z" fill="white" stroke="white" stroke-width="0.4"/>
<path d="M6.752 99.128C8.496 99.128 10 98.52 11.024 97.368L9.984 96.36C9.12 97.272 8.064 97.704 6.832 97.704C4.304 97.704 2.432 95.88 2.432 93.4C2.432 90.92 4.304 89.096 6.832 89.096C8.064 89.096 9.12 89.512 9.984 90.424L11.024 89.416C10 88.264 8.496 87.672 6.768 87.672C3.36 87.672 0.832 90.088 0.832 93.4C0.832 96.712 3.36 99.128 6.752 99.128ZM19.058 90.52H11.314V91.864H14.418V99H15.954V91.864H19.058V90.52ZM23.6526 90.44C22.2926 90.44 21.0286 90.824 20.1486 91.528L20.7886 92.68C21.4446 92.12 22.4686 91.768 23.4766 91.768C24.9966 91.768 25.7486 92.52 25.7486 93.816V94.12H23.3166C20.7886 94.12 19.9086 95.24 19.9086 96.6C19.9086 98.072 21.1246 99.096 23.0446 99.096C24.3726 99.096 25.3166 98.648 25.8286 97.88V99H27.2846V93.88C27.2846 91.56 25.9726 90.44 23.6526 90.44ZM23.3006 97.912C22.1326 97.912 21.4286 97.384 21.4286 96.536C21.4286 95.816 21.8606 95.224 23.3806 95.224H25.7486V96.408C25.3646 97.384 24.4526 97.912 23.3006 97.912ZM36.3705 90.52H28.6265V91.864H31.7305V99H33.2665V91.864H36.3705V90.52ZM44.052 90.52L41.124 97.304L38.164 90.52H36.564L40.308 98.984L40.036 99.576C39.62 100.552 39.156 100.888 38.42 100.888C37.844 100.888 37.316 100.664 36.9 100.264L36.244 101.416C36.772 101.928 37.604 102.2 38.42 102.2C39.716 102.2 40.692 101.64 41.444 99.848L45.556 90.52H44.052ZM50.5903 99.096C52.1103 99.096 53.3743 98.456 54.0463 97.272L52.8783 96.536C52.3343 97.368 51.5023 97.752 50.5743 97.752C48.9103 97.752 47.6623 96.6 47.6623 94.76C47.6623 92.952 48.9103 91.784 50.5743 91.784C51.5023 91.784 52.3343 92.168 52.8783 93L54.0463 92.248C53.3743 91.064 52.1103 90.44 50.5903 90.44C47.9823 90.44 46.1103 92.232 46.1103 94.76C46.1103 97.288 47.9823 99.096 50.5903 99.096ZM56.0349 99H57.5709V95.448H62.4029V99H63.9389V90.52H62.4029V94.12H57.5709V90.52H56.0349V99ZM70.7495 93.4L68.4615 93.384V90.52H66.9255V99L70.4935 99.016C72.7655 99.032 74.0455 98.008 74.0455 96.168C74.0455 94.424 72.8935 93.416 70.7495 93.4ZM75.3095 99H76.8455V90.52H75.3095V99ZM70.3815 97.848L68.4615 97.832V94.504L70.3815 94.536C71.7735 94.552 72.4935 95.032 72.4935 96.152C72.4935 97.288 71.7575 97.864 70.3815 97.848ZM87.4958 94.808C87.4958 92.2 85.7518 90.44 83.3038 90.44C80.8558 90.44 79.0478 92.248 79.0478 94.76C79.0478 97.288 80.8718 99.096 83.6078 99.096C85.0158 99.096 86.1838 98.616 86.9518 97.72L86.1038 96.728C85.4798 97.416 84.6478 97.752 83.6558 97.752C81.9758 97.752 80.7758 96.76 80.5838 95.272H87.4638C87.4798 95.128 87.4958 94.936 87.4958 94.808ZM83.3038 91.736C84.7918 91.736 85.8638 92.744 86.0238 94.168H80.5838C80.7438 92.728 81.8318 91.736 83.3038 91.736ZM98.7675 94.584C99.6955 94.248 100.304 93.56 100.304 92.712C100.304 91.336 98.7835 90.408 96.7195 90.408C95.6315 90.408 94.5755 90.632 93.4715 91.192L93.8875 92.376C94.8155 91.944 95.6955 91.72 96.5595 91.72C97.8555 91.72 98.7195 92.168 98.7195 92.936C98.7195 93.656 97.9995 94.072 96.8635 94.072H95.4235V95.176H96.9755C98.2235 95.176 98.9595 95.624 98.9595 96.408C98.9595 97.272 98.0155 97.8 96.5755 97.8C95.5355 97.8 94.4155 97.512 93.5995 96.984L93.1355 98.152C94.0795 98.76 95.3275 99.112 96.5915 99.112C98.8475 99.112 100.544 98.072 100.544 96.536C100.544 95.56 99.9035 94.872 98.7675 94.584ZM102.879 99H104.415V95.448H109.247V99H110.783V90.52H109.247V94.12H104.415V90.52H102.879V99ZM116.793 90.44C115.433 90.44 114.169 90.824 113.289 91.528L113.929 92.68C114.585 92.12 115.609 91.768 116.617 91.768C118.137 91.768 118.889 92.52 118.889 93.816V94.12H116.457C113.929 94.12 113.049 95.24 113.049 96.6C113.049 98.072 114.265 99.096 116.185 99.096C117.513 99.096 118.457 98.648 118.969 97.88V99H120.425V93.88C120.425 91.56 119.113 90.44 116.793 90.44ZM116.441 97.912C115.273 97.912 114.569 97.384 114.569 96.536C114.569 95.816 115.001 95.224 116.521 95.224H118.889V96.408C118.505 97.384 117.593 97.912 116.441 97.912ZM128.423 90.52V94.392C127.607 94.744 126.775 94.952 126.007 94.952C124.711 94.952 123.911 94.376 123.911 93.176V90.52H122.375V93.272C122.375 95.288 123.623 96.216 125.687 96.216C126.631 96.216 127.559 95.976 128.423 95.576V99H129.959V90.52H128.423ZM139.085 99H140.893L137.453 94.6L140.669 90.52H139.021L136.269 94.104H134.477V90.52H132.941V99H134.477V95.416H136.237L139.085 99ZM142.504 99H143.912L149.096 92.824V99H150.632V90.52H149.24L144.04 96.696V90.52H142.504V99ZM1.488 119H2.896L8.08 112.824V119H9.616V110.52H8.224L3.024 116.696V110.52H1.488V119ZM17.0488 114.584C17.9768 114.248 18.5848 113.56 18.5848 112.712C18.5848 111.336 17.0648 110.408 15.0008 110.408C13.9128 110.408 12.8568 110.632 11.7528 111.192L12.1688 112.376C13.0968 111.944 13.9768 111.72 14.8408 111.72C16.1368 111.72 17.0008 112.168 17.0008 112.936C17.0008 113.656 16.2808 114.072 15.1448 114.072H13.7048V115.176H15.2568C16.5048 115.176 17.2408 115.624 17.2408 116.408C17.2408 117.272 16.2968 117.8 14.8568 117.8C13.8168 117.8 12.6968 117.512 11.8808 116.984L11.4168 118.152C12.3608 118.76 13.6088 119.112 14.8728 119.112C17.1288 119.112 18.8248 118.072 18.8248 116.536C18.8248 115.56 18.1848 114.872 17.0488 114.584ZM32.7847 117.656V110.52H26.2088L26.0807 113.384C25.9688 115.528 25.7608 117.592 24.5448 117.656H24.0968V120.968H25.5528V119H32.6408V120.968H34.0808V117.656H32.7847ZM27.4888 113.496L27.5688 111.864H31.2488V117.656H26.4968C27.2648 116.984 27.4248 115.256 27.4888 113.496ZM40.5778 110.44C39.3298 110.44 38.2418 110.92 37.5538 111.864V110.52H36.0818V122.104H37.6178V117.72C38.3218 118.632 39.3778 119.096 40.5778 119.096C43.0578 119.096 44.8658 117.368 44.8658 114.76C44.8658 112.168 43.0578 110.44 40.5778 110.44ZM40.4498 117.752C38.8338 117.752 37.6018 116.568 37.6018 114.76C37.6018 112.968 38.8338 111.784 40.4498 111.784C42.0818 111.784 43.3138 112.968 43.3138 114.76C43.3138 116.568 42.0818 117.752 40.4498 117.752ZM50.0433 110.44C48.6833 110.44 47.4193 110.824 46.5393 111.528L47.1793 112.68C47.8353 112.12 48.8593 111.768 49.8673 111.768C51.3873 111.768 52.1393 112.52 52.1393 113.816V114.12H49.7073C47.1793 114.12 46.2993 115.24 46.2993 116.6C46.2993 118.072 47.5153 119.096 49.4353 119.096C50.7633 119.096 51.7073 118.648 52.2193 117.88V119H53.6753V113.88C53.6753 111.56 52.3633 110.44 50.0433 110.44ZM49.6913 117.912C48.5233 117.912 47.8193 117.384 47.8193 116.536C47.8193 115.816 48.2513 115.224 49.7713 115.224H52.1393V116.408C51.7553 117.384 50.8433 117.912 49.6913 117.912ZM62.6811 110.52H56.4411V119H57.9771V111.864H62.6811V110.52ZM67.5106 119.096C70.0546 119.096 71.9106 117.288 71.9106 114.76C71.9106 112.232 70.0546 110.44 67.5106 110.44C64.9666 110.44 63.0946 112.232 63.0946 114.76C63.0946 117.288 64.9666 119.096 67.5106 119.096ZM67.5106 117.752C65.8786 117.752 64.6466 116.568 64.6466 114.76C64.6466 112.952 65.8786 111.784 67.5106 111.784C69.1426 111.784 70.3586 112.952 70.3586 114.76C70.3586 116.568 69.1426 117.752 67.5106 117.752ZM81.8406 117.656V110.52H80.3046V117.656H75.6646V110.52H74.1286V119H81.7286V121.032H83.1846V117.656H81.8406ZM92.8395 114.808C92.8395 112.2 91.0955 110.44 88.6475 110.44C86.1995 110.44 84.3915 112.248 84.3915 114.76C84.3915 117.288 86.2155 119.096 88.9515 119.096C90.3595 119.096 91.5275 118.616 92.2955 117.72L91.4475 116.728C90.8235 117.416 89.9915 117.752 88.9995 117.752C87.3195 117.752 86.1195 116.76 85.9275 115.272H92.8075C92.8235 115.128 92.8395 114.936 92.8395 114.808ZM88.6475 111.736C90.1355 111.736 91.2075 112.744 91.3675 114.168H85.9275C86.0875 112.728 87.1755 111.736 88.6475 111.736ZM95.2224 119H96.7584V115.448H101.59V119H103.126V110.52H101.59V114.12H96.7584V110.52H95.2224V119ZM106.113 119H107.649V115.448H112.481V119H114.017V110.52H112.481V114.12H107.649V110.52H106.113V119ZM120.828 113.4L118.54 113.384V110.52H117.004V119L120.572 119.016C122.844 119.032 124.124 118.008 124.124 116.168C124.124 114.424 122.972 113.416 120.828 113.4ZM125.388 119H126.924V110.52H125.388V119ZM120.46 117.848L118.54 117.832V114.504L120.46 114.536C121.852 114.552 122.572 115.032 122.572 116.152C122.572 117.288 121.836 117.864 120.46 117.848ZM136.95 119L133.574 114.664L136.774 110.52H135.094L132.774 113.576L130.438 110.52H128.726L131.91 114.664L128.566 119H130.278L132.758 115.752L135.206 119H136.95ZM151.199 110.52L147.775 116.248L144.447 110.52H142.863V119H144.271V112.792L147.407 118.04H148.079L151.247 112.808V119H152.639V110.52H151.199ZM163.293 114.808C163.293 112.2 161.549 110.44 159.101 110.44C156.653 110.44 154.845 112.248 154.845 114.76C154.845 117.288 156.669 119.096 159.405 119.096C160.813 119.096 161.981 118.616 162.749 117.72L161.901 116.728C161.277 117.416 160.445 117.752 159.453 117.752C157.773 117.752 156.573 116.76 156.381 115.272H163.261C163.277 115.128 163.293 114.936 163.293 114.808ZM159.101 111.736C160.589 111.736 161.661 112.744 161.821 114.168H156.381C156.541 112.728 157.629 111.736 159.101 111.736ZM171.636 110.52H163.892V111.864H166.996V119H168.532V111.864H171.636V110.52ZM176.231 110.44C174.871 110.44 173.607 110.824 172.727 111.528L173.367 112.68C174.023 112.12 175.047 111.768 176.055 111.768C177.575 111.768 178.327 112.52 178.327 113.816V114.12H175.895C173.367 114.12 172.487 115.24 172.487 116.6C172.487 118.072 173.703 119.096 175.623 119.096C176.951 119.096 177.895 118.648 178.407 117.88V119H179.863V113.88C179.863 111.56 178.551 110.44 176.231 110.44ZM175.879 117.912C174.711 117.912 174.007 117.384 174.007 116.536C174.007 115.816 174.439 115.224 175.959 115.224H178.327V116.408C177.943 117.384 177.031 117.912 175.879 117.912ZM183.397 110.52L183.253 113.656C183.141 115.656 183.077 117.736 181.701 117.736C181.589 117.736 181.461 117.72 181.317 117.688L181.221 118.984C181.573 119.08 181.877 119.128 182.165 119.128C184.085 119.128 184.485 116.744 184.629 113.752L184.725 111.864H188.373V119H189.909V110.52H183.397ZM193.647 110.52L193.503 113.656C193.391 115.656 193.327 117.736 191.951 117.736C191.839 117.736 191.711 117.72 191.567 117.688L191.471 118.984C191.823 119.08 192.127 119.128 192.415 119.128C194.335 119.128 194.735 116.744 194.879 113.752L194.975 111.864H198.623V119H200.159V110.52H193.647ZM206.761 119.096C209.305 119.096 211.161 117.288 211.161 114.76C211.161 112.232 209.305 110.44 206.761 110.44C204.217 110.44 202.345 112.232 202.345 114.76C202.345 117.288 204.217 119.096 206.761 119.096ZM206.761 117.752C205.129 117.752 203.897 116.568 203.897 114.76C203.897 112.952 205.129 111.784 206.761 111.784C208.393 111.784 209.609 112.952 209.609 114.76C209.609 116.568 208.393 117.752 206.761 117.752ZM219.155 114.6C220.003 114.264 220.515 113.608 220.515 112.696C220.515 111.304 219.315 110.52 217.315 110.52H213.379V119H217.459C219.715 119 220.803 118.136 220.803 116.664C220.803 115.592 220.275 114.888 219.155 114.6ZM214.883 111.704H217.187C218.355 111.704 218.979 112.104 218.979 112.92C218.979 113.736 218.355 114.168 217.187 114.168H214.883V111.704ZM217.347 117.816H214.883V115.272H217.443C218.707 115.272 219.267 115.688 219.267 116.568C219.267 117.432 218.611 117.816 217.347 117.816Z" fill="white"/>
<defs>
<linearGradient id="paint0_linear_221_513" x1="0" y1="8.61328" x2="69.622" y2="67.9394" gradientUnits="userSpaceOnUse">
<stop stop-color="#F09642" stop-opacity="0.78"/>
<stop offset="1" stop-color="#F0D542" stop-opacity="0.79"/>
</linearGradient>
</defs>
</svg>
