<svg width="250" height="132" viewBox="0 0 250 132" fill="none" xmlns="http://www.w3.org/2000/svg">
<path d="M52.5854 14.3973C59.3469 16.6213 70.9697 26.6339 66.793 46.0169C60.6494 64.604 41.2385 77.0779 23.4659 71.2321C5.69321 65.3863 2.99523 54.4529 5.77593 46.0391C8.43616 37.9907 24.4544 42.7907 29.9247 36.9488C37.0878 29.2993 42.5084 11.0827 52.5854 14.3973Z" fill="url(#paint0_linear_221_524)"/>
<g clip-path="url(#clip0_221_524)">
<path d="M20.0837 12.4263C20.0837 19.0509 25.4833 24.4398 32.1199 24.4398C38.7564 24.4398 44.156 19.0509 44.156 12.4263C44.156 5.8018 38.7564 0.413281 32.1199 0.413281C25.4833 0.413281 20.0837 5.8018 20.0837 12.4263ZM41.6042 12.4263C41.6042 17.6451 37.3497 21.8918 32.1199 21.8918C26.89 21.8918 22.6355 17.6451 22.6355 12.4263C22.6355 7.20803 26.89 2.9613 32.1199 2.9613C37.3498 2.9613 41.6042 7.20803 41.6042 12.4263Z" fill="white" stroke="white" stroke-width="0.4"/>
<path d="M19.3224 50.3176L19.3234 50.3165C20.2341 49.4076 20.5311 48.0786 20.1767 46.9L21.209 45.9063L21.2091 45.9062C21.776 45.3598 22.5217 45.0588 23.3108 45.0588H37.6154C40.2033 45.0588 42.6502 44.0673 44.5055 42.2673C44.5157 42.2591 44.5242 42.2509 44.5329 42.2416C44.5472 42.2265 44.5727 42.197 44.627 42.1328C44.739 42.0005 44.9888 41.7027 45.5584 41.023C45.7657 40.7756 46.0154 40.4775 46.3164 40.1182C47.6695 38.5031 50.0581 35.652 54.2818 30.6138C55.8848 28.7207 55.6447 25.8788 53.7467 24.2773L53.7464 24.2771C51.8618 22.6919 49.04 22.918 47.432 24.774L41.2394 31.1264C40.4024 30.1964 39.19 29.6239 37.8845 29.6239H25.9255C24.2043 28.9109 22.3792 28.5501 20.4973 28.5501C15.3003 28.5501 10.7397 30.9264 8.25637 35.3961C7.21355 35.2447 6.13173 35.5793 5.34424 36.3652L5.34404 36.3654L0.225205 41.4893L0.225201 41.4894C-0.270609 41.9857 -0.271553 42.7888 0.223165 43.2865L0.223196 43.2865L12.3049 55.4365C12.3049 55.4365 12.3049 55.4365 12.3049 55.4365C12.7995 55.9341 13.6045 55.9396 14.1056 55.447L13.9653 55.3043L14.1056 55.4469L19.3224 50.3176ZM52.3294 28.9734L52.3288 28.9742L42.6847 40.4808C41.3137 41.7907 39.5162 42.5112 37.6154 42.5112H23.3108C21.8575 42.5112 20.4808 43.0662 19.4369 44.0728C19.4369 44.0728 19.4369 44.0728 19.4368 44.0728L18.6637 44.8175L10.4785 36.6487C12.4271 33.1126 16.0187 31.0977 20.4968 31.0977C22.1177 31.0977 23.6839 31.4232 25.1539 32.065C25.3154 32.1357 25.4894 32.172 25.6653 32.172H37.8845C38.9432 32.172 39.8367 33.0345 39.8367 34.1196C39.8367 35.1933 38.9613 36.0676 37.8845 36.0676H29.1053C28.4011 36.0676 27.8294 36.6376 27.8294 37.3414C27.8294 38.0456 28.4012 38.6152 29.1053 38.6152H37.8845C40.3679 38.6152 42.3885 36.5991 42.3885 34.1196C42.3885 33.9544 42.3787 33.7908 42.3607 33.6291C44.3293 31.6095 45.7507 30.1517 46.7742 29.1019C47.3259 28.5359 47.762 28.0886 48.106 27.7358C48.6004 27.2286 48.9042 26.9167 49.0867 26.7289C49.2615 26.5491 49.3317 26.4763 49.3484 26.4567C50.0441 25.6371 51.2798 25.5333 52.101 26.2243C52.9227 26.918 53.027 28.1493 52.3294 28.9734ZM8.23572 38.0437L8.23678 38.0443C8.26189 38.0596 8.26794 38.0626 8.27071 38.0639C8.27291 38.065 8.27304 38.065 8.27898 38.0694C8.29019 38.0778 8.31448 38.098 8.37805 38.1585C8.50293 38.2773 8.75346 38.5261 9.30348 39.0756C9.52021 39.2922 9.78312 39.5551 10.1027 39.8747C11.4023 41.1744 13.6393 43.4114 17.5194 47.2786C17.8688 47.6274 17.8501 48.1841 17.5257 48.5084C17.5255 48.5086 17.5253 48.5087 17.5252 48.5089L13.2207 52.7413L2.92869 42.391L7.14964 38.1661C7.14966 38.1661 7.14968 38.166 7.1497 38.166C7.43854 37.8778 7.88139 37.8251 8.23572 38.0437Z" fill="white" stroke="white" stroke-width="0.4"/>
<path d="M28.8641 14.5519L28.864 14.552C28.3245 15.0048 28.2545 15.8084 28.7085 16.3472C29.2677 17.011 29.9249 17.4921 30.6299 17.7579V18.8703C30.6299 19.5745 31.2017 20.1441 31.9058 20.1441C32.6099 20.1441 33.1817 19.5745 33.1817 18.8703V17.75C34.4412 17.2438 35.3339 16.0121 35.3339 14.5746C35.3339 12.6872 33.796 11.1528 31.9058 11.1528C31.4226 11.1528 31.0299 10.7603 31.0299 10.279C31.0299 9.79766 31.4227 9.4048 31.9058 9.4048C32.218 9.4048 32.5732 9.5648 32.9306 9.91009L32.9306 9.91012C33.4372 10.3992 34.2446 10.3858 34.7347 9.88077L34.7347 9.8807C35.225 9.37493 35.2115 8.56837 34.7053 8.07909L34.7053 8.07903C34.1869 7.5784 33.6646 7.27311 33.1817 7.09271V5.9834C33.1817 5.27929 32.61 4.70918 31.9058 4.70918C31.2016 4.70918 30.6299 5.27929 30.6299 5.9834V7.1036C29.3703 7.6094 28.4777 8.84114 28.4777 10.279C28.4777 12.1661 30.0156 13.7008 31.9058 13.7008C32.3889 13.7008 32.7817 14.0934 32.7817 14.5746C32.7817 15.0559 32.3889 15.4484 31.9058 15.4484C31.5294 15.4484 31.0836 15.2086 30.6617 14.7073L30.6616 14.7072C30.2079 14.1687 29.4034 14.0997 28.8641 14.5519Z" fill="white" stroke="white" stroke-width="0.4"/>
</g>
<path d="M1.744 96.8V108H3.328V98.192H9.824V108H11.392V96.8H1.744ZM19.1246 99.44C17.8766 99.44 16.7886 99.92 16.1006 100.864V99.52H14.6286V111.104H16.1646V106.72C16.8686 107.632 17.9246 108.096 19.1246 108.096C21.6046 108.096 23.4126 106.368 23.4126 103.76C23.4126 101.168 21.6046 99.44 19.1246 99.44ZM18.9966 106.752C17.3806 106.752 16.1486 105.568 16.1486 103.76C16.1486 101.968 17.3806 100.784 18.9966 100.784C20.6286 100.784 21.8606 101.968 21.8606 103.76C21.8606 105.568 20.6286 106.752 18.9966 106.752ZM33.3083 103.808C33.3083 101.2 31.5643 99.44 29.1163 99.44C26.6683 99.44 24.8603 101.248 24.8603 103.76C24.8603 106.288 26.6843 108.096 29.4203 108.096C30.8283 108.096 31.9963 107.616 32.7643 106.72L31.9163 105.728C31.2923 106.416 30.4603 106.752 29.4683 106.752C27.7883 106.752 26.5883 105.76 26.3963 104.272H33.2763C33.2923 104.128 33.3083 103.936 33.3083 103.808ZM29.1163 100.736C30.6043 100.736 31.6763 101.744 31.8363 103.168H26.3963C26.5563 101.728 27.6443 100.736 29.1163 100.736ZM44.0271 99.52L40.6031 105.248L37.2751 99.52H35.6911V108H37.0991V101.792L40.2351 107.04H40.9071L44.0751 101.808V108H45.4671V99.52H44.0271ZM48.4568 108H49.8648L55.0487 101.824V108H56.5848V99.52H55.1927L49.9928 105.696V99.52H48.4568V108ZM59.5661 108H60.9741L66.1581 101.824V108H67.6941V99.52H66.3021L61.1021 105.696V99.52H59.5661V108ZM78.6044 108.096C81.1484 108.096 83.0044 106.288 83.0044 103.76C83.0044 101.232 81.1484 99.44 78.6044 99.44C76.0604 99.44 74.1884 101.232 74.1884 103.76C74.1884 106.288 76.0604 108.096 78.6044 108.096ZM78.6044 106.752C76.9724 106.752 75.7404 105.568 75.7404 103.76C75.7404 101.952 76.9724 100.784 78.6044 100.784C80.2364 100.784 81.4524 101.952 81.4524 103.76C81.4524 105.568 80.2364 106.752 78.6044 106.752ZM91.2299 99.52H83.4859V100.864H86.5899V108H88.1259V100.864H91.2299V99.52ZM95.7374 96.8V98.192H98.2654V108H99.8494V96.8H95.7374ZM106.875 108.128C109.483 108.128 111.435 106.048 111.435 102.4C111.435 98.752 109.483 96.672 106.875 96.672C104.251 96.672 102.299 98.752 102.299 102.4C102.299 106.048 104.251 108.128 106.875 108.128ZM106.875 106.704C105.115 106.704 103.899 105.264 103.899 102.4C103.899 99.536 105.115 98.096 106.875 98.096C108.619 98.096 109.835 99.536 109.835 102.4C109.835 105.264 108.619 106.704 106.875 106.704ZM121.844 108.128C124.452 108.128 126.404 106.048 126.404 102.4C126.404 98.752 124.452 96.672 121.844 96.672C119.22 96.672 117.268 98.752 117.268 102.4C117.268 106.048 119.22 108.128 121.844 108.128ZM121.844 106.704C120.084 106.704 118.868 105.264 118.868 102.4C118.868 99.536 120.084 98.096 121.844 98.096C123.588 98.096 124.804 99.536 124.804 102.4C124.804 105.264 123.588 106.704 121.844 106.704ZM132.516 108.128C135.124 108.128 137.076 106.048 137.076 102.4C137.076 98.752 135.124 96.672 132.516 96.672C129.892 96.672 127.94 98.752 127.94 102.4C127.94 106.048 129.892 108.128 132.516 108.128ZM132.516 106.704C130.756 106.704 129.54 105.264 129.54 102.4C129.54 99.536 130.756 98.096 132.516 98.096C134.26 98.096 135.476 99.536 135.476 102.4C135.476 105.264 134.26 106.704 132.516 106.704ZM143.188 108.128C145.796 108.128 147.748 106.048 147.748 102.4C147.748 98.752 145.796 96.672 143.188 96.672C140.564 96.672 138.612 98.752 138.612 102.4C138.612 106.048 140.564 108.128 143.188 108.128ZM143.188 106.704C141.428 106.704 140.212 105.264 140.212 102.4C140.212 99.536 141.428 98.096 143.188 98.096C144.932 98.096 146.148 99.536 146.148 102.4C146.148 105.264 144.932 106.704 143.188 106.704ZM8.816 126.656V119.52H2.24L2.112 122.384C2 124.528 1.792 126.592 0.576 126.656H0.128V129.968H1.584V128H8.672V129.968H10.112V126.656H8.816ZM3.52 122.496L3.6 120.864H7.28V126.656H2.528C3.296 125.984 3.456 124.256 3.52 122.496ZM15.745 128.096C18.289 128.096 20.145 126.288 20.145 123.76C20.145 121.232 18.289 119.44 15.745 119.44C13.201 119.44 11.329 121.232 11.329 123.76C11.329 126.288 13.201 128.096 15.745 128.096ZM15.745 126.752C14.113 126.752 12.881 125.568 12.881 123.76C12.881 121.952 14.113 120.784 15.745 120.784C17.377 120.784 18.593 121.952 18.593 123.76C18.593 125.568 17.377 126.752 15.745 126.752ZM25.2999 116.8V118.192H27.8279V128H29.4119V116.8H25.2999ZM45.2146 119.52L41.7906 125.248L38.4626 119.52H36.8786V128H38.2866V121.792L41.4226 127.04H42.0946L45.2626 121.808V128H46.6546V119.52H45.2146ZM50.4123 119.52L50.2682 122.656C50.1562 124.656 50.0923 126.736 48.7163 126.736C48.6043 126.736 48.4763 126.72 48.3323 126.688L48.2363 127.984C48.5883 128.08 48.8923 128.128 49.1803 128.128C51.1003 128.128 51.5003 125.744 51.6443 122.752L51.7403 120.864H55.3883V128H56.9243V119.52H50.4123ZM59.8943 128H61.4303V124.448H66.2623V128H67.7983V119.52H66.2623V123.12H61.4303V119.52H59.8943V128ZM71.1209 128.096C71.6969 128.096 72.1769 127.632 72.1769 126.992C72.1769 126.352 71.6969 125.904 71.1209 125.904C70.5289 125.904 70.0329 126.352 70.0329 126.992C70.0329 127.632 70.5289 128.096 71.1209 128.096ZM83.2028 119.44C81.9548 119.44 80.8668 119.92 80.1788 120.864V119.52H78.7068V131.104H80.2428V126.72C80.9468 127.632 82.0028 128.096 83.2028 128.096C85.6828 128.096 87.4908 126.368 87.4908 123.76C87.4908 121.168 85.6828 119.44 83.2028 119.44ZM83.0748 126.752C81.4588 126.752 80.2268 125.568 80.2268 123.76C80.2268 121.968 81.4588 120.784 83.0748 120.784C84.7068 120.784 85.9388 121.968 85.9388 123.76C85.9388 125.568 84.7068 126.752 83.0748 126.752ZM95.552 119.52L92.624 126.304L89.664 119.52H88.064L91.808 127.984L91.536 128.576C91.12 129.552 90.656 129.888 89.92 129.888C89.344 129.888 88.816 129.664 88.4 129.264L87.744 130.416C88.272 130.928 89.104 131.2 89.92 131.2C91.216 131.2 92.192 130.64 92.944 128.848L97.056 119.52H95.552ZM102.839 119.808C101.415 119.808 100.215 120.432 99.4953 121.52C99.6553 119.312 100.695 118.224 102.903 117.744L106.471 116.976L106.247 115.568L102.375 116.432C99.4473 117.072 98.0233 118.976 98.0233 122.48C98.0233 126.048 99.6393 128.128 102.535 128.128C105.127 128.128 106.919 126.432 106.919 123.936C106.919 121.504 105.239 119.808 102.839 119.808ZM102.567 126.848C100.935 126.848 99.7673 125.664 99.7673 123.984C99.7673 122.304 100.903 121.184 102.567 121.184C104.231 121.184 105.351 122.304 105.351 123.984C105.351 125.664 104.215 126.848 102.567 126.848ZM109.819 119.52L109.674 122.656C109.562 124.656 109.499 126.736 108.123 126.736C108.011 126.736 107.883 126.72 107.739 126.688L107.643 127.984C107.995 128.08 108.299 128.128 108.587 128.128C110.507 128.128 110.907 125.744 111.051 122.752L111.147 120.864H114.795V128H116.331V119.52H109.819ZM126.965 123.808C126.965 121.2 125.221 119.44 122.773 119.44C120.325 119.44 118.517 121.248 118.517 123.76C118.517 126.288 120.341 128.096 123.077 128.096C124.485 128.096 125.653 127.616 126.421 126.72L125.573 125.728C124.949 126.416 124.117 126.752 123.125 126.752C121.445 126.752 120.245 125.76 120.053 124.272H126.933C126.949 124.128 126.965 123.936 126.965 123.808ZM122.773 120.736C124.261 120.736 125.333 121.744 125.493 123.168H120.053C120.213 121.728 121.301 120.736 122.773 120.736ZM133.315 118.416C134.867 118.416 135.811 117.648 135.843 116.208H134.771C134.755 117.008 134.179 117.52 133.299 117.52C132.435 117.52 131.859 117.008 131.843 116.208H130.803C130.819 117.648 131.763 118.416 133.315 118.416ZM129.347 128H130.755L135.939 121.824V128H137.475V119.52H136.083L130.883 125.696V119.52H129.347V128Z" fill="white"/>
<defs>
<linearGradient id="paint0_linear_221_524" x1="0" y1="63.5137" x2="78.0809" y2="16.0869" gradientUnits="userSpaceOnUse">
<stop stop-color="#F09642" stop-opacity="0.78"/>
<stop offset="1" stop-color="#F0D542" stop-opacity="0.79"/>
</linearGradient>
<clipPath id="clip0_221_524">
<rect width="55" height="55" fill="white" transform="translate(0 0.613281)"/>
</clipPath>
</defs>
</svg>
