<svg width="254" height="126" viewBox="0 0 254 126" fill="none" xmlns="http://www.w3.org/2000/svg">
<path d="M65.2405 71.6225C75.5736 69.4239 72.8385 43.5055 67.5 33.6133C57.786 15.6133 37.3016 6.53922 15.6587 17.8669C8.22931 21.7554 2.60889 31.0145 7.35399 40.0239C11.8934 48.6419 30.9629 48.7615 38.7376 54.1065C48.918 61.1054 49.3135 75.0115 65.2405 71.6225Z" fill="url(#paint0_linear_221_532)"/>
<path d="M5.744 110.8V122H7.328V112.192H13.824V122H15.392V110.8H5.744ZM24.6926 113.52L21.7646 120.304L18.8046 113.52H17.2046L20.9486 121.984L20.6766 122.576C20.2606 123.552 19.7966 123.888 19.0606 123.888C18.4846 123.888 17.9566 123.664 17.5406 123.264L16.8846 124.416C17.4126 124.928 18.2446 125.2 19.0606 125.2C20.3566 125.2 21.3326 124.64 22.0846 122.848L26.1966 113.52H24.6926ZM34.1361 113.52H26.3921V114.864H29.4961V122H31.0321V114.864H34.1361V113.52ZM42.9958 117.808C42.9958 115.2 41.2518 113.44 38.8038 113.44C36.3558 113.44 34.5478 115.248 34.5478 117.76C34.5478 120.288 36.3718 122.096 39.1078 122.096C40.5158 122.096 41.6838 121.616 42.4518 120.72L41.6038 119.728C40.9798 120.416 40.1478 120.752 39.1558 120.752C37.4758 120.752 36.2758 119.76 36.0838 118.272H42.9638C42.9798 118.128 42.9958 117.936 42.9958 117.808ZM38.8038 114.736C40.2918 114.736 41.3638 115.744 41.5238 117.168H36.0838C36.2438 115.728 37.3318 114.736 38.8038 114.736ZM55.9226 113.52V120.656H52.1946V113.52H50.6586V120.656H46.9146V113.52H45.3786V122H57.4586V113.52H55.9226ZM68.1051 117.808C68.1051 115.2 66.3611 113.44 63.9131 113.44C61.4651 113.44 59.6571 115.248 59.6571 117.76C59.6571 120.288 61.4811 122.096 64.2171 122.096C65.6251 122.096 66.7931 121.616 67.5611 120.72L66.7131 119.728C66.0891 120.416 65.2571 120.752 64.2651 120.752C62.5851 120.752 61.3851 119.76 61.1931 118.272H68.0731C68.0891 118.128 68.1051 117.936 68.1051 117.808ZM63.9131 114.736C65.4011 114.736 66.4731 115.744 66.6331 117.168H61.1931C61.3531 115.728 62.4411 114.736 63.9131 114.736ZM74.184 122.096C75.704 122.096 76.968 121.456 77.64 120.272L76.472 119.536C75.928 120.368 75.096 120.752 74.168 120.752C72.504 120.752 71.256 119.6 71.256 117.76C71.256 115.952 72.504 114.784 74.168 114.784C75.096 114.784 75.928 115.168 76.472 116L77.64 115.248C76.968 114.064 75.704 113.44 74.184 113.44C71.576 113.44 69.704 115.232 69.704 117.76C69.704 120.288 71.576 122.096 74.184 122.096ZM85.8393 113.52H78.0953V114.864H81.1993V122H82.7352V114.864H85.8393V113.52ZM93.1859 117.6C94.0339 117.264 94.5459 116.608 94.5459 115.696C94.5459 114.304 93.3459 113.52 91.3459 113.52H87.4099V122H91.4899C93.7459 122 94.8339 121.136 94.8339 119.664C94.8339 118.592 94.3059 117.888 93.1859 117.6ZM88.9139 114.704H91.2179C92.3859 114.704 93.0099 115.104 93.0099 115.92C93.0099 116.736 92.3859 117.168 91.2179 117.168H88.9139V114.704ZM91.3779 120.816H88.9139V118.272H91.4739C92.7379 118.272 93.2979 118.688 93.2979 119.568C93.2979 120.432 92.6419 120.816 91.3779 120.816ZM97.238 122H98.646L103.83 115.824V122H105.366V113.52H103.974L98.774 119.696V113.52H97.238V122ZM111.435 113.52C109.163 113.52 107.707 114.528 107.707 116.496C107.707 117.84 108.427 118.72 109.691 119.104L107.627 122H109.275L111.131 119.312H111.307H113.771V122H115.147V113.52H111.435ZM109.275 116.544C109.275 115.36 110.075 114.864 111.483 114.864H113.771V118.208H111.419C109.995 118.208 109.275 117.68 109.275 116.544ZM122.441 113.52V122H123.977V114.864H128.761V122H130.297V113.52H122.441ZM136.901 122.096C139.445 122.096 141.301 120.288 141.301 117.76C141.301 115.232 139.445 113.44 136.901 113.44C134.357 113.44 132.485 115.232 132.485 117.76C132.485 120.288 134.357 122.096 136.901 122.096ZM136.901 120.752C135.269 120.752 134.037 119.568 134.037 117.76C134.037 115.952 135.269 114.784 136.901 114.784C138.533 114.784 139.749 115.952 139.749 117.76C139.749 119.568 138.533 120.752 136.901 120.752ZM156.152 113.52L152.728 119.248L149.4 113.52H147.816V122H149.224V115.792L152.36 121.04H153.032L156.2 115.808V122H157.592V113.52H156.152ZM160.582 122H161.99L167.174 115.824V122H168.71V113.52H167.318L162.118 119.696V113.52H160.582V122ZM176.187 113.44C174.939 113.44 173.851 113.92 173.163 114.864V113.52H171.691V125.104H173.227V120.72C173.931 121.632 174.987 122.096 176.187 122.096C178.667 122.096 180.475 120.368 180.475 117.76C180.475 115.168 178.667 113.44 176.187 113.44ZM176.059 120.752C174.443 120.752 173.211 119.568 173.211 117.76C173.211 115.968 174.443 114.784 176.059 114.784C177.691 114.784 178.923 115.968 178.923 117.76C178.923 119.568 177.691 120.752 176.059 120.752ZM188.536 113.52L185.608 120.304L182.648 113.52H181.048L184.792 121.984L184.52 122.576C184.104 123.552 183.64 123.888 182.904 123.888C182.328 123.888 181.8 123.664 181.384 123.264L180.728 124.416C181.256 124.928 182.088 125.2 182.904 125.2C184.2 125.2 185.176 124.64 185.928 122.848L190.04 113.52H188.536Z" fill="white"/>
<g clip-path="url(#clip0_221_532)">
<path d="M55.3653 48.8402L55.3652 48.8403L54.025 50.1801L56.224 57.5612L56.2241 57.5615C56.3407 57.954 56.2335 58.3799 55.943 58.6698L53.9919 60.6209C53.5127 61.1007 52.7014 61.0379 52.3013 60.491L41.8465 46.2078C41.4818 45.7101 41.5901 45.0114 42.0879 44.6469L42.088 44.6469C42.5855 44.2829 43.2841 44.3908 43.6483 44.8884C43.6483 44.8885 43.6483 44.8885 43.6483 44.8885L53.3337 58.1208L53.8936 57.5611L46.8931 34.0601C44.7946 36.0379 42.5143 38.1167 40.2034 40.182L41.6222 42.1205L41.6222 42.1205C41.9497 42.568 41.8952 43.2045 41.4911 43.5883C41.0081 44.047 40.215 43.979 39.8199 43.4393L39.8199 43.4392L38.5274 41.6729C33.8457 45.8191 29.1853 49.7984 25.7891 52.6638L27.8633 58.0569C28.0223 58.4692 27.9228 58.9361 27.6109 59.248L25.2983 61.5605C24.8662 61.9927 24.1509 61.9929 23.7189 61.5604L12.1548 49.9963C11.7189 49.5604 11.7192 48.8537 12.1547 48.4176L12.1548 48.4174L14.4678 46.1045C14.7799 45.7924 15.2463 45.6937 15.6581 45.8519L15.6582 45.852L21.052 47.9267C23.9174 44.5305 27.8967 39.8697 32.0425 35.1884L13.2248 21.4144C13.2248 21.4144 13.2248 21.4144 13.2247 21.4144C12.6779 21.0143 12.6151 20.203 13.0948 19.7239M55.3653 48.8402L13.3422 19.9715M55.3653 48.8402C56.4382 47.7668 56.4382 46.0215 55.3653 44.9481L55.3651 44.9479M55.3653 48.8402L55.3651 44.9479M13.0948 19.7239L13.3422 19.9715M13.0948 19.7239L13.0947 19.724L13.3422 19.9715M13.0948 19.7239L15.046 17.7728L15.2937 18.02M13.3422 19.9715L15.2937 18.02M15.2937 18.02L15.0462 17.7725L15.046 17.7727L15.2937 18.02ZM55.3651 44.9479C54.8457 44.429 54.1537 44.1421 53.419 44.1421C53.0269 44.1421 52.6464 44.2239 52.2976 44.3796L52.1675 43.9431L53.6303 42.4799C53.6304 42.4798 53.6304 42.4798 53.6304 42.4798C54.7037 41.4065 54.7037 39.661 53.6303 38.588C52.7631 37.7206 51.4588 37.5563 50.4237 38.0899L48.7081 32.3302C49.4161 31.647 50.0959 30.981 50.7394 30.3376L50.7394 30.3375M55.3651 44.9479L50.7394 30.3375M50.7394 30.3375C52.7388 28.3378 54.3759 26.2109 55.3418 24.3415L55.3418 24.3414M50.7394 30.3375L55.3418 24.3414M55.3418 24.3414C56.1594 22.7587 56.4166 21.5073 56.337 20.5183C56.257 19.5219 55.8375 18.8232 55.3649 18.3506M55.3418 24.3414L49.3739 18.374M49.3739 18.374L49.374 18.3739C50.9569 17.5564 52.2084 17.2991 53.1974 17.3785C54.1937 17.4585 54.8924 17.8779 55.3649 18.3506M49.3739 18.374C47.5049 19.3395 45.3776 20.9766 43.3782 22.9764M49.3739 18.374L35.6255 23.2917M55.3649 18.3506L55.1174 18.598L55.3648 18.3505C55.3649 18.3506 55.3649 18.3506 55.3649 18.3506ZM35.6255 23.2917L41.3855 25.0073C42.0686 24.2992 42.7349 23.6198 43.3782 22.9764M35.6255 23.2917C36.1591 22.2568 35.9948 20.9525 35.1278 20.0851L35.1276 20.085C34.0544 19.0122 32.309 19.0116 31.2359 20.085C31.2359 20.0851 31.2359 20.0851 31.2359 20.0851L29.7727 21.5483L29.3357 21.4182C29.4915 21.0692 29.5732 20.6886 29.5732 20.2964C29.5732 19.5621 29.2864 18.8697 28.7673 18.3505C27.6944 17.2772 25.9485 17.2772 24.8756 18.3505C24.8755 18.3506 24.8755 18.3506 24.8755 18.3506L35.6255 23.2917ZM43.3782 22.9764L43.6257 23.2239M43.3782 22.9764L43.6257 23.2239M43.6257 23.2239C45.6082 21.241 47.7069 19.6291 49.5346 18.6849L41.4897 25.4035C42.2233 24.6414 42.9378 23.9118 43.6257 23.2239ZM23.5357 19.6904L23.3882 19.8379L23.6357 20.0854L23.7356 19.7499L23.5357 19.6904ZM32.2757 34.9253L32.5593 35.1329C32.4816 35.2206 32.4038 35.3083 32.3262 35.396L32.2757 34.9253ZM32.8151 21.6643L32.8152 21.6643C33.0133 21.4661 33.3507 21.4661 33.5489 21.6643C33.751 21.8664 33.751 22.1958 33.5489 22.398L33.3369 22.6099L32.2062 22.273L32.8151 21.6643ZM26.4548 19.9298L26.4549 19.9296C26.6566 19.7278 26.9863 19.7276 27.1885 19.9298C27.3905 20.1318 27.3906 20.4611 27.1887 20.6633L27.1885 20.6635L27.0997 20.7521L25.9691 20.4154L26.4548 19.9298ZM44.9574 24.5552L44.9575 24.5552C46.7875 22.7248 48.7742 21.1975 50.399 20.3582L50.3991 20.3582C51.0123 20.0413 51.7068 19.7511 52.3391 19.641C52.9783 19.5296 53.4705 19.6142 53.786 19.9298C54.1015 20.2453 54.1861 20.7374 54.0747 21.3766C53.9644 22.0089 53.6743 22.7035 53.3575 23.3168C52.5183 24.9415 50.9906 26.9278 49.1601 28.7583C40.0828 37.8356 23.7139 51.516 19.9538 54.6372L19.0786 53.7619C22.1994 50.0019 35.8794 33.6333 44.9574 24.5552ZM51.3177 40.1671L51.318 40.1668C51.5194 39.9651 51.8492 39.9649 52.0517 40.1671C52.2497 40.3652 52.2496 40.7025 52.0515 40.9006L51.4424 41.5097L51.1055 40.379L51.3177 40.1671ZM16.1546 19.8222L39.6558 26.8223C37.6779 28.9211 35.599 31.2015 33.5334 33.5124L15.5947 20.3818L16.1546 19.8222ZM14.5235 49.2069L15.5338 48.1969L19.5314 49.7344C18.6714 50.7597 17.9775 51.5924 17.4926 52.1759L14.5235 49.2069ZM23.9814 54.1844L25.5189 58.1819L24.5089 59.1919L21.5399 56.2228C22.1233 55.7382 22.9561 55.0443 23.9814 54.1844ZM53.0523 46.5273C53.2544 46.3252 53.5839 46.3252 53.786 46.5273C53.9881 46.7294 53.9881 47.0589 53.786 47.261L53.3002 47.7467L52.9634 46.6162L53.0523 46.5273Z" fill="white" stroke="white" stroke-width="0.7"/>
</g>
<defs>
<linearGradient id="paint0_linear_221_532" x1="0" y1="26.0625" x2="92.5641" y2="57.2921" gradientUnits="userSpaceOnUse">
<stop stop-color="#F09642" stop-opacity="0.78"/>
<stop offset="1" stop-color="#F0D542" stop-opacity="0.79"/>
</linearGradient>
<clipPath id="clip0_221_532">
<rect width="52" height="52" fill="white" transform="translate(4 17.6133)"/>
</clipPath>
</defs>
</svg>
