<svg width="53" height="56" viewBox="0 0 53 56" fill="none" xmlns="http://www.w3.org/2000/svg">
<path d="M31.5109 43.6033L31.8467 43.8465C32.8273 44.5566 34.1926 44.3734 34.9511 43.4296L38.8998 38.5168L37.8033 36.5224C37.4817 35.9372 37.0335 35.431 36.4912 35.0399L31.552 31.4852C31.0838 31.1474 30.5206 30.9666 29.943 30.9685L26.021 30.9837C25.5091 30.9856 25.0447 31.1931 24.707 31.5289C24.3701 31.8639 24.1599 32.3272 24.1551 32.8401C24.1475 33.7174 24.7507 34.4824 25.6061 34.6803L26.2998 34.8411C25.9164 35.3314 25.4767 35.8939 25.01 36.4916C25.0649 36.5069 25.1203 36.5211 25.1763 36.5341L25.8712 36.6952L28.0855 37.207C28.3097 39.7122 29.537 42.0175 31.5109 43.6033Z" fill="#FAA875"/>
<path d="M21.26 30.7748L19.1284 28.9647L18.0437 28.0929L16.8523 29.5888C16.6784 29.8071 16.36 29.8425 16.1424 29.6677L15.9352 29.5011C15.3133 29.0011 15.0937 28.1852 15.3201 27.4675C15.1223 27.5845 14.9429 27.7398 14.7929 27.9328C14.1581 28.7493 14.3299 29.9333 15.136 30.5813L16.7721 31.8962L18.9328 33.8112L19.5824 32.9636L21.26 30.7748Z" fill="#FAA875"/>
<path d="M36.4913 35.0395L31.5521 31.4847C31.084 31.1469 30.5207 30.9661 29.9432 30.968L26.0211 30.9833C25.5092 30.9852 25.0449 31.1926 24.7071 31.5285C24.3703 31.8634 24.16 32.3268 24.1553 32.8396C24.1477 33.7169 24.7509 34.4819 25.6063 34.6798L26.2999 34.8406C23.9726 37.8169 19.5786 43.4468 19.5786 43.541C19.5786 43.6676 24.8013 47.5554 24.8013 47.5554L25.913 48.3914C26.0931 48.206 26.2659 48.0118 26.4295 47.8082L36.6157 35.1344C36.5744 35.1024 36.5337 35.07 36.4913 35.0395Z" fill="#FAA875"/>
<path d="M36.352 29.9788C35.4871 29.2843 34.2236 29.4222 33.528 30.2862C33.8268 29.9151 33.9714 29.4707 33.9714 29.0293C33.9714 28.4422 33.7145 27.8589 33.2207 27.4622C32.3567 26.7676 31.0922 26.9055 30.3967 27.7695C30.6954 27.3984 30.8401 26.9541 30.8401 26.5126C30.8401 25.9255 30.5832 25.3432 30.0903 24.9464C29.2254 24.2509 27.9608 24.3888 27.2663 25.2528C27.9608 24.3888 27.8238 23.1243 26.9589 22.4297C26.5879 22.131 26.1435 21.9863 25.702 21.9863C25.114 21.9863 24.5317 22.2432 24.1349 22.7371L18.2371 30.0747L15.5774 33.4093L12.4668 31.3074C11.3965 32.7191 10.7478 34.4164 10.6151 36.2007L10.3401 39.9001L5.10694 46.41C4.77601 46.8216 4.83167 47.4216 5.23253 47.7654L14.4252 55.6483C14.8445 56.008 15.4783 55.9492 15.8243 55.5185L20.5714 49.612C20.6694 49.4911 20.8102 49.4112 20.9644 49.3893C22.677 49.1476 24.2337 48.2628 25.3174 46.9145L36.6592 32.803C36.957 32.4319 37.1026 31.9875 37.1026 31.546C37.1028 30.9579 36.8459 30.3756 36.352 29.9788Z" fill="#FABC91"/>
<path d="M8.38605 47.0325C7.99452 46.6955 7.94019 46.1073 8.26331 45.7038L13.3741 39.322L13.6427 35.6954C13.7219 34.6268 13.99 33.5906 14.4242 32.6301L12.4668 31.3074C11.3965 32.7191 10.7478 34.4164 10.6151 36.2007L10.3401 39.9001L5.10694 46.41C4.77601 46.8216 4.83167 47.4216 5.23253 47.7654L14.4252 55.6483C14.8445 56.0079 15.4783 55.9491 15.8243 55.5185L16.814 54.2872L8.38605 47.0325Z" fill="#FAA875"/>
<path d="M32.6651 29.9418C31.8705 29.3685 30.9322 29.0654 29.9517 29.0654L26.0136 29.0807C25.0144 29.0844 24.0738 29.4746 23.3648 30.1794C22.6563 30.8839 22.2611 31.8226 22.2519 32.8235C22.2363 34.6063 23.4391 36.1321 25.176 36.534L25.8708 36.6951L28.0852 37.2069C28.2256 38.7769 28.7601 40.2683 29.6253 41.5532L36.6516 32.8111L32.6651 29.9418Z" fill="#FAA875"/>
<path d="M37.8025 36.5226L39.1594 38.9908L35.2858 43.9699L33.2354 42.5493L32.7035 42.1212C31.0098 40.7605 30.0032 38.7206 29.9527 36.5473L29.9337 35.6815L26.299 34.8413L25.6054 34.6805C24.75 34.4826 24.1468 33.7176 24.1544 32.8403C24.1591 32.3275 24.3694 31.8641 24.7062 31.5292C25.044 31.1933 25.5083 30.9859 26.0202 30.984L29.9423 30.9688C30.5198 30.9669 31.0831 31.1476 31.5512 31.4854L36.4904 35.0402C37.0328 35.4313 37.4809 35.9374 37.8025 36.5226Z" fill="#FABC91"/>
<path d="M30.2259 0.952477C27.6738 0.0684382 25.1534 0.0663337 22.6644 0.945973C22.0657 1.15756 21.7879 1.85086 22.0632 2.42479L25.4864 9.56311C25.8757 10.3748 27.0274 10.3748 27.4168 9.56311L30.8355 2.43455C31.1123 1.85718 30.8292 1.16139 30.2259 0.952477Z" fill="url(#paint0_linear_221_197)"/>
<path d="M52.36 11.5298C51.0134 9.20047 49.1478 7.57208 46.7634 6.64459C46.1898 6.42146 45.5577 6.77719 45.4087 7.39776L43.5542 15.1161C43.3434 15.9939 44.1966 16.7372 44.9841 16.3621L51.9002 13.0669C52.4602 12.8001 52.6784 12.0804 52.36 11.5298Z" fill="url(#paint1_linear_221_197)"/>
<path d="M0.538521 11.5298C1.88513 9.20047 3.75076 7.57208 6.13523 6.64459C6.70883 6.42146 7.34087 6.77719 7.48993 7.39776L9.34434 15.1161C9.55515 15.9939 8.70201 16.7372 7.91447 16.3621L0.998358 13.0669C0.43854 12.8001 0.2202 12.0804 0.538521 11.5298Z" fill="url(#paint2_linear_221_197)"/>
<defs>
<linearGradient id="paint0_linear_221_197" x1="30.7523" y1="9.41636" x2="21.586" y2="-7.52493" gradientUnits="userSpaceOnUse">
<stop stop-color="#F09642"/>
<stop offset="1" stop-color="#F4E26E"/>
</linearGradient>
<linearGradient id="paint1_linear_221_197" x1="44.1899" y1="9.8971" x2="49.7656" y2="18.1286" gradientUnits="userSpaceOnUse">
<stop stop-color="#272671"/>
<stop offset="1" stop-color="#7BB3CB"/>
</linearGradient>
<linearGradient id="paint2_linear_221_197" x1="1.05952" y1="9.8971" x2="6.63522" y2="18.1286" gradientUnits="userSpaceOnUse">
<stop stop-color="#272671"/>
<stop offset="1" stop-color="#7BB3CB"/>
</linearGradient>
</defs>
</svg>
