<svg width="61" height="61" viewBox="0 0 61 61" fill="none" xmlns="http://www.w3.org/2000/svg">
<path d="M54.1122 20.1674H37.3865C33.5898 20.1674 30.4995 17.0771 30.4995 13.2804C30.4995 9.48365 33.5898 6.39335 37.3865 6.39335C37.7634 6.39335 38.1382 6.42393 38.5082 6.48488C39.8797 2.91256 43.339 0.490234 47.2252 0.490234C51.1537 0.490234 54.6868 3.00016 56.0122 6.66112C58.9343 7.49749 60.9994 10.1921 60.9994 13.2806C60.9992 17.0771 57.9089 20.1674 54.1122 20.1674Z" fill="url(#paint0_linear_221_175)"/>
<path d="M59.6056 32.6361C56.1651 30.9152 52.3122 30.0062 48.4652 30.0062H36.0596L24.9094 22.1353H15.3354L23.2063 30.0062H15.1327L6.27792 22.1353H0.454346L4.3525 30.9074L2.95249 31.1407V34.4475L3.58122 34.8971C8.11284 38.1341 13.4523 39.845 19.0211 39.845H21.2387L14.0397 47.0438L15.0453 47.7079C15.3591 47.9155 15.6552 48.1546 15.9249 48.4182L16.212 48.6996H21.9588L34.503 39.8448H48.2181C51.6115 39.8448 54.9134 39.1669 58.0312 37.8308L59.4715 37.2138C60.4002 36.8144 61.0004 35.9043 61.0004 34.8938C61.0006 33.9318 60.4663 33.0669 59.6056 32.6361ZM20.0854 24.103H24.2856L32.6485 30.0062H25.9887L20.0854 24.103ZM3.48266 24.103H5.53019L12.1713 30.0062H10.8166C10.1141 30.0062 9.40665 30.0652 8.71408 30.1803L6.35767 30.5729L3.48266 24.103ZM58.6965 35.4047L57.2562 36.0217C54.3832 37.2535 51.3442 37.8773 48.2183 37.8773H37.2906L38.9396 36.7134L37.8043 35.1058L21.3344 46.732H17.1339L27.2608 36.6051L25.8697 35.214L23.2065 37.8773H19.0209C13.9451 37.8773 9.07504 36.3415 4.92006 33.4341V32.8074L9.03764 32.1206C9.624 32.0233 10.2232 31.9739 10.8166 31.9739H48.4652C52.0091 31.9739 55.557 32.8111 58.725 34.3952C58.9149 34.4907 59.0328 34.6816 59.0328 34.894C59.0328 35.1163 58.9 35.3171 58.6965 35.4047Z" fill="url(#paint1_linear_221_175)"/>
<path d="M20.0854 24.103H24.2856L32.6485 30.0062H25.9887L20.0854 24.103Z" fill="url(#paint2_linear_221_175)"/>
<path d="M58.6965 35.4047L57.2562 36.0217C54.3832 37.2535 51.3442 37.8773 48.2183 37.8773H37.2906L38.9396 36.7134L37.8043 35.1058L21.3344 46.732H17.1339L27.2608 36.6051L25.8697 35.214L23.2065 37.8773H19.0209C13.9451 37.8773 9.07504 36.3415 4.92006 33.4341V32.8074L9.03764 32.1206C9.624 32.0233 10.2232 31.9739 10.8166 31.9739H48.4652C52.0091 31.9739 55.557 32.8111 58.725 34.3952C58.9149 34.4907 59.0328 34.6816 59.0328 34.894C59.0328 35.1163 58.9 35.3171 58.6965 35.4047Z" fill="url(#paint3_linear_221_175)"/>
<path d="M3.48266 24.103H5.53019L12.1713 30.0062H10.8166C10.1141 30.0062 9.40665 30.0652 8.71408 30.1803L6.35767 30.5729L3.48266 24.103Z" fill="url(#paint4_linear_221_175)"/>
<path d="M17.7096 60.5057H5.90312C2.64753 60.5057 0 57.8582 0 54.6026C0 51.7121 2.12811 49.2641 4.9401 48.8007C6.32337 46.3313 8.95912 44.7639 11.8064 44.7639C15.5472 44.7639 18.7507 47.4096 19.5042 51.0154C21.3736 51.7445 22.629 53.5389 22.629 55.5865C22.629 58.2989 20.4222 60.5057 17.7096 60.5057Z" fill="url(#paint5_linear_221_175)"/>
<defs>
<linearGradient id="paint0_linear_221_175" x1="60.3552" y1="18.6632" x2="47.7853" y2="-20.9479" gradientUnits="userSpaceOnUse">
<stop stop-color="#F09642"/>
<stop offset="1" stop-color="#F4E26E"/>
</linearGradient>
<linearGradient id="paint1_linear_221_175" x1="-1.10964" y1="23.8444" x2="54.6752" y2="82.7027" gradientUnits="userSpaceOnUse">
<stop stop-color="#272671"/>
<stop offset="1" stop-color="#7BB3CB"/>
</linearGradient>
<linearGradient id="paint2_linear_221_175" x1="-1.10964" y1="23.8444" x2="54.6752" y2="82.7027" gradientUnits="userSpaceOnUse">
<stop stop-color="#272671"/>
<stop offset="1" stop-color="#7BB3CB"/>
</linearGradient>
<linearGradient id="paint3_linear_221_175" x1="-1.10964" y1="23.8444" x2="54.6752" y2="82.7027" gradientUnits="userSpaceOnUse">
<stop stop-color="#272671"/>
<stop offset="1" stop-color="#7BB3CB"/>
</linearGradient>
<linearGradient id="paint4_linear_221_175" x1="-1.10964" y1="23.8444" x2="54.6752" y2="82.7027" gradientUnits="userSpaceOnUse">
<stop stop-color="#272671"/>
<stop offset="1" stop-color="#7BB3CB"/>
</linearGradient>
<linearGradient id="paint5_linear_221_175" x1="22.1511" y1="59.3024" x2="11.467" y2="28.078" gradientUnits="userSpaceOnUse">
<stop stop-color="#F09642"/>
<stop offset="1" stop-color="#F4E26E"/>
</linearGradient>
</defs>
</svg>
