<svg width="45" height="46" viewBox="0 0 45 46" fill="none" xmlns="http://www.w3.org/2000/svg">
<path d="M44.3653 31.8402L44.3652 31.8403L43.025 33.1801L45.224 40.5612L45.2241 40.5615C45.3407 40.954 45.2335 41.3799 44.943 41.6698L42.9919 43.6209C42.5127 44.1007 41.7014 44.0379 41.3013 43.491L30.8465 29.2078C30.4818 28.7101 30.5901 28.0114 31.0879 27.6469L31.088 27.6469C31.5855 27.2829 32.2841 27.3908 32.6483 27.8884C32.6483 27.8885 32.6483 27.8885 32.6483 27.8885L42.3337 41.1208L42.8936 40.5611L35.8931 17.0601C33.7946 19.0379 31.5143 21.1167 29.2034 23.182L30.6222 25.1205L30.6222 25.1205C30.9497 25.568 30.8952 26.2045 30.4911 26.5883C30.0081 27.047 29.215 26.979 28.8199 26.4393L28.8199 26.4392L27.5274 24.6729C22.8457 28.8191 18.1853 32.7984 14.7891 35.6638L16.8633 41.0569C17.0223 41.4692 16.9228 41.9361 16.6109 42.248L14.2983 44.5605C13.8662 44.9927 13.1509 44.9929 12.7189 44.5604L1.15484 32.9963C0.718934 32.5604 0.71917 31.8537 1.15468 31.4176L1.15484 31.4174L3.46777 29.1045C3.77989 28.7924 4.24627 28.6937 4.65807 28.8519L4.65817 28.852L10.052 30.9267C12.9174 27.5305 16.8967 22.8697 21.0425 18.1884L2.22482 4.41444C2.22478 4.41441 2.22475 4.41439 2.22472 4.41436C1.67788 4.0143 1.6151 3.20303 2.09484 2.72387M44.3653 31.8402L2.34218 2.97151M44.3653 31.8402C45.4382 30.7668 45.4382 29.0215 44.3653 27.9481L44.3651 27.9479M44.3653 31.8402L44.3651 27.9479M2.09484 2.72387L2.34218 2.97151M2.09484 2.72387L2.09469 2.72402L2.34218 2.97151M2.09484 2.72387L4.04596 0.772754L4.29369 1.02M2.34218 2.97151L4.29369 1.02M4.29369 1.02L4.0462 0.772508L4.04605 0.772661L4.29369 1.02ZM44.3651 27.9479C43.8457 27.429 43.1537 27.1421 42.419 27.1421C42.0269 27.1421 41.6464 27.2239 41.2976 27.3796L41.1675 26.9431L42.6303 25.4799C42.6304 25.4798 42.6304 25.4798 42.6304 25.4798C43.7037 24.4065 43.7037 22.661 42.6303 21.588C41.7631 20.7206 40.4588 20.5563 39.4237 21.0899L37.7081 15.3302C38.4161 14.647 39.0959 13.981 39.7394 13.3376L39.7394 13.3375M44.3651 27.9479L39.7394 13.3375M39.7394 13.3375C41.7388 11.3378 43.3759 9.21087 44.3418 7.34147L44.3418 7.34143M39.7394 13.3375L44.3418 7.34143M44.3418 7.34143C45.1594 5.7587 45.4166 4.50725 45.337 3.51827C45.257 2.52194 44.8375 1.82323 44.3649 1.3506M44.3418 7.34143L38.3739 1.37396M38.3739 1.37396L38.374 1.37394C39.9569 0.556371 41.2084 0.29913 42.1974 0.37853C43.1937 0.458524 43.8924 0.877891 44.3649 1.3506M38.3739 1.37396C36.5049 2.3395 34.3776 3.9766 32.3782 5.9764M38.3739 1.37396L24.6255 6.29167M44.3649 1.3506L44.1174 1.59803L44.3648 1.35054C44.3649 1.35056 44.3649 1.35058 44.3649 1.3506ZM24.6255 6.29167L30.3855 8.00728C31.0686 7.29919 31.7349 6.61975 32.3782 5.9764M24.6255 6.29167C25.1591 5.25679 24.9948 3.95252 24.1278 3.0851L24.1276 3.08499C23.0544 2.01221 21.309 2.01157 20.2359 3.08504C20.2359 3.08506 20.2359 3.08508 20.2359 3.08509L18.7727 4.54828L18.3357 4.41816C18.4915 4.0692 18.5732 3.68855 18.5732 3.29643C18.5732 2.56211 18.2864 1.86966 17.7673 1.35054C16.6944 0.277181 14.9485 0.277181 13.8756 1.35054C13.8755 1.35056 13.8755 1.35058 13.8755 1.35059L24.6255 6.29167ZM32.3782 5.9764L32.6257 6.22389M32.3782 5.9764L32.6257 6.22389M32.6257 6.22389C34.6082 4.24104 36.7069 2.62913 38.5346 1.68491L30.4897 8.40352C31.2233 7.6414 31.9378 6.91182 32.6257 6.22389ZM12.5357 2.69038L12.3882 2.83788L12.6357 3.08537L12.7356 2.74993L12.5357 2.69038ZM21.2757 17.9253L21.5593 18.1329C21.4816 18.2206 21.4038 18.3083 21.3262 18.396L21.2757 17.9253ZM21.8151 4.66432L21.8152 4.66428C22.0133 4.46612 22.3507 4.46612 22.5489 4.66428C22.751 4.8664 22.751 5.19585 22.5489 5.39797L22.3369 5.6099L21.2062 5.27303L21.8151 4.66432ZM15.4548 2.92978L15.4549 2.92963C15.6566 2.72778 15.9863 2.72757 16.1885 2.92978C16.3905 3.13183 16.3906 3.46112 16.1887 3.66326L16.1885 3.66347L16.0997 3.7521L14.9691 3.41544L15.4548 2.92978ZM33.9574 7.55524L33.9575 7.55521C35.7875 5.72478 37.7742 4.19753 39.399 3.35825L39.3991 3.35821C40.0123 3.04131 40.7068 2.75114 41.3391 2.64098C41.9783 2.52961 42.4705 2.61425 42.786 2.92978C43.1015 3.24528 43.1861 3.73742 43.0747 4.37662C42.9644 5.00893 42.6743 5.70354 42.3575 6.31679C41.5183 7.94154 39.9906 9.92783 38.1601 11.7583C29.0828 20.8356 12.7139 34.516 8.95384 37.6372L8.07856 36.7619C11.1994 33.0019 24.8794 16.6333 33.9574 7.55524ZM40.3177 23.1671L40.318 23.1668C40.5194 22.9651 40.8492 22.9649 41.0517 23.1671C41.2497 23.3652 41.2496 23.7025 41.0515 23.9006L40.4424 24.5097L40.1055 23.379L40.3177 23.1671ZM5.15456 2.82216L28.6558 9.82233C26.6779 11.9211 24.599 14.2015 22.5334 16.5124L4.59472 3.38179L5.15456 2.82216ZM3.52353 32.2069L4.53384 31.1969L8.5314 32.7344C7.67144 33.7597 6.97748 34.5924 6.49256 35.1759L3.52353 32.2069ZM12.9814 37.1844L14.5189 41.1819L13.5089 42.1919L10.5399 39.2228C11.1233 38.7382 11.9561 38.0443 12.9814 37.1844ZM42.0523 29.5273C42.2544 29.3252 42.5839 29.3252 42.786 29.5273C42.9881 29.7294 42.9881 30.0589 42.786 30.261L42.3002 30.7467L41.9634 29.6162L42.0523 29.5273Z" fill="white" stroke="white" stroke-width="0.7"/>
</svg>
