<svg width="722" height="52" viewBox="0 0 722 52" fill="none" xmlns="http://www.w3.org/2000/svg">
<path d="M38.74 0.998044H40.74V-1.00196H38.74V0.998044ZM38.74 42.998V44.998H40.74V42.998H38.74ZM29.02 42.998H27.02V44.998H29.02V42.998ZM29.02 25.778H31.02V23.778H29.02V25.778ZM9.94 25.778V23.778H7.94V25.778H9.94ZM9.94 42.998V44.998H11.94V42.998H9.94ZM0.22 42.998H-1.78V44.998H0.22V42.998ZM0.22 0.998044V-1.00196H-1.78V0.998044H0.22ZM9.94 0.998044H11.94V-1.00196H9.94V0.998044ZM9.94 17.558H7.94V19.558H9.94V17.558ZM29.02 17.558V19.558H31.02V17.558H29.02ZM29.02 0.998044V-1.00196H27.02V0.998044H29.02ZM36.74 0.998044V42.998H40.74V0.998044H36.74ZM38.74 40.998H29.02V44.998H38.74V40.998ZM31.02 42.998V25.778H27.02V42.998H31.02ZM29.02 23.778H9.94V27.778H29.02V23.778ZM7.94 25.778V42.998H11.94V25.778H7.94ZM9.94 40.998H0.22V44.998H9.94V40.998ZM2.22 42.998V0.998044H-1.78V42.998H2.22ZM0.22 2.99804H9.94V-1.00196H0.22V2.99804ZM7.94 0.998044V17.558H11.94V0.998044H7.94ZM9.94 19.558H29.02V15.558H9.94V19.558ZM31.02 17.558V0.998044H27.02V17.558H31.02ZM29.02 2.99804H38.74V-1.00196H29.02V2.99804ZM81.783 35.198H83.783V33.198H81.783V35.198ZM81.783 42.998V44.998H83.783V42.998H81.783ZM49.263 42.998H47.263V44.998H49.263V42.998ZM49.263 0.998044V-1.00196H47.263V0.998044H49.263ZM81.003 0.998044H83.003V-1.00196H81.003V0.998044ZM81.003 8.79804V10.798H83.003V8.79804H81.003ZM58.923 8.79804V6.79804H56.923V8.79804H58.923ZM58.923 17.918H56.923V19.918H58.923V17.918ZM78.423 17.918H80.423V15.918H78.423V17.918ZM78.423 25.478V27.478H80.423V25.478H78.423ZM58.923 25.478V23.478H56.923V25.478H58.923ZM58.923 35.198H56.923V37.198H58.923V35.198ZM79.783 35.198V42.998H83.783V35.198H79.783ZM81.783 40.998H49.263V44.998H81.783V40.998ZM51.263 42.998V0.998044H47.263V42.998H51.263ZM49.263 2.99804H81.003V-1.00196H49.263V2.99804ZM79.003 0.998044V8.79804H83.003V0.998044H79.003ZM81.003 6.79804H58.923V10.798H81.003V6.79804ZM56.923 8.79804V17.918H60.923V8.79804H56.923ZM58.923 19.918H78.423V15.918H58.923V19.918ZM76.423 17.918V25.478H80.423V17.918H76.423ZM78.423 23.478H58.923V27.478H78.423V23.478ZM56.923 25.478V35.198H60.923V25.478H56.923ZM58.923 37.198H81.783V33.198H58.923V37.198ZM135.726 21.098L134.847 19.3016L130.241 21.5558L135.157 23.0153L135.726 21.098ZM141.606 24.818L140.037 26.0585L141.606 24.818ZM139.386 39.878L138.204 38.2645L138.194 38.2726L139.386 39.878ZM106.626 42.998H104.626V44.998H106.626V42.998ZM106.626 0.998044V-1.00196H104.626V0.998044H106.626ZM137.586 3.81804L138.723 2.17279L137.586 3.81804ZM140.106 17.378L141.77 18.4874L141.777 18.4778L141.783 18.468L140.106 17.378ZM116.286 18.398H114.286V20.398H116.286V18.398ZM130.146 17.138L131.374 18.7168L131.392 18.7028L131.41 18.6885L130.146 17.138ZM130.086 9.51805L128.823 11.0685L128.837 11.0797L128.851 11.0907L130.086 9.51805ZM116.286 8.19804V6.19804H114.286V8.19804H116.286ZM116.286 25.178V23.178H114.286V25.178H116.286ZM116.286 35.798H114.286V37.798H116.286V35.798ZM135.157 23.0153C137.41 23.684 138.984 24.7266 140.037 26.0585L143.175 23.5776C141.508 21.4695 139.163 20.0321 136.295 19.1808L135.157 23.0153ZM140.037 26.0585C141.077 27.3738 141.646 29.0378 141.646 31.178H145.646C145.646 28.2783 144.855 25.7023 143.175 23.5776L140.037 26.0585ZM141.646 31.178C141.646 34.3029 140.497 36.5856 138.205 38.2645L140.568 41.4916C143.956 39.0105 145.646 35.4932 145.646 31.178H141.646ZM138.194 38.2726C135.873 39.9965 132.341 40.998 127.326 40.998V44.998C132.791 44.998 137.3 43.9196 140.579 41.4835L138.194 38.2726ZM127.326 40.998H106.626V44.998H127.326V40.998ZM108.626 42.998V0.998044H104.626V42.998H108.626ZM106.626 2.99804H126.186V-1.00196H106.626V2.99804ZM126.186 2.99804C130.843 2.99804 134.188 3.90024 136.449 5.4633L138.723 2.17279C135.545 -0.0241547 131.289 -1.00196 126.186 -1.00196V2.99804ZM136.449 5.4633C138.596 6.94718 139.666 8.99399 139.666 11.858H143.666C143.666 7.7621 142.017 4.44892 138.723 2.17279L136.449 5.4633ZM139.666 11.858C139.666 13.5874 139.24 15.0416 138.429 16.2881L141.783 18.468C143.053 16.5145 143.666 14.2887 143.666 11.858H139.666ZM138.442 16.2686C137.621 17.501 136.447 18.5186 134.847 19.3016L136.605 22.8945C138.765 21.8375 140.512 20.3751 141.77 18.4874L138.442 16.2686ZM116.286 20.398H125.346V16.398H116.286V20.398ZM125.346 20.398C127.681 20.398 129.797 19.9437 131.374 18.7168L128.918 15.5593C128.336 16.0124 127.252 16.398 125.346 16.398V20.398ZM131.41 18.6885C133.052 17.3499 133.766 15.4424 133.766 13.298H129.766C129.766 14.5137 129.4 15.1662 128.883 15.5876L131.41 18.6885ZM133.766 13.298C133.766 11.1492 133.001 9.26499 131.322 7.94541L128.851 11.0907C129.411 11.5311 129.766 12.1669 129.766 13.298H133.766ZM131.35 7.96758C129.774 6.6837 127.668 6.19804 125.346 6.19804V10.198C127.184 10.198 128.239 10.5924 128.823 11.0685L131.35 7.96758ZM125.346 6.19804H116.286V10.198H125.346V6.19804ZM114.286 8.19804V18.398H118.286V8.19804H114.286ZM126.966 37.798C129.455 37.798 131.691 37.3159 133.336 36.0178C135.07 34.6486 135.806 32.6487 135.806 30.398H131.806C131.806 31.7474 131.403 32.4474 130.857 32.8783C130.221 33.3802 129.037 33.798 126.966 33.798V37.798ZM135.806 30.398C135.806 28.183 135.053 26.2233 133.31 24.8931C131.669 23.641 129.444 23.178 126.966 23.178V27.178C129.048 27.178 130.244 27.5851 130.883 28.0729C131.42 28.4828 131.806 29.1331 131.806 30.398H135.806ZM126.966 23.178H116.286V27.178H126.966V23.178ZM114.286 25.178V35.798H118.286V25.178H114.286ZM116.286 37.798H126.966V33.798H116.286V37.798ZM183.433 18.218L182.148 19.7508L182.154 19.7554L182.16 19.76L183.433 18.218ZM183.013 39.278L184.288 40.8195L184.29 40.8178L183.013 39.278ZM151.333 42.998H149.333V44.998H151.333V42.998ZM151.333 0.998044V-1.00196H149.333V0.998044H151.333ZM160.993 0.998044H162.993V-1.00196H160.993V0.998044ZM160.993 14.798H158.993V16.798H160.993V14.798ZM175.633 33.938L174.328 32.4225L174.318 32.4316L174.307 32.4409L175.633 33.938ZM160.993 21.998V19.998H158.993V21.998H160.993ZM160.993 35.798H158.993V37.798H160.993V35.798ZM192.913 0.998044V-1.00196H190.913V0.998044H192.913ZM202.573 0.998044H204.573V-1.00196H202.573V0.998044ZM202.573 42.998V44.998H204.573V42.998H202.573ZM192.913 42.998H190.913V44.998H192.913V42.998ZM171.673 16.798C176.527 16.798 179.919 17.8816 182.148 19.7508L184.718 16.6853C181.508 13.9945 177.06 12.798 171.673 12.798V16.798ZM182.16 19.76C184.347 21.5669 185.573 24.3111 185.573 28.358H189.573C189.573 23.4449 188.04 19.4292 184.707 16.6761L182.16 19.76ZM185.573 28.358C185.573 32.6576 184.224 35.6767 181.737 37.7383L184.29 40.8178C187.883 37.8394 189.573 33.5785 189.573 28.358H185.573ZM181.739 37.7366C179.219 39.8196 175.495 40.998 170.293 40.998V44.998C176.051 44.998 180.807 43.6965 184.288 40.8195L181.739 37.7366ZM170.293 40.998H151.333V44.998H170.293V40.998ZM153.333 42.998V0.998044H149.333V42.998H153.333ZM151.333 2.99804H160.993V-1.00196H151.333V2.99804ZM158.993 0.998044V14.798H162.993V0.998044H158.993ZM160.993 16.798H171.673V12.798H160.993V16.798ZM169.753 37.798C172.59 37.798 175.083 37.0973 176.959 35.4352L174.307 32.4409C173.384 33.2588 171.956 33.798 169.753 33.798V37.798ZM176.938 35.4536C178.923 33.7442 179.793 31.3275 179.793 28.538H175.793C175.793 30.4686 175.223 31.6519 174.328 32.4225L176.938 35.4536ZM179.793 28.538C179.793 25.928 178.971 23.6479 177.045 22.0815C175.199 20.5794 172.653 19.998 169.753 19.998V23.998C172.214 23.998 173.688 24.5067 174.521 25.1846C175.276 25.7982 175.793 26.788 175.793 28.538H179.793ZM169.753 19.998H160.993V23.998H169.753V19.998ZM158.993 21.998V35.798H162.993V21.998H158.993ZM160.993 37.798H169.753V33.798H160.993V37.798ZM192.913 2.99804H202.573V-1.00196H192.913V2.99804ZM200.573 0.998044V42.998H204.573V0.998044H200.573ZM202.573 40.998H192.913V44.998H202.573V40.998ZM194.913 42.998V0.998044H190.913V42.998H194.913ZM220.592 0.998044L222.243 -0.131044L221.648 -1.00196H220.592V0.998044ZM229.292 13.718L227.642 14.8471L229.292 17.2607L230.943 14.8471L229.292 13.718ZM237.993 0.998044V-1.00196H236.937L236.342 -0.131044L237.993 0.998044ZM249.393 0.998044L251.034 2.14003L253.22 -1.00196H249.393V0.998044ZM235.413 21.098L233.771 19.9561L232.979 21.0938L233.767 22.2344L235.413 21.098ZM250.533 42.998V44.998H254.344L252.178 41.8617L250.533 42.998ZM239.072 42.998L237.436 44.1478L238.033 44.998H239.072V42.998ZM229.292 29.078L230.929 27.9283L229.282 25.5847L227.649 27.9378L229.292 29.078ZM219.633 42.998V44.998H220.679L221.276 44.1383L219.633 42.998ZM208.413 42.998L206.773 41.853L204.576 44.998H208.413V42.998ZM223.413 21.518L225.052 22.6631L225.844 21.5297L225.063 20.3887L223.413 21.518ZM209.372 0.998044V-1.00196H205.581L207.722 2.12741L209.372 0.998044ZM218.942 2.12713L227.642 14.8471L230.943 12.589L222.243 -0.131044L218.942 2.12713ZM230.943 14.8471L239.643 2.12713L236.342 -0.131044L227.642 12.589L230.943 14.8471ZM237.993 2.99804H249.393V-1.00196H237.993V2.99804ZM247.751 -0.143941L233.771 19.9561L237.054 22.24L251.034 2.14003L247.751 -0.143941ZM233.767 22.2344L248.887 44.1344L252.178 41.8617L237.058 19.9617L233.767 22.2344ZM250.533 40.998H239.072V44.998H250.533V40.998ZM240.709 41.8483L230.929 27.9283L227.656 30.2278L237.436 44.1478L240.709 41.8483ZM227.649 27.9378L217.989 41.8578L221.276 44.1383L230.936 30.2183L227.649 27.9378ZM219.633 40.998H208.413V44.998H219.633V40.998ZM210.052 44.1431L225.052 22.6631L221.773 20.373L206.773 41.853L210.052 44.1431ZM225.063 20.3887L211.023 -0.131324L207.722 2.12741L221.762 22.6474L225.063 20.3887ZM209.372 2.99804H220.592V-1.00196H209.372V2.99804ZM263.03 40.898L262.079 42.6577L262.088 42.6622L263.03 40.898ZM254.81 33.158L253.088 34.1748L253.095 34.1871L253.102 34.1993L254.81 33.158ZM254.81 10.898L253.097 9.86601L253.093 9.87214L254.81 10.898ZM263.03 3.09805L262.088 1.33388L262.079 1.3384L263.03 3.09805ZM294.83 10.898L293.117 11.9301L293.122 11.9393L294.83 10.898ZM294.83 33.158L296.537 34.1993L296.543 34.1901L294.83 33.158ZM286.61 40.898L287.56 42.6577L286.61 40.898ZM281.57 33.758L282.547 35.5031L282.56 35.4957L282.573 35.4881L281.57 33.758ZM286.25 28.958L284.511 27.9694L284.504 27.9824L284.497 27.9955L286.25 28.958ZM286.25 15.038L284.497 16.0006L284.504 16.0137L284.511 16.0267L286.25 15.038ZM281.57 10.298L280.566 12.0281L280.579 12.0357L280.593 12.0431L281.57 10.298ZM268.13 10.298L269.107 12.0431L269.12 12.0357L269.133 12.0281L268.13 10.298ZM263.39 15.038L261.651 14.0494L261.644 14.0624L261.637 14.0755L263.39 15.038ZM263.39 28.958L261.637 29.9206L261.644 29.9337L261.651 29.9467L263.39 28.958ZM268.13 33.758L267.126 35.4881L267.139 35.4957L267.153 35.5031L268.13 33.758ZM274.85 41.718C270.787 41.718 267.176 40.845 263.972 39.1339L262.088 42.6622C265.924 44.7111 270.192 45.718 274.85 45.718V41.718ZM263.98 39.1384C260.802 37.4215 258.328 35.0854 256.517 32.1168L253.102 34.1993C255.292 37.7907 258.297 40.6146 262.079 42.6577L263.98 39.1384ZM256.532 32.1413C254.766 29.1505 253.87 25.7859 253.87 21.998H249.87C249.87 26.4502 250.933 30.5256 253.088 34.1748L256.532 32.1413ZM253.87 21.998C253.87 18.21 254.766 14.8696 256.527 11.924L253.093 9.87214C250.933 13.4865 249.87 17.5461 249.87 21.998H253.87ZM256.523 11.9301C258.335 8.92296 260.808 6.57135 263.98 4.85769L262.079 1.3384C258.291 3.38474 255.285 6.23313 253.097 9.86602L256.523 11.9301ZM263.972 4.8622C267.176 3.15106 270.787 2.27805 274.85 2.27805V-1.72195C270.192 -1.72195 265.924 -0.714972 262.088 1.33389L263.972 4.8622ZM274.85 2.27805C278.913 2.27805 282.5 3.15114 285.659 4.85769L287.56 1.3384C283.759 -0.715046 279.507 -1.72195 274.85 -1.72195V2.27805ZM285.659 4.85769C288.831 6.57135 291.305 8.92296 293.117 11.9301L296.543 9.86602C294.355 6.23313 291.348 3.38474 287.56 1.3384L285.659 4.85769ZM293.122 11.9393C294.917 14.8828 295.83 18.2177 295.83 21.998H299.83C299.83 17.5384 298.743 13.4733 296.537 9.85683L293.122 11.9393ZM295.83 21.998C295.83 25.7782 294.917 29.1374 293.117 32.126L296.543 34.1901C298.743 30.5387 299.83 26.4579 299.83 21.998H295.83ZM293.122 32.1168C291.312 35.0854 288.837 37.4215 285.659 39.1384L287.56 42.6577C291.342 40.6146 294.348 37.7907 296.537 34.1993L293.122 32.1168ZM285.659 39.1384C282.5 40.845 278.913 41.718 274.85 41.718V45.718C279.507 45.718 283.759 44.7111 287.56 42.6577L285.659 39.1384ZM274.85 37.438C277.643 37.438 280.224 36.8038 282.547 35.5031L280.593 32.013C278.915 32.9523 277.017 33.438 274.85 33.438V37.438ZM282.573 35.4881C284.891 34.1441 286.709 32.2777 288.003 29.9206L284.497 27.9955C283.551 29.7184 282.249 31.052 280.566 32.028L282.573 35.4881ZM287.988 29.9467C289.338 27.5737 289.99 24.9064 289.99 21.998H285.99C285.99 24.2897 285.482 26.2624 284.511 27.9694L287.988 29.9467ZM289.99 21.998C289.99 19.0897 289.338 16.4224 287.988 14.0494L284.511 16.0267C285.482 17.7337 285.99 19.7064 285.99 21.998H289.99ZM288.003 14.0755C286.706 11.7125 284.879 9.85899 282.547 8.55303L280.593 12.0431C282.261 12.9771 283.554 14.2836 284.497 16.0006L288.003 14.0755ZM282.573 8.56798C280.246 7.21834 277.656 6.55805 274.85 6.55805V10.558C277.004 10.558 278.893 11.0578 280.566 12.0281L282.573 8.56798ZM274.85 6.55805C272.044 6.55805 269.453 7.21834 267.126 8.56798L269.133 12.0281C270.806 11.0578 272.696 10.558 274.85 10.558V6.55805ZM267.153 8.55303C264.827 9.85549 262.987 11.7006 261.651 14.0494L265.128 16.0266C266.113 14.2955 267.433 12.9806 269.107 12.0431L267.153 8.55303ZM261.637 14.0755C260.336 16.4438 259.71 19.1017 259.71 21.998H263.71C263.71 19.6944 264.203 17.7123 265.143 16.0006L261.637 14.0755ZM259.71 21.998C259.71 24.8944 260.336 27.5523 261.637 29.9206L265.143 27.9955C264.203 26.2838 263.71 24.3017 263.71 21.998H259.71ZM261.651 29.9467C262.984 32.2897 264.815 34.1476 267.126 35.4881L269.133 32.028C267.444 31.0485 266.116 29.7064 265.128 27.9694L261.651 29.9467ZM267.153 35.5031C269.475 36.8038 272.057 37.438 274.85 37.438V33.438C272.683 33.438 270.784 32.9523 269.107 32.013L267.153 35.5031ZM347.466 35.078H349.466V33.078H347.466V35.078ZM347.466 51.698V53.698H349.466V51.698H347.466ZM338.466 51.698H336.466V53.698H338.466V51.698ZM338.466 42.998H340.466V40.998H338.466V42.998ZM308.826 42.998V40.998H306.826V42.998H308.826ZM308.826 51.698V53.698H310.826V51.698H308.826ZM299.826 51.698L297.826 51.6908L297.819 53.698H299.826V51.698ZM299.886 35.078V33.078H297.893L297.886 35.0708L299.886 35.078ZM301.566 35.078V37.078H301.598L301.629 37.077L301.566 35.078ZM306.906 29.558L304.984 29.003L306.906 29.558ZM308.826 14.138L306.827 14.065L306.827 14.0662L308.826 14.138ZM309.306 0.998044V-1.00196H307.378L307.307 0.925034L309.306 0.998044ZM341.586 0.998044H343.586V-1.00196H341.586V0.998044ZM341.586 35.078H339.586V37.078H341.586V35.078ZM317.406 15.038L319.404 15.118L319.405 15.1074L319.405 15.0968L317.406 15.038ZM316.146 27.638L318.11 28.0123L318.111 28.008L316.146 27.638ZM313.206 35.078L311.663 33.8053L308.963 37.078H313.206V35.078ZM331.986 35.078V37.078H333.986V35.078H331.986ZM331.986 8.91805H333.986V6.91805H331.986V8.91805ZM317.586 8.91805V6.91805H315.644L315.587 8.85925L317.586 8.91805ZM345.466 35.078V51.698H349.466V35.078H345.466ZM347.466 49.698H338.466V53.698H347.466V49.698ZM340.466 51.698V42.998H336.466V51.698H340.466ZM338.466 40.998H308.826V44.998H338.466V40.998ZM306.826 42.998V51.698H310.826V42.998H306.826ZM308.826 49.698H299.826V53.698H308.826V49.698ZM301.826 51.7053L301.886 35.0853L297.886 35.0708L297.826 51.6908L301.826 51.7053ZM299.886 37.078H301.566V33.078H299.886V37.078ZM301.629 37.077C303.418 37.0203 304.983 36.3159 306.228 35.0286C307.426 33.7902 308.256 32.0919 308.827 30.1131L304.984 29.003C304.516 30.6242 303.935 31.6459 303.353 32.2475C302.819 32.8002 302.234 33.0558 301.502 33.0791L301.629 37.077ZM308.827 30.1131C309.935 26.2789 310.582 20.9472 310.824 14.2099L306.827 14.0662C306.589 20.6888 305.957 25.6372 304.984 29.003L308.827 30.1131ZM310.824 14.2111L311.304 1.07105L307.307 0.925034L306.827 14.065L310.824 14.2111ZM309.306 2.99804H341.586V-1.00196H309.306V2.99804ZM339.586 0.998044V35.078H343.586V0.998044H339.586ZM341.586 37.078H347.466V33.078H341.586V37.078ZM315.407 14.9581C315.21 19.8997 314.796 23.9957 314.18 27.2681L318.111 28.008C318.775 24.4804 319.202 20.1764 319.404 15.118L315.407 14.9581ZM314.181 27.2638C313.568 30.4837 312.673 32.5813 311.663 33.8053L314.749 36.3508C316.379 34.3748 317.444 31.5124 318.11 28.0123L314.181 27.2638ZM313.206 37.078H331.986V33.078H313.206V37.078ZM333.986 35.078V8.91805H329.986V35.078H333.986ZM331.986 6.91805H317.586V10.918H331.986V6.91805ZM315.587 8.85925L315.407 14.9792L319.405 15.0968L319.585 8.97684L315.587 8.85925ZM387.549 0.998044H389.549V-1.00196H387.549V0.998044ZM387.549 42.998V44.998H389.549V42.998H387.549ZM377.949 42.998H375.949V44.998H377.949V42.998ZM377.949 31.838H379.949V29.838H377.949V31.838ZM369.069 31.838V29.838H367.999L367.405 30.7286L369.069 31.838ZM361.629 42.998V44.998H362.699L363.293 44.1074L361.629 42.998ZM351.369 42.998L349.724 41.86L347.553 44.998H351.369V42.998ZM360.129 30.338L361.774 31.4761L363.191 29.4282L360.885 28.4865L360.129 30.338ZM353.589 25.118L351.908 26.201L351.912 26.2076L351.916 26.2141L353.589 25.118ZM353.529 8.31805L355.215 9.39368L355.219 9.38717L355.223 9.38062L353.529 8.31805ZM359.829 2.91805L360.659 4.73786L360.67 4.73284L360.681 4.72768L359.829 2.91805ZM363.309 10.838L362.001 9.32532L361.99 9.3342L361.98 9.34323L363.309 10.838ZM363.249 22.178L361.877 23.6332L363.249 22.178ZM377.949 24.158V26.158H379.949V24.158H377.949ZM377.949 8.91805H379.949V6.91805H377.949V8.91805ZM385.549 0.998044V42.998H389.549V0.998044H385.549ZM387.549 40.998H377.949V44.998H387.549V40.998ZM379.949 42.998V31.838H375.949V42.998H379.949ZM377.949 29.838H369.069V33.838H377.949V29.838ZM367.405 30.7286L359.965 41.8886L363.293 44.1074L370.733 32.9474L367.405 30.7286ZM361.629 40.998H351.369V44.998H361.629V40.998ZM353.014 44.1361L361.774 31.4761L358.484 29.2L349.724 41.86L353.014 44.1361ZM360.885 28.4865C358.379 27.4628 356.537 25.9675 355.262 24.022L351.916 26.2141C353.682 28.9086 356.199 30.8933 359.373 32.1896L360.885 28.4865ZM355.271 24.0351C353.992 22.0493 353.309 19.6199 353.309 16.658H349.309C349.309 20.2562 350.147 23.4668 351.908 26.201L355.271 24.0351ZM353.309 16.658C353.309 13.7305 353.974 11.339 355.215 9.39368L351.843 7.24241C350.124 9.93712 349.309 13.1056 349.309 16.658H353.309ZM355.223 9.38062C356.48 7.37673 358.268 5.82793 360.659 4.73786L358.999 1.09823C355.951 2.48816 353.538 4.53937 351.835 7.25547L355.223 9.38062ZM360.681 4.72768C363.081 3.59793 365.979 2.99804 369.429 2.99804V-1.00196C365.519 -1.00196 362.017 -0.32184 358.977 1.10841L360.681 4.72768ZM369.429 2.99804H387.549V-1.00196H369.429V2.99804ZM369.669 6.91805C366.624 6.91805 363.969 7.62321 362.001 9.32532L364.617 12.3508C365.609 11.4929 367.194 10.918 369.669 10.918V6.91805ZM361.98 9.34323C359.991 11.1112 359.149 13.6333 359.149 16.538H363.149C363.149 14.4028 363.747 13.1249 364.638 12.3329L361.98 9.34323ZM359.149 16.538C359.149 19.3722 359.975 21.8398 361.877 23.6332L364.621 20.7229C363.723 19.8763 363.149 18.5839 363.149 16.538H359.149ZM361.877 23.6332C363.778 25.4253 366.41 26.158 369.429 26.158V22.158C367.008 22.158 365.52 21.5708 364.621 20.7229L361.877 23.6332ZM369.429 26.158H377.949V22.158H369.429V26.158ZM379.949 24.158V8.91805H375.949V24.158H379.949ZM377.949 6.91805H369.669V10.918H377.949V6.91805ZM415.064 0.998044V-1.00196H413.064V0.998044H415.064ZM424.724 0.998044H426.724V-1.00196H424.724V0.998044ZM424.724 28.358H422.724V34.4732L426.337 29.5399L424.724 28.358ZM444.764 0.998044V-1.00196H443.75L443.15 -0.183763L444.764 0.998044ZM453.884 0.998044H455.884V-1.00196H453.884V0.998044ZM453.884 42.998V44.998H455.884V42.998H453.884ZM444.284 42.998H442.284V44.998H444.284V42.998ZM444.284 15.698H446.284V9.59368L442.672 14.5146L444.284 15.698ZM424.244 42.998V44.998H425.257L425.856 44.1815L424.244 42.998ZM415.064 42.998H413.064V44.998H415.064V42.998ZM415.064 2.99804H424.724V-1.00196H415.064V2.99804ZM422.724 0.998044V28.358H426.724V0.998044H422.724ZM426.337 29.5399L446.377 2.17985L443.15 -0.183763L423.11 27.1762L426.337 29.5399ZM444.764 2.99804H453.884V-1.00196H444.764V2.99804ZM451.884 0.998044V42.998H455.884V0.998044H451.884ZM453.884 40.998H444.284V44.998H453.884V40.998ZM446.284 42.998V15.698H442.284V42.998H446.284ZM442.672 14.5146L422.632 41.8146L425.856 44.1815L445.896 16.8815L442.672 14.5146ZM424.244 40.998H415.064V44.998H424.244V40.998ZM417.064 42.998V0.998044H413.064V42.998H417.064ZM488.221 21.098L487.405 19.272L482.778 21.3394L487.57 22.9891L488.221 21.098ZM493.921 25.058L492.325 26.2637L492.34 26.2836L492.356 26.3031L493.921 25.058ZM486.661 42.218L486.005 40.3287L485.997 40.3316L486.661 42.218ZM468.661 42.638L468.17 44.5767L468.176 44.5783L468.661 42.638ZM460.561 39.338L458.724 38.5464L458.021 40.1795L459.56 41.0695L460.561 39.338ZM463.561 32.378L464.601 30.6697L462.635 29.4732L461.724 31.5864L463.561 32.378ZM469.621 34.958L469.095 36.8876L469.115 36.8932L469.136 36.8983L469.621 34.958ZM483.301 34.238L482.349 32.4795L482.341 32.4837L482.333 32.488L483.301 34.238ZM484.201 26.318L483.141 28.014L483.153 28.0213L483.164 28.0284L484.201 26.318ZM468.661 25.118H466.661V27.118H468.661V25.118ZM468.661 17.798V15.798H466.661V17.798H468.661ZM482.761 16.598L481.599 14.9706L481.585 14.9806L481.571 14.9909L482.761 16.598ZM482.041 9.45805L481.025 11.1808L481.035 11.1864L481.044 11.1919L482.041 9.45805ZM470.281 8.85805L470.757 10.8006L470.775 10.7961L470.794 10.7912L470.281 8.85805ZM464.701 11.078L462.837 11.8029L463.676 13.9607L465.689 12.817L464.701 11.078ZM461.761 3.51804L460.847 1.73891L459.244 2.56253L459.897 4.24294L461.761 3.51804ZM485.221 1.53804L485.878 -0.350949L485.221 1.53804ZM491.821 5.73804L493.314 4.4073L491.821 5.73804ZM487.57 22.9891C489.69 23.7189 491.238 24.825 492.325 26.2637L495.517 23.8524C493.884 21.6911 491.632 20.1572 488.872 19.207L487.57 22.9891ZM492.356 26.3031C493.46 27.6908 494.021 29.3062 494.021 31.238H498.021C498.021 28.4499 497.182 25.9453 495.486 23.813L492.356 26.3031ZM494.021 31.238C494.021 33.3147 493.357 35.0582 492.01 36.5654L494.992 39.2307C497.006 36.9779 498.021 34.2814 498.021 31.238H494.021ZM492.01 36.5654C490.599 38.1438 488.631 39.417 486.005 40.3287L487.317 44.1074C490.451 43.0191 493.043 41.4123 494.992 39.2307L492.01 36.5654ZM485.997 40.3316C483.396 41.2474 480.504 41.718 477.301 41.718V45.718C480.898 45.718 484.246 45.1887 487.325 44.1045L485.997 40.3316ZM477.301 41.718C474.59 41.718 471.872 41.3793 469.146 40.6978L468.176 44.5783C471.21 45.3368 474.253 45.718 477.301 45.718V41.718ZM469.153 40.6994C466.493 40.0251 463.964 38.9952 461.562 37.6066L459.56 41.0695C462.278 42.6409 465.149 43.811 468.17 44.5767L469.153 40.6994ZM462.398 40.1297L465.398 33.1697L461.724 31.5864L458.724 38.5464L462.398 40.1297ZM462.521 34.0864C464.53 35.3094 466.725 36.2412 469.095 36.8876L470.147 33.0285C468.117 32.4749 466.272 31.6867 464.601 30.6697L462.521 34.0864ZM469.136 36.8983C471.521 37.4945 473.864 37.798 476.161 37.798V33.798C474.218 33.798 472.202 33.5416 470.106 33.0178L469.136 36.8983ZM476.161 37.798C479.269 37.798 482.009 37.2384 484.269 35.9881L482.333 32.488C480.833 33.3176 478.813 33.798 476.161 33.798V37.798ZM484.254 35.9966C486.693 34.6752 488.181 32.6049 488.181 29.858H484.181C484.181 30.8712 483.749 31.7209 482.349 32.4795L484.254 35.9966ZM488.181 29.858C488.181 27.6079 487.164 25.7749 485.238 24.6077L483.164 28.0284C483.879 28.4612 484.181 28.9882 484.181 29.858H488.181ZM485.261 24.622C483.545 23.5493 481.366 23.118 478.921 23.118V27.118C480.956 27.118 482.297 27.4868 483.141 28.014L485.261 24.622ZM478.921 23.118H468.661V27.118H478.921V23.118ZM470.661 25.118V17.798H466.661V25.118H470.661ZM468.661 19.798H478.201V15.798H468.661V19.798ZM478.201 19.798C480.401 19.798 482.401 19.3534 483.952 18.2052L481.571 14.9909C480.961 15.4427 479.921 15.798 478.201 15.798V19.798ZM483.924 18.2255C485.58 17.0425 486.441 15.3308 486.441 13.298H482.441C482.441 14.0653 482.182 14.5536 481.599 14.9706L483.924 18.2255ZM486.441 13.298C486.441 10.8403 485.165 8.94711 483.038 7.72423L481.044 11.1919C482.117 11.809 482.441 12.4758 482.441 13.298H486.441ZM483.057 7.73531C481.096 6.57875 478.692 6.07804 475.981 6.07804V10.078C478.23 10.078 479.866 10.4973 481.025 11.1808L483.057 7.73531ZM475.981 6.07804C473.951 6.07804 471.879 6.365 469.768 6.92492L470.794 10.7912C472.603 10.3111 474.331 10.078 475.981 10.078V6.07804ZM469.805 6.91545C467.665 7.43951 465.633 8.24821 463.713 9.33913L465.689 12.817C467.289 11.9079 468.977 11.2366 470.757 10.8006L469.805 6.91545ZM466.565 10.3532L463.625 2.79315L459.897 4.24294L462.837 11.8029L466.565 10.3532ZM462.675 5.29718C466.822 3.16733 471.308 2.09805 476.161 2.09805V-1.90195C470.694 -1.90195 465.58 -0.691239 460.847 1.73891L462.675 5.29718ZM476.161 2.09805C479.245 2.09805 482.039 2.54893 484.564 3.42704L485.878 -0.350949C482.883 -1.39284 479.638 -1.90195 476.161 -1.90195V2.09805ZM484.564 3.42704C487.062 4.29596 488.953 5.52641 490.328 7.06878L493.314 4.4073C491.409 2.26967 488.9 0.70013 485.878 -0.350949L484.564 3.42704ZM490.328 7.06878C491.645 8.54654 492.281 10.2143 492.281 12.158H496.281C496.281 9.22181 495.277 6.60955 493.314 4.4073L490.328 7.06878ZM492.281 12.158C492.281 13.7745 491.852 15.1527 491.017 16.3596L494.305 18.6365C495.63 16.7233 496.281 14.5416 496.281 12.158H492.281ZM491.017 16.3596C490.162 17.5935 488.981 18.568 487.405 19.272L489.037 22.9241C491.221 21.9481 493 20.5226 494.305 18.6365L491.017 16.3596ZM564.028 35.078H566.028V33.078H564.028V35.078ZM564.028 51.698V53.698H566.028V51.698H564.028ZM555.028 51.698H553.028V53.698H555.028V51.698ZM555.028 42.998H557.028V40.998H555.028V42.998ZM525.388 42.998V40.998H523.388V42.998H525.388ZM525.388 51.698V53.698H527.388V51.698H525.388ZM516.388 51.698L514.388 51.6908L514.381 53.698H516.388V51.698ZM516.448 35.078V33.078H514.456L514.448 35.0708L516.448 35.078ZM518.128 35.078V37.078H518.16L518.192 37.077L518.128 35.078ZM523.468 29.558L521.547 29.003L523.468 29.558ZM525.388 14.138L523.39 14.065V14.0662L525.388 14.138ZM525.868 0.998044V-1.00196H523.94L523.87 0.925034L525.868 0.998044ZM558.148 0.998044H560.148V-1.00196H558.148V0.998044ZM558.148 35.078H556.148V37.078H558.148V35.078ZM533.968 15.038L535.967 15.118L535.967 15.1074L535.967 15.0968L533.968 15.038ZM532.708 27.638L534.673 28.0123L534.674 28.008L532.708 27.638ZM529.768 35.078L528.226 33.8053L525.526 37.078H529.768V35.078ZM548.548 35.078V37.078H550.548V35.078H548.548ZM548.548 8.91805H550.548V6.91805H548.548V8.91805ZM534.148 8.91805V6.91805H532.206L532.149 8.85925L534.148 8.91805ZM562.028 35.078V51.698H566.028V35.078H562.028ZM564.028 49.698H555.028V53.698H564.028V49.698ZM557.028 51.698V42.998H553.028V51.698H557.028ZM555.028 40.998H525.388V44.998H555.028V40.998ZM523.388 42.998V51.698H527.388V42.998H523.388ZM525.388 49.698H516.388V53.698H525.388V49.698ZM518.388 51.7053L518.448 35.0853L514.448 35.0708L514.388 51.6908L518.388 51.7053ZM516.448 37.078H518.128V33.078H516.448V37.078ZM518.192 37.077C519.98 37.0203 521.545 36.3159 522.791 35.0286C523.989 33.7902 524.818 32.0919 525.39 30.1131L521.547 29.003C521.078 30.6242 520.498 31.6459 519.916 32.2475C519.381 32.8002 518.796 33.0558 518.065 33.0791L518.192 37.077ZM525.39 30.1131C526.497 26.2789 527.145 20.9472 527.387 14.2099L523.39 14.0662C523.152 20.6888 522.519 25.6372 521.547 29.003L525.39 30.1131ZM527.387 14.2111L527.867 1.07105L523.87 0.925034L523.39 14.065L527.387 14.2111ZM525.868 2.99804H558.148V-1.00196H525.868V2.99804ZM556.148 0.998044V35.078H560.148V0.998044H556.148ZM558.148 37.078H564.028V33.078H558.148V37.078ZM531.97 14.9581C531.772 19.8997 531.359 23.9957 530.743 27.2681L534.674 28.008C535.338 24.4804 535.764 20.1764 535.967 15.118L531.97 14.9581ZM530.744 27.2638C530.13 30.4837 529.235 32.5813 528.226 33.8053L531.311 36.3508C532.941 34.3748 534.006 31.5124 534.673 28.0123L530.744 27.2638ZM529.768 37.078H548.548V33.078H529.768V37.078ZM550.548 35.078V8.91805H546.548V35.078H550.548ZM548.548 6.91805H534.148V10.918H548.548V6.91805ZM532.149 8.85925L531.969 14.9792L535.967 15.0968L536.147 8.97684L532.149 8.85925ZM578.792 40.898L577.841 42.6577L577.849 42.6622L578.792 40.898ZM570.572 33.158L568.849 34.1748L568.857 34.1871L568.864 34.1993L570.572 33.158ZM570.572 10.898L568.858 9.86601L568.855 9.87214L570.572 10.898ZM578.792 3.09805L577.849 1.33388L577.841 1.3384L578.792 3.09805ZM610.592 10.898L608.878 11.9301L608.884 11.9393L610.592 10.898ZM610.592 33.158L612.299 34.1993L612.305 34.1901L610.592 33.158ZM602.372 40.898L603.322 42.6577L602.372 40.898ZM597.332 33.758L598.309 35.5031L598.322 35.4957L598.335 35.4881L597.332 33.758ZM602.012 28.958L600.273 27.9694L600.266 27.9824L600.258 27.9955L602.012 28.958ZM602.012 15.038L600.258 16.0006L600.266 16.0137L600.273 16.0267L602.012 15.038ZM597.332 10.298L596.328 12.0281L596.341 12.0357L596.354 12.0431L597.332 10.298ZM583.892 10.298L584.869 12.0431L584.882 12.0357L584.895 12.0281L583.892 10.298ZM579.152 15.038L577.413 14.0494L577.406 14.0624L577.398 14.0755L579.152 15.038ZM579.152 28.958L577.398 29.9206L577.406 29.9337L577.413 29.9467L579.152 28.958ZM583.892 33.758L582.888 35.4881L582.901 35.4957L582.914 35.5031L583.892 33.758ZM590.612 41.718C586.549 41.718 582.938 40.845 579.734 39.1339L577.849 42.6622C581.686 44.7111 585.954 45.718 590.612 45.718V41.718ZM579.742 39.1384C576.564 37.4215 574.089 35.0854 572.279 32.1168L568.864 34.1993C571.054 37.7907 574.059 40.6146 577.841 42.6577L579.742 39.1384ZM572.294 32.1413C570.528 29.1505 569.632 25.7859 569.632 21.998H565.632C565.632 26.4502 566.695 30.5256 568.849 34.1748L572.294 32.1413ZM569.632 21.998C569.632 18.21 570.528 14.8696 572.288 11.924L568.855 9.87214C566.695 13.4865 565.632 17.5461 565.632 21.998H569.632ZM572.285 11.9301C574.096 8.92296 576.57 6.57135 579.742 4.85769L577.841 1.3384C574.053 3.38474 571.047 6.23313 568.858 9.86602L572.285 11.9301ZM579.734 4.8622C582.938 3.15106 586.549 2.27805 590.612 2.27805V-1.72195C585.954 -1.72195 581.686 -0.714972 577.849 1.33389L579.734 4.8622ZM590.612 2.27805C594.674 2.27805 598.262 3.15114 601.421 4.85769L603.322 1.3384C599.521 -0.715046 595.269 -1.72195 590.612 -1.72195V2.27805ZM601.421 4.85769C604.593 6.57135 607.067 8.92296 608.878 11.9301L612.305 9.86602C610.116 6.23313 607.11 3.38474 603.322 1.3384L601.421 4.85769ZM608.884 11.9393C610.679 14.8828 611.592 18.2177 611.592 21.998H615.592C615.592 17.5384 614.504 13.4733 612.299 9.85683L608.884 11.9393ZM611.592 21.998C611.592 25.7782 610.679 29.1374 608.878 32.126L612.305 34.1901C614.504 30.5387 615.592 26.4579 615.592 21.998H611.592ZM608.884 32.1168C607.074 35.0854 604.599 37.4215 601.421 39.1384L603.322 42.6577C607.104 40.6146 610.109 37.7907 612.299 34.1993L608.884 32.1168ZM601.421 39.1384C598.262 40.845 594.674 41.718 590.612 41.718V45.718C595.269 45.718 599.521 44.7111 603.322 42.6577L601.421 39.1384ZM590.612 37.438C593.405 37.438 595.986 36.8038 598.309 35.5031L596.354 32.013C594.677 32.9523 592.778 33.438 590.612 33.438V37.438ZM598.335 35.4881C600.652 34.1441 602.471 32.2777 603.765 29.9206L600.258 27.9955C599.312 29.7184 598.011 31.052 596.328 32.028L598.335 35.4881ZM603.75 29.9467C605.099 27.5737 605.752 24.9064 605.752 21.998H601.752C601.752 24.2897 601.244 26.2624 600.273 27.9694L603.75 29.9467ZM605.752 21.998C605.752 19.0897 605.099 16.4224 603.75 14.0494L600.273 16.0267C601.244 17.7337 601.752 19.7064 601.752 21.998H605.752ZM603.765 14.0755C602.467 11.7125 600.641 9.85899 598.309 8.55303L596.354 12.0431C598.022 12.9771 599.316 14.2836 600.258 16.0006L603.765 14.0755ZM598.335 8.56798C596.008 7.21834 593.417 6.55805 590.612 6.55805V10.558C592.766 10.558 594.655 11.0578 596.328 12.0281L598.335 8.56798ZM590.612 6.55805C587.806 6.55805 585.215 7.21834 582.888 8.56798L584.895 12.0281C586.568 11.0578 588.458 10.558 590.612 10.558V6.55805ZM582.914 8.55303C580.589 9.85549 578.749 11.7006 577.413 14.0494L580.89 16.0266C581.875 14.2955 583.195 12.9806 584.869 12.0431L582.914 8.55303ZM577.398 14.0755C576.098 16.4438 575.472 19.1017 575.472 21.998H579.472C579.472 19.6944 579.965 17.7123 580.905 16.0006L577.398 14.0755ZM575.472 21.998C575.472 24.8944 576.098 27.5523 577.398 29.9206L580.905 27.9955C579.965 26.2838 579.472 24.3017 579.472 21.998H575.472ZM577.413 29.9467C578.745 32.2897 580.577 34.1476 582.888 35.4881L584.895 32.028C583.206 31.0485 581.878 29.7064 580.89 27.9694L577.413 29.9467ZM582.914 35.5031C585.237 36.8038 587.818 37.438 590.612 37.438V33.438C588.445 33.438 586.546 32.9523 584.869 32.013L582.914 35.5031ZM659.299 42.998L657.299 43.0028L657.304 44.998H659.299V42.998ZM659.239 17.858L661.239 17.8533L661.222 10.6362L657.522 16.8327L659.239 17.858ZM646.879 38.558V40.558H648.015L648.597 39.5834L646.879 38.558ZM642.559 38.558L640.853 39.6012L641.438 40.558H642.559V38.558ZM630.199 18.338L631.906 17.2949L628.199 11.2315V18.338H630.199ZM630.199 42.998V44.998H632.199V42.998H630.199ZM621.079 42.998H619.079V44.998H621.079V42.998ZM621.079 0.998044V-1.00196H619.079V0.998044H621.079ZM629.119 0.998044L630.833 -0.0338421L630.25 -1.00196H629.119V0.998044ZM644.839 27.098L643.126 28.1299L644.853 30.9964L646.56 28.1183L644.839 27.098ZM660.319 0.998044V-1.00196H659.18L658.599 -0.0222111L660.319 0.998044ZM668.359 0.998044L670.359 0.995187L670.357 -1.00196H668.359V0.998044ZM668.419 42.998V44.998H670.422L670.419 42.9952L668.419 42.998ZM661.299 42.9933L661.239 17.8533L657.239 17.8628L657.299 43.0028L661.299 42.9933ZM657.522 16.8327L645.162 37.5327L648.597 39.5834L660.957 18.8834L657.522 16.8327ZM646.879 36.558H642.559V40.558H646.879V36.558ZM644.266 37.5149L631.906 17.2949L628.493 19.3811L640.853 39.6012L644.266 37.5149ZM628.199 18.338V42.998H632.199V18.338H628.199ZM630.199 40.998H621.079V44.998H630.199V40.998ZM623.079 42.998V0.998044H619.079V42.998H623.079ZM621.079 2.99804H629.119V-1.00196H621.079V2.99804ZM627.406 2.02993L643.126 28.1299L646.553 26.0662L630.833 -0.0338421L627.406 2.02993ZM646.56 28.1183L662.04 2.0183L658.599 -0.0222111L643.119 26.0778L646.56 28.1183ZM660.319 2.99804H668.359V-1.00196H660.319V2.99804ZM666.359 1.0009L666.419 43.0009L670.419 42.9952L670.359 0.995187L666.359 1.0009ZM668.419 40.998H659.299V44.998H668.419V40.998ZM707.293 33.998L709.141 33.2341L708.63 31.998H707.293V33.998ZM687.793 33.998V31.998H686.455L685.944 33.2341L687.793 33.998ZM684.073 42.998V44.998H685.41L685.921 43.762L684.073 42.998ZM674.113 42.998L672.286 42.1838L671.032 44.998H674.113V42.998ZM692.833 0.998044V-1.00196H691.535L691.006 0.18383L692.833 0.998044ZM702.433 0.998044L704.259 0.181655L703.729 -1.00196H702.433V0.998044ZM721.213 42.998V44.998H724.298L723.039 42.1817L721.213 42.998ZM711.013 42.998L709.164 43.762L709.675 44.998H711.013V42.998ZM704.233 26.618V28.618H707.226L706.081 25.8527L704.233 26.618ZM697.573 10.538L699.421 9.77273L697.573 5.31142L695.725 9.77273L697.573 10.538ZM690.913 26.618L689.065 25.8527L687.92 28.618H690.913V26.618ZM707.293 31.998H687.793V35.998H707.293V31.998ZM685.944 33.2341L682.224 42.2341L685.921 43.762L689.641 34.762L685.944 33.2341ZM684.073 40.998H674.113V44.998H684.073V40.998ZM675.94 43.8123L694.66 1.81226L691.006 0.18383L672.286 42.1838L675.94 43.8123ZM692.833 2.99804H702.433V-1.00196H692.833V2.99804ZM700.607 1.81443L719.387 43.8144L723.039 42.1817L704.259 0.181655L700.607 1.81443ZM721.213 40.998H711.013V44.998H721.213V40.998ZM712.861 42.2341L709.141 33.2341L705.444 34.762L709.164 43.762L712.861 42.2341ZM706.081 25.8527L699.421 9.77273L695.725 11.3034L702.385 27.3834L706.081 25.8527ZM695.725 9.77273L689.065 25.8527L692.761 27.3834L699.421 11.3034L695.725 9.77273ZM690.913 28.618H704.233V24.618H690.913V28.618Z" fill="#A8AFC0"/>
</svg>
