<svg width="854" height="767" viewBox="0 0 854 767" fill="none" xmlns="http://www.w3.org/2000/svg">
<path d="M627.217 676.973C455.02 690.284 85.2726 603.92 60.8409 463.642C42.2017 356.622 282.328 114.015 425.531 66.1282C677.69 -18.1941 730.929 166.135 757.376 217.728C800.863 312.353 897.398 656.088 627.217 676.973Z" fill="#7BB3CB" fill-opacity="0.7"/>
<path d="M486.572 87.9019C777.851 140.98 807.774 408.887 764.665 558.385C718.76 717.58 671.529 519.817 386.689 506.405C315.584 503.057 80.9363 457.045 114.158 305.463C147.379 153.881 314.115 56.4758 486.572 87.9019Z" fill="white"/>
<path d="M662.624 338.842C687.275 654.916 378.515 762.933 188.232 761.448C-14.3947 759.866 205.964 654.167 136.202 356.161C118.787 281.768 102.787 26.2101 292.569 16.8849C482.35 7.55969 648.029 151.705 662.624 338.842Z" fill="#94E79C" fill-opacity="0.58"/>
</svg>
