<svg width="83" height="32" viewBox="0 0 83 32" fill="none" xmlns="http://www.w3.org/2000/svg">
<path d="M2.13232 7.92672L2.13214 7.92674C1.38 8.02688 0.800026 8.62905 0.800026 9.36236V19.4859C0.792549 21.5216 2.13129 23.3424 4.15596 24.085C4.15623 24.0851 4.15651 24.0852 4.15678 24.0853L8.52852 25.7094L8.52892 25.7095C8.71134 25.7769 8.90511 25.8109 9.10024 25.8109H9.44801C10.3056 27.953 12.1477 29.6274 14.4696 30.3809C18.7206 31.7605 23.3859 29.7302 24.9535 25.8109H60.7481C61.6056 27.9529 63.4472 29.6274 65.7697 30.3809M2.13232 7.92672L60.8848 25.6109C61.6962 27.754 63.5161 29.4395 65.8314 30.1906C70.0375 31.5557 74.6425 29.5051 76.1168 25.6109M2.13232 7.92672L11.2639 6.71938M2.13232 7.92672L11.2639 6.71938M65.7697 30.3809L65.8285 30.1997L65.7697 30.3809C65.7697 30.3809 65.7697 30.3809 65.7697 30.3809ZM65.7697 30.3809C70.0207 31.7605 74.686 29.7302 76.2536 25.8109M76.2536 25.8109H76.1168V25.6109M76.2536 25.8109C76.2707 25.7681 76.2875 25.725 76.3039 25.6817L76.1168 25.6109M76.2536 25.8109H80.6498C81.4914 25.8109 82.2 25.1762 82.2 24.3608V16.9391V16.9388C82.1966 14.8186 80.9698 12.8693 78.9967 11.8217L78.9963 11.8214C74.2746 9.32955 68.9472 7.98843 63.5148 7.92451M76.1168 25.6109H80.6498C81.3958 25.6109 82 25.0515 82 24.3608V16.9391C81.9967 14.8982 80.8157 13.0139 78.903 11.9983C74.1964 9.51443 68.8834 8.18043 63.4661 8.12398M63.5148 7.92451L63.5562 7.94546L63.4661 8.12398M63.5148 7.92451C63.4992 7.92432 63.4837 7.92415 63.4682 7.92399L63.4661 8.12398M63.5148 7.92451L58.9282 5.60803L58.9281 5.60797C52.1761 2.204 44.6125 0.418413 36.9265 0.413307L36.9264 0.413307L35.3336 0.413307M63.4661 8.12398L58.8381 5.78656M58.8381 5.78656C52.1145 2.39689 44.5817 0.618392 36.9264 0.613307L58.8381 5.78656ZM58.8381 5.78656L35.3336 0.413307M35.3336 0.413307L35.3334 0.611438V0.413307L35.3336 0.413307ZM3.69991 19.4866V14.5622H3.89992M3.69991 19.4866L7.75002 14.3622H7.55003H3.89992V14.5622M3.69991 19.4866C3.69662 20.4076 4.30306 21.2366 5.22811 21.5748L8.90207 22.9409C8.90504 22.8764 8.91114 22.811 8.91663 22.7521C8.91721 22.7458 8.91779 22.7397 8.91835 22.7336M3.69991 19.4866L9.21066 21.9212M3.89992 14.5622H7.75002H7.95002V14.3622V11.862V11.662H7.75002H3.89992M3.89992 14.5622V19.4866L3.89991 19.4873C3.89695 20.3166 4.44359 21.0751 5.29679 21.387L5.29781 21.3874L8.91835 22.7336M3.89992 11.662L9.08088 21.5114C9.06081 21.5959 9.04549 21.6914 9.03137 21.7794C9.02534 21.817 9.01953 21.8532 9.01367 21.8866L9.01355 21.8873C9.0082 21.9184 9.00209 21.9515 8.99574 21.9859C8.97891 22.0771 8.96037 22.1776 8.94978 22.2742L8.94968 22.275C8.941 22.3574 8.9361 22.4527 8.93182 22.536C8.9295 22.5809 8.92738 22.6223 8.92493 22.6565C8.92324 22.68 8.92091 22.7059 8.91835 22.7336M3.89992 11.662V10.6209V11.662ZM8.91835 22.7336L9.11259 22.8058C9.11328 22.7983 9.11399 22.7908 9.11469 22.7833C9.1182 22.7459 9.12172 22.7084 9.12441 22.6708C9.12749 22.628 9.12979 22.5823 9.13216 22.5355C9.13615 22.4567 9.14031 22.3745 9.14858 22.296C9.15833 22.2072 9.17471 22.1185 9.19105 22.0299C9.19774 21.9936 9.20443 21.9574 9.21066 21.9212M10.1177 19.1048C10.0922 19.1464 10.0645 19.1867 10.0328 19.2329L10.0265 19.2422C9.99305 19.2909 9.95589 19.3455 9.92034 19.4054L9.91995 19.406C9.87527 19.4819 9.8316 19.5671 9.79237 19.6436C9.77399 19.6794 9.7566 19.7134 9.74053 19.7436C9.72754 19.768 9.71251 19.7949 9.69647 19.8236C9.65335 19.9008 9.60293 19.9911 9.56516 20.0809L9.56503 20.0812C9.54012 20.1408 9.51691 20.2009 9.49481 20.2585L9.48861 20.2747C9.46847 20.3273 9.44922 20.3775 9.42915 20.4269L9.42872 20.4279C9.41703 20.4571 9.40449 20.4876 9.39156 20.5191C9.35773 20.6014 9.3213 20.6899 9.2908 20.7781L9.47982 20.8435L14.4605 16.0593M10.1177 19.1048C10.1177 19.1047 10.1178 19.1046 10.1178 19.1046L10.2883 19.2089L10.1171 19.1056C10.1173 19.1054 10.1175 19.1051 10.1177 19.1048ZM10.1177 19.1048C10.1804 19.0009 10.2581 18.8813 10.3401 18.7724L10.3402 18.7722C10.3916 18.704 10.4444 18.6402 10.4932 18.5812C10.5192 18.5499 10.544 18.5199 10.5668 18.4914C10.5805 18.4743 10.5948 18.4563 10.6098 18.4375C10.6723 18.3588 10.7449 18.2674 10.8185 18.1854C10.9081 18.0855 10.9921 18.0067 11.0727 17.9312L11.0816 17.9228C11.1187 17.888 11.159 17.846 11.2055 17.7976C11.2503 17.7509 11.3003 17.6988 11.351 17.6511L11.3514 17.6506C11.4224 17.5841 11.4962 17.5244 11.5631 17.4703C11.5893 17.449 11.6145 17.4286 11.6381 17.409L11.6385 17.4086C11.6688 17.3836 11.705 17.3523 11.7439 17.3187C11.8064 17.2648 11.8758 17.2049 11.938 17.1557L11.938 17.1556C12.012 17.0971 12.0938 17.0427 12.166 16.9948C12.1987 16.973 12.2295 16.9526 12.2565 16.9337L12.2569 16.9335C12.2824 16.9158 12.309 16.897 12.3366 16.8775C12.4126 16.8238 12.4955 16.7652 12.5787 16.7136L12.5797 16.713C12.6385 16.6771 12.6999 16.6438 12.7571 16.6128L12.7585 16.612C12.8176 16.58 12.8727 16.5501 12.9259 16.5178L12.9263 16.5176C13.0438 16.4468 13.1443 16.3882 13.2616 16.3309M13.2616 16.3309C13.2615 16.3309 13.2614 16.331 13.2613 16.331L13.3498 16.5104L13.262 16.3307C13.2618 16.3308 13.2617 16.3308 13.2616 16.3309ZM13.2616 16.3309C13.3439 16.2903 13.4425 16.2475 13.535 16.2074C13.5709 16.1919 13.6058 16.1767 13.6385 16.1622C13.675 16.1461 13.7113 16.1294 13.7479 16.1126C13.8243 16.0775 13.9015 16.0421 13.9823 16.0106M13.9823 16.0106C13.9825 16.0105 13.9827 16.0104 13.983 16.0103L14.0556 16.1966L13.9823 16.0106ZM13.9823 16.0106C14.0718 15.9753 14.1862 15.9382 14.2907 15.9043C14.3281 15.8923 14.3641 15.8806 14.3974 15.8695L14.4605 16.0593M14.4605 16.0593C14.5106 16.0425 14.5542 16.0271 14.5951 16.0127C14.6645 15.9882 14.7261 15.9665 14.7983 15.9454C14.9114 15.9132 15.0266 15.8877 15.1421 15.862C15.1837 15.8528 15.2253 15.8436 15.2669 15.834C15.3111 15.8244 15.3545 15.8133 15.3979 15.8023C15.4553 15.7877 15.5126 15.7731 15.5717 15.7618C15.6909 15.7391 15.8123 15.7238 15.9338 15.7085C15.9814 15.7025 16.0291 15.6965 16.0766 15.6901C16.1182 15.685 16.159 15.6785 16.1997 15.672C16.2569 15.663 16.3137 15.6539 16.3721 15.6489C16.6424 15.624 16.9121 15.6102 17.1955 15.6102C21.6675 15.6143 25.2913 18.9694 25.2957 23.1097V22.9097H25.4928M14.4605 16.0593L14.3969 15.8697C14.44 15.8552 14.4809 15.8408 14.521 15.8267C14.5946 15.8008 14.6654 15.7759 14.7422 15.7534L14.7436 15.753C14.8629 15.7191 14.9866 15.6916 15.1038 15.6656C15.1441 15.6567 15.1837 15.6479 15.2221 15.6391L15.2243 15.6386C15.2648 15.6298 15.3045 15.6197 15.3481 15.6086L15.3697 15.6031C15.4205 15.5902 15.476 15.5765 15.5342 15.5653L15.5344 15.5653C15.6602 15.5414 15.7913 15.5249 15.9149 15.5093C15.9611 15.5035 16.0063 15.4978 16.0497 15.4919L16.0523 15.4916C16.09 15.487 16.1267 15.4811 16.1673 15.4747L16.1932 15.4706C16.2426 15.4628 16.2971 15.4546 16.3543 15.4497M25.4928 22.9097C25.3742 18.7381 21.6917 15.4143 17.1957 15.4102H17.1955C16.9057 15.4102 16.63 15.4243 16.3543 15.4497M25.4928 22.9097H35.8997M25.4928 22.9097C25.4947 22.9761 25.4957 23.0427 25.4957 23.1095L25.2966 23.1097H35.8997V22.9097M16.3543 15.4497C16.3545 15.4497 16.3547 15.4496 16.3549 15.4496L16.372 15.6482L16.3537 15.4497C16.3539 15.4497 16.3541 15.4497 16.3543 15.4497ZM35.8997 22.9097H36.0997M35.8997 22.9097V10.8119M36.0997 22.9097L20.16 10.3925M36.0997 22.9097V10.8119H35.8997M36.0997 22.9097L20.2959 10.2458M35.8997 10.8119H21.25C20.8437 10.8119 20.4512 10.6627 20.16 10.3925M35.8997 10.8119V10.6119H21.25C20.8919 10.6119 20.5485 10.4802 20.2959 10.2458M20.16 10.3925L20.2959 10.2458M20.16 10.3925L20.2959 10.2458M20.2959 10.2458L20.1598 10.3924L16.7557 7.24071C15.3351 7.87161 13.953 8.57424 12.6154 9.34532C12.6153 9.34536 12.6153 9.34539 12.6152 9.34543L20.2959 10.2458ZM20.2959 10.2458L16.7951 7.0046L20.2959 10.2458ZM9.21066 21.9212C9.21768 21.8812 9.22408 21.8412 9.23043 21.8016M9.21066 21.9212L9.23043 21.8016M11.2639 6.71938C12.9327 5.77209 14.6639 4.92363 16.4483 4.17849L11.2639 6.71938ZM9.23043 21.8016C9.24393 21.7173 9.25716 21.6347 9.27547 21.5575M9.23043 21.8016L9.27547 21.5575M9.27547 21.5575C9.29697 21.4666 9.32653 21.3678 9.35547 21.2711M9.27547 21.5575L9.35547 21.2711M9.35547 21.2711C9.36276 21.2467 9.37002 21.2224 9.3771 21.1985L9.35547 21.2711ZM69.5439 27.8118L69.5811 28.0083L69.5439 27.8118C72.3694 27.2773 74.1656 24.734 73.5957 22.1519C73.0241 19.5646 70.2844 17.873 67.4561 18.4081L67.4197 18.2157L67.4561 18.4081C65.0257 18.8678 63.2997 20.8417 63.3002 23.1112V23.1112C63.3002 23.4323 63.3354 23.753 63.4048 24.068C63.9759 26.6553 66.7155 28.347 69.5439 27.8118ZM21.887 7.91279H35.9002V3.31296H35.3361H35.3359C30.0289 3.30751 24.7694 4.22116 19.8276 6.00605L21.887 7.91279ZM16.156 18.4081L16.1189 18.2116L16.156 18.4081C13.7257 18.8678 11.9996 20.8417 12.0001 23.1112C12.0001 23.4323 12.0353 23.753 12.1047 24.068C12.6758 26.6553 15.4154 28.347 18.2443 27.8118C21.0692 27.2773 22.8655 24.734 22.2956 22.1519C21.7245 19.5646 18.9844 17.873 16.156 18.4081ZM12.8545 16.7875C12.9126 16.756 12.9718 16.7239 13.0295 16.6889L12.4569 17.0374C12.5312 16.9848 12.6063 16.9318 12.684 16.8837C12.7383 16.8505 12.7959 16.8193 12.8545 16.7875ZM39.0001 22.9112H60.2031C60.3175 18.7379 64.0023 15.4118 68.5 15.4118C72.9977 15.4118 76.6831 18.7379 76.7975 22.9112H79.1001L79.1001 16.9394C79.1001 16.9394 79.1001 16.9393 79.1001 16.9393C79.0985 15.8739 78.4819 14.8817 77.4691 14.3452C73.0929 12.032 68.1406 10.814 63.1002 10.8124C63.1002 10.8124 63.1002 10.8124 63.1002 10.8124H39.0001V22.9112ZM39.0001 7.91279H56.9565C51.4025 5.20532 45.2734 3.65609 39.0001 3.37653V7.91279Z" fill="white" stroke="white" stroke-width="0.4"/>
</svg>
