<svg width="250" height="123" viewBox="0 0 250 123" fill="none" xmlns="http://www.w3.org/2000/svg">
<path d="M80 34.7569C80 56.0736 63.184 66.6133 41.5094 66.6133C19.8349 66.6133 0 50.075 0 28.7584C0 7.44175 10.566 0.613644 20.3774 0.613281C29.7626 0.613281 38.001 9.40267 46.0377 13.2316C56.5613 18.2453 80 22.6706 80 34.7569Z" fill="url(#paint0_linear_221_507)"/>
<path d="M27.1323 19.9267L27.1321 19.9267C26.38 20.0269 25.8 20.6291 25.8 21.3624V31.4859C25.7925 33.5218 27.1316 35.3428 29.1566 36.0852C29.1566 36.0852 29.1567 36.0853 29.1568 36.0853L33.5285 37.7094L33.5289 37.7095C33.7113 37.7769 33.9051 37.8109 34.1002 37.8109H34.448C35.3056 39.953 37.1477 41.6274 39.4696 42.3809C43.7206 43.7605 48.3859 41.7302 49.9535 37.8109H85.7481C86.6056 39.9529 88.4472 41.6274 90.7697 42.3809C95.0207 43.7605 99.686 41.7302 101.254 37.8109H105.65C106.491 37.8109 107.2 37.1762 107.2 36.3608V28.9391V28.9388C107.197 26.8186 105.97 24.8693 103.997 23.8217L103.996 23.8214C99.2746 21.3296 93.9472 19.9884 88.5148 19.9245L83.9282 17.608L83.9281 17.608C77.1761 14.204 69.6125 12.4184 61.9265 12.4133L61.9264 12.4133L60.3336 12.4133L60.3334 12.4133V12.6133C53.8465 12.6067 47.4338 13.8853 41.5254 16.363L27.1323 19.9267ZM27.1323 19.9267L36.2639 18.7194L27.1323 19.9267ZM88.3002 35.1112V35.1112C88.2997 32.8417 90.0257 30.8678 92.4561 30.4081C95.2845 29.873 98.0241 31.5646 98.5957 34.152C99.1655 36.734 97.3693 39.2773 94.5439 39.8118C91.7156 40.347 88.976 38.6554 88.4049 36.0681L88.3002 35.1112ZM88.3002 35.1112C88.3002 35.4323 88.3354 35.753 88.4048 36.068L88.3002 35.1112ZM28.6999 31.4866V26.5622H28.8999M28.6999 31.4866L32.75 26.3622H32.55H28.8999V26.5622M28.6999 31.4866C28.6966 32.4076 29.3031 33.2366 30.2281 33.5748M28.6999 31.4866L30.2281 33.5748M28.8999 26.5622H32.75H32.95V26.3622V23.862V23.662H32.75H28.8999L34.2755 33.5575L34.0809 33.5114C34.0608 33.5959 34.0455 33.6914 34.0314 33.7794C34.0253 33.817 34.0195 33.8532 34.0137 33.8866L34.0135 33.8873C34.0082 33.9184 34.0021 33.9515 33.9957 33.9859C33.9789 34.0771 33.9604 34.1776 33.9498 34.2742L33.9497 34.275C33.941 34.3574 33.9361 34.4527 33.9318 34.536C33.9295 34.5809 33.9274 34.6223 33.9249 34.6565C33.9232 34.68 33.9209 34.7059 33.9184 34.7336M28.8999 26.5622L28.8999 31.4866L28.8999 31.4873C28.8969 32.3166 29.4436 33.0751 30.2968 33.387L30.2978 33.3874L33.9184 34.7336M33.9184 34.7336L34.1126 34.8058L30.2281 33.5748M33.9184 34.7336C33.9178 34.7397 33.9172 34.7458 33.9166 34.752C33.9111 34.811 33.905 34.8764 33.9021 34.9409L30.2281 33.5748M35.2884 31.2089L35.1178 31.1046C35.1178 31.1046 35.1177 31.1047 35.1177 31.1048C35.0922 31.1463 35.0646 31.1867 35.0329 31.2329L35.0265 31.2422C34.993 31.2909 34.9559 31.3455 34.9203 31.4054L34.92 31.406C34.8753 31.4819 34.8316 31.5671 34.7924 31.6436C34.774 31.6794 34.7566 31.7134 34.7405 31.7436C34.7275 31.768 34.7125 31.7949 34.6965 31.8236C34.6534 31.9008 34.6029 31.9911 34.5652 32.0809L34.565 32.0812C34.5401 32.1408 34.5169 32.2009 34.4948 32.2585L34.4886 32.2747C34.4685 32.3273 34.4492 32.3775 34.4291 32.4269L34.4287 32.4279C34.417 32.4571 34.4045 32.4876 34.3916 32.5191C34.3577 32.6014 34.3213 32.6899 34.2908 32.7781L34.4798 32.8435L38.7479 28.1126C38.7114 28.1294 38.675 28.1461 38.6385 28.1622C38.6058 28.1767 38.5709 28.1918 38.5351 28.2074C38.4424 28.2476 38.3437 28.2904 38.2613 28.331M35.2884 31.2089C35.3488 31.1087 35.423 30.9948 35.4999 30.8926C35.5491 30.8274 35.5958 30.771 35.6424 30.7148C35.6691 30.6825 35.6958 30.6502 35.7229 30.6164C35.7376 30.5981 35.7527 30.5791 35.7682 30.5597C35.8305 30.4812 35.8982 30.396 35.9674 30.3189C36.0511 30.2256 36.1297 30.1519 36.2111 30.0755L36.2184 30.0687C36.2595 30.0302 36.3029 29.9849 36.3476 29.9384C36.3936 29.8904 36.441 29.8411 36.4881 29.7966C36.5536 29.7353 36.6182 29.683 36.683 29.6306C36.7106 29.6082 36.7383 29.5858 36.7661 29.5627C36.8039 29.5314 36.8428 29.4977 36.8825 29.4634C36.9409 29.4129 37.001 29.3609 37.0622 29.3124C37.1298 29.2589 37.1983 29.2134 37.2666 29.1682C37.3015 29.145 37.3363 29.1219 37.3709 29.0978C37.3995 29.078 37.4281 29.0577 37.4569 29.0374C37.5312 28.9848 37.6063 28.9318 37.684 28.8837C37.7383 28.8505 37.7959 28.8193 37.8545 28.7875C37.9126 28.756 37.9718 28.7239 38.0295 28.6889C38.146 28.6187 38.2404 28.5638 38.3498 28.5104M35.2884 31.2089C35.2601 31.2552 35.2296 31.2997 35.1986 31.3448C35.1628 31.397 35.1265 31.4499 35.0923 31.5075M35.2884 31.2089L35.0923 31.5075M38.3498 28.5104L38.2613 28.331M38.3498 28.5104C38.4275 28.4721 38.5188 28.4325 38.6096 28.3931C38.6466 28.377 38.6835 28.361 38.7194 28.3451C38.7617 28.3264 38.8008 28.3084 38.8386 28.2911C38.9118 28.2574 38.9799 28.2261 39.0556 28.1966L38.2613 28.331M38.3498 28.5104L38.262 28.3307C38.2617 28.3308 38.2615 28.3309 38.2613 28.331M37.5153 21.1722L37.6152 21.3454C37.6153 21.3454 37.6153 21.3454 37.6154 21.3453C38.953 20.5742 40.3351 19.8716 41.7557 19.2407L45.1598 22.3924L28.6999 22.4456M37.5153 21.1722C37.356 21.2642 37.1781 21.3247 36.9918 21.3496L28.6999 22.4456M37.5153 21.1722C38.8969 20.3757 40.3256 19.652 41.7951 19.0046L37.5153 21.1722ZM28.6999 22.4456H28.8999V22.6209L28.7261 22.6439L28.6999 22.4456ZM35.0923 31.5075C35.0505 31.5785 35.012 31.6537 34.9743 31.7271C34.9552 31.7646 34.9362 31.8016 34.9171 31.8375C34.9002 31.8692 34.8827 31.9005 34.8652 31.9319C34.824 32.0057 34.7827 32.0796 34.7495 32.1584C34.7236 32.2204 34.6993 32.2838 34.6751 32.3471C34.6551 32.3991 34.6352 32.4511 34.6144 32.5022L35.0923 31.5075ZM43.2443 39.8118C40.4155 40.347 37.6759 38.6554 37.1048 36.0681L43.2443 39.8118ZM43.2443 39.8118C46.0692 39.2773 47.8655 36.734 47.2956 34.1519M43.2443 39.8118L47.2956 34.1519M47.2956 34.1519C46.7245 31.5646 43.9844 29.873 41.156 30.4081M47.2956 34.1519L41.156 30.4081M41.156 30.4081C38.7257 30.8678 36.9996 32.8417 37.0001 35.1112M41.156 30.4081L37.0001 35.1112M37.0001 35.1112C37.0001 35.4323 37.0353 35.753 37.1047 36.068L37.0001 35.1112ZM46.887 19.9128H60.9002V15.313H60.3361L60.3359 15.313C55.0289 15.3075 49.7694 16.2212 44.8276 18.006L46.887 19.9128ZM64.0001 34.9112H85.2031C85.3175 30.7379 89.0023 27.4118 93.5 27.4118C97.9977 27.4118 101.683 30.7379 101.797 34.9112H104.1L104.1 28.9394C104.1 28.9394 104.1 28.9393 104.1 28.9393C104.099 27.8738 103.482 26.8817 102.469 26.3452C98.0929 24.0319 93.1406 22.814 88.1002 22.8124C88.1002 22.8124 88.1002 22.8124 88.1002 22.8124H64.0001V34.9112ZM64.0001 19.9128H81.9565C76.4025 17.2053 70.2734 15.6561 64.0001 15.3765V19.9128Z" fill="white" stroke="white" stroke-width="0.4"/>
<path d="M10.256 99H11.936L6.848 87.8H5.264L0.192 99H1.84L3.072 96.2H9.024L10.256 99ZM3.632 94.92L6.048 89.432L8.464 94.92H3.632ZM19.389 94.6C20.237 94.264 20.749 93.608 20.749 92.696C20.749 91.304 19.549 90.52 17.549 90.52H13.613V99H17.693C19.949 99 21.037 98.136 21.037 96.664C21.037 95.592 20.509 94.888 19.389 94.6ZM15.117 91.704H17.421C18.589 91.704 19.213 92.104 19.213 92.92C19.213 93.736 18.589 94.168 17.421 94.168H15.117V91.704ZM17.581 97.816H15.117V95.272H17.677C18.941 95.272 19.501 95.688 19.501 96.568C19.501 97.432 18.845 97.816 17.581 97.816ZM29.7611 90.52H22.0171V91.864H25.1211V99H26.6571V91.864H29.7611V90.52ZM34.5888 99.096C37.1328 99.096 38.9888 97.288 38.9888 94.76C38.9888 92.232 37.1328 90.44 34.5888 90.44C32.0448 90.44 30.1728 92.232 30.1728 94.76C30.1728 97.288 32.0448 99.096 34.5888 99.096ZM34.5888 97.752C32.9568 97.752 31.7248 96.568 31.7248 94.76C31.7248 92.952 32.9568 91.784 34.5888 91.784C36.2208 91.784 37.4368 92.952 37.4368 94.76C37.4368 96.568 36.2208 97.752 34.5888 97.752ZM45.5036 99H46.9116L52.0956 92.824V99H53.6316V90.52H52.2396L47.0396 96.696V90.52H45.5036V99ZM60.9099 99H62.4459V95.448H67.2779V99H68.8139V90.52H67.2779V94.12H62.4459V90.52H60.9099V99ZM79.4645 94.808C79.4645 92.2 77.7205 90.44 75.2725 90.44C72.8245 90.44 71.0165 92.248 71.0165 94.76C71.0165 97.288 72.8405 99.096 75.5765 99.096C76.9845 99.096 78.1525 98.616 78.9205 97.72L78.0725 96.728C77.4485 97.416 76.6165 97.752 75.6245 97.752C73.9445 97.752 72.7445 96.76 72.5525 95.272H79.4325C79.4485 95.128 79.4645 94.936 79.4645 94.808ZM75.2725 91.736C76.7605 91.736 77.8325 92.744 77.9925 94.168H72.5525C72.7125 92.728 73.8005 91.736 75.2725 91.736ZM89.0347 97.656V90.52H82.4588L82.3307 93.384C82.2188 95.528 82.0108 97.592 80.7948 97.656H80.3468V100.968H81.8028V99H88.8908V100.968H90.3308V97.656H89.0347ZM83.7388 93.496L83.8188 91.864H87.4988V97.656H82.7468C83.5148 96.984 83.6748 95.256 83.7388 93.496ZM98.1078 94.6C98.9558 94.264 99.4678 93.608 99.4678 92.696C99.4678 91.304 98.2678 90.52 96.2678 90.52H92.3318V99H96.4118C98.6678 99 99.7558 98.136 99.7558 96.664C99.7558 95.592 99.2278 94.888 98.1078 94.6ZM93.8358 91.704H96.1398C97.3078 91.704 97.9318 92.104 97.9318 92.92C97.9318 93.736 97.3078 94.168 96.1398 94.168H93.8358V91.704ZM96.2998 97.816H93.8358V95.272H96.3958C97.6598 95.272 98.2198 95.688 98.2198 96.568C98.2198 97.432 97.5638 97.816 96.2998 97.816ZM102.16 99H103.568L108.752 92.824V99H110.288V90.52H108.896L103.696 96.696V90.52H102.16V99ZM123.333 99H125.157L122.245 94.632L124.933 90.52H123.285L120.997 94.104H119.333V90.52H117.797V94.104H116.133L113.845 90.52H112.213L114.901 94.616L111.989 99H113.813L116.149 95.416H117.797V99H119.333V95.416H120.981L123.333 99ZM126.847 99H128.255L133.439 92.824V99H134.975V90.52H133.583L128.383 96.696V90.52H126.847V99ZM146.293 90.52L142.869 96.248L139.541 90.52H137.957V99H139.365V92.792L142.501 98.04H143.173L146.341 92.808V99H147.733V90.52H146.293ZM154.354 99.096C156.898 99.096 158.754 97.288 158.754 94.76C158.754 92.232 156.898 90.44 154.354 90.44C151.81 90.44 149.938 92.232 149.938 94.76C149.938 97.288 151.81 99.096 154.354 99.096ZM154.354 97.752C152.722 97.752 151.49 96.568 151.49 94.76C151.49 92.952 152.722 91.784 154.354 91.784C155.986 91.784 157.202 92.952 157.202 94.76C157.202 96.568 155.986 97.752 154.354 97.752ZM164.668 99.096C166.188 99.096 167.452 98.456 168.124 97.272L166.956 96.536C166.412 97.368 165.58 97.752 164.652 97.752C162.988 97.752 161.74 96.6 161.74 94.76C161.74 92.952 162.988 91.784 164.652 91.784C165.58 91.784 166.412 92.168 166.956 93L168.124 92.248C167.452 91.064 166.188 90.44 164.668 90.44C162.06 90.44 160.188 92.232 160.188 94.76C160.188 97.288 162.06 99.096 164.668 99.096ZM176.324 90.52H168.58V91.864H171.684V99H173.22V91.864H176.324V90.52ZM181.814 93.4L179.43 93.384V90.52H177.894V99L181.574 99.016C183.846 99.032 185.126 98.008 185.126 96.168C185.126 94.424 183.974 93.416 181.814 93.4ZM181.446 97.848L179.43 97.832V94.504L181.446 94.536C182.854 94.552 183.558 95.032 183.558 96.152C183.558 97.288 182.838 97.864 181.446 97.848ZM5.12 119.096C7.664 119.096 9.52 117.288 9.52 114.76C9.52 112.232 7.664 110.44 5.12 110.44C2.576 110.44 0.704 112.232 0.704 114.76C0.704 117.288 2.576 119.096 5.12 119.096ZM5.12 117.752C3.488 117.752 2.256 116.568 2.256 114.76C2.256 112.952 3.488 111.784 5.12 111.784C6.752 111.784 7.968 112.952 7.968 114.76C7.968 116.568 6.752 117.752 5.12 117.752ZM17.7455 110.52H10.0015V111.864H13.1055V119H14.6415V111.864H17.7455V110.52ZM29.757 119H31.565L28.125 114.6L31.341 110.52H29.693L26.941 114.104H25.149V110.52H23.613V119H25.149V115.416H26.909L29.757 119ZM36.5263 119.096C39.0703 119.096 40.9263 117.288 40.9263 114.76C40.9263 112.232 39.0703 110.44 36.5263 110.44C33.9823 110.44 32.1103 112.232 32.1103 114.76C32.1103 117.288 33.9823 119.096 36.5263 119.096ZM36.5263 117.752C34.8943 117.752 33.6623 116.568 33.6623 114.76C33.6623 112.952 34.8943 111.784 36.5263 111.784C38.1583 111.784 39.3743 112.952 39.3743 114.76C39.3743 116.568 38.1583 117.752 36.5263 117.752ZM51.4803 110.52L48.0563 116.248L44.7283 110.52H43.1443V119H44.5523V112.792L47.6883 118.04H48.3603L51.5283 112.808V119H52.9203V110.52H51.4803ZM55.9099 110.52V119H57.4459V111.864H62.2299V119H63.7659V110.52H55.9099ZM69.762 110.44C68.402 110.44 67.138 110.824 66.258 111.528L66.898 112.68C67.554 112.12 68.578 111.768 69.586 111.768C71.106 111.768 71.858 112.52 71.858 113.816V114.12H69.426C66.898 114.12 66.018 115.24 66.018 116.6C66.018 118.072 67.234 119.096 69.154 119.096C70.482 119.096 71.426 118.648 71.938 117.88V119H73.394V113.88C73.394 111.56 72.082 110.44 69.762 110.44ZM69.41 117.912C68.242 117.912 67.538 117.384 67.538 116.536C67.538 115.816 67.97 115.224 69.49 115.224H71.858V116.408C71.474 117.384 70.562 117.912 69.41 117.912ZM76.1599 119H77.6959V115.448H82.5279V119H84.0639V110.52H82.5279V114.12H77.6959V110.52H76.1599V119ZM87.0505 119H88.4585L93.6425 112.824V119H95.1785V110.52H93.7865L88.5865 116.696V110.52H87.0505V119ZM98.1599 119H99.5679L104.752 112.824V119H106.288V110.52H104.896L99.6959 116.696V110.52H98.1599V119Z" fill="white"/>
<defs>
<linearGradient id="paint0_linear_221_507" x1="0" y1="0.613281" x2="80" y2="76.6133" gradientUnits="userSpaceOnUse">
<stop stop-color="#F09642" stop-opacity="0.78"/>
<stop offset="1" stop-color="#F0D542" stop-opacity="0.79"/>
</linearGradient>
</defs>
</svg>
