<svg width="250" height="121" viewBox="0 0 250 121" fill="none" xmlns="http://www.w3.org/2000/svg">
<path d="M9.328 85.8L5.6 92.904L1.968 85.8H0.256L4.768 94.296L4.512 94.696C4.016 95.496 3.424 95.816 2.768 95.816C2.432 95.816 2.08 95.736 1.712 95.608L1.296 96.888C1.808 97.112 2.32 97.224 2.8 97.224C4.016 97.224 5.136 96.536 5.936 95.032L10.912 85.8H9.328ZM17.2669 88.52V92.392C16.4509 92.744 15.6189 92.952 14.8509 92.952C13.5549 92.952 12.7549 92.376 12.7549 91.176V88.52H11.2189V91.272C11.2189 93.288 12.4669 94.216 14.5309 94.216C15.4749 94.216 16.4029 93.976 17.2669 93.576V97H18.8029V88.52H17.2669ZM24.8089 88.44C23.4489 88.44 22.1849 88.824 21.3049 89.528L21.9449 90.68C22.6009 90.12 23.6249 89.768 24.6329 89.768C26.1529 89.768 26.9049 90.52 26.9049 91.816V92.12H24.4729C21.9449 92.12 21.0649 93.24 21.0649 94.6C21.0649 96.072 22.2809 97.096 24.2009 97.096C25.5289 97.096 26.4729 96.648 26.9849 95.88V97H28.4409V91.88C28.4409 89.56 27.1289 88.44 24.8089 88.44ZM24.4569 95.912C23.2889 95.912 22.5849 95.384 22.5849 94.536C22.5849 93.816 23.0169 93.224 24.5369 93.224H26.9049V94.408C26.5209 95.384 25.6089 95.912 24.4569 95.912ZM34.9028 97.096C36.4228 97.096 37.6868 96.456 38.3588 95.272L37.1908 94.536C36.6468 95.368 35.8148 95.752 34.8868 95.752C33.2228 95.752 31.9748 94.6 31.9748 92.76C31.9748 90.952 33.2228 89.784 34.8868 89.784C35.8148 89.784 36.6468 90.168 37.1908 91L38.3588 90.248C37.6868 89.064 36.4228 88.44 34.9028 88.44C32.2948 88.44 30.4228 90.232 30.4228 92.76C30.4228 95.288 32.2948 97.096 34.9028 97.096ZM46.558 88.52H38.814V89.864H41.918V97H43.454V89.864H46.558V88.52ZM48.1286 97H49.5366L54.7206 90.824V97H56.2566V88.52H54.8646L49.6646 94.696V88.52H48.1286V97ZM66.902 92.808C66.902 90.2 65.158 88.44 62.71 88.44C60.262 88.44 58.454 90.248 58.454 92.76C58.454 95.288 60.278 97.096 63.014 97.096C64.422 97.096 65.59 96.616 66.358 95.72L65.51 94.728C64.886 95.416 64.054 95.752 63.062 95.752C61.382 95.752 60.182 94.76 59.99 93.272H66.87C66.886 93.128 66.902 92.936 66.902 92.808ZM62.71 89.736C64.198 89.736 65.27 90.744 65.43 92.168H59.99C60.15 90.728 61.238 89.736 62.71 89.736ZM79.3578 92.6C80.2058 92.264 80.7178 91.608 80.7178 90.696C80.7178 89.304 79.5178 88.52 77.5178 88.52H73.5818V97H77.6618C79.9178 97 81.0058 96.136 81.0058 94.664C81.0058 93.592 80.4778 92.888 79.3578 92.6ZM75.0858 89.704H77.3898C78.5578 89.704 79.1818 90.104 79.1818 90.92C79.1818 91.736 78.5578 92.168 77.3898 92.168H75.0858V89.704ZM77.5498 95.816H75.0858V93.272H77.6458C78.9098 93.272 79.4698 93.688 79.4698 94.568C79.4698 95.432 78.8138 95.816 77.5498 95.816ZM92.2988 92.584C93.2268 92.248 93.8348 91.56 93.8348 90.712C93.8348 89.336 92.3148 88.408 90.2508 88.408C89.1628 88.408 88.1068 88.632 87.0028 89.192L87.4188 90.376C88.3468 89.944 89.2268 89.72 90.0908 89.72C91.3868 89.72 92.2508 90.168 92.2508 90.936C92.2508 91.656 91.5308 92.072 90.3948 92.072H88.9548V93.176H90.5068C91.7548 93.176 92.4908 93.624 92.4908 94.408C92.4908 95.272 91.5468 95.8 90.1068 95.8C89.0668 95.8 87.9468 95.512 87.1308 94.984L86.6668 96.152C87.6108 96.76 88.8588 97.112 90.1228 97.112C92.3788 97.112 94.0748 96.072 94.0748 94.536C94.0748 93.56 93.4348 92.872 92.2988 92.584ZM99.4339 88.44C98.0739 88.44 96.8099 88.824 95.9299 89.528L96.5699 90.68C97.2259 90.12 98.2499 89.768 99.2579 89.768C100.778 89.768 101.53 90.52 101.53 91.816V92.12H99.0979C96.5699 92.12 95.6899 93.24 95.6899 94.6C95.6899 96.072 96.9059 97.096 98.8259 97.096C100.154 97.096 101.098 96.648 101.61 95.88V97H103.066V91.88C103.066 89.56 101.754 88.44 99.4339 88.44ZM99.0819 95.912C97.9139 95.912 97.2099 95.384 97.2099 94.536C97.2099 93.816 97.6419 93.224 99.1619 93.224H101.53V94.408C101.146 95.384 100.234 95.912 99.0819 95.912ZM111.976 97H113.784L110.344 92.6L113.56 88.52H111.912L109.16 92.104H107.368V88.52H105.832V97H107.368V93.416H109.128L111.976 97ZM119.89 88.44C118.642 88.44 117.554 88.92 116.866 89.864V88.52H115.394V100.104H116.93V95.72C117.634 96.632 118.69 97.096 119.89 97.096C122.37 97.096 124.178 95.368 124.178 92.76C124.178 90.168 122.37 88.44 119.89 88.44ZM119.762 95.752C118.146 95.752 116.914 94.568 116.914 92.76C116.914 90.968 118.146 89.784 119.762 89.784C121.394 89.784 122.626 90.968 122.626 92.76C122.626 94.568 121.394 95.752 119.762 95.752ZM130.234 91.4L127.946 91.384V88.52H126.41V97L129.978 97.016C132.25 97.032 133.53 96.008 133.53 94.168C133.53 92.424 132.378 91.416 130.234 91.4ZM134.794 97H136.33V88.52H134.794V97ZM129.866 95.848L127.946 95.832V92.504L129.866 92.536C131.258 92.552 131.978 93.032 131.978 94.152C131.978 95.288 131.242 95.864 129.866 95.848ZM145.636 88.52H137.892V89.864H140.996V97H142.532V89.864H145.636V88.52ZM150.464 97.096C153.008 97.096 154.864 95.288 154.864 92.76C154.864 90.232 153.008 88.44 150.464 88.44C147.92 88.44 146.048 90.232 146.048 92.76C146.048 95.288 147.92 97.096 150.464 97.096ZM150.464 95.752C148.832 95.752 147.6 94.568 147.6 92.76C147.6 90.952 148.832 89.784 150.464 89.784C152.096 89.784 153.312 90.952 153.312 92.76C153.312 94.568 152.096 95.752 150.464 95.752ZM165.418 88.52L161.994 94.248L158.666 88.52H157.082V97H158.49V90.792L161.626 96.04H162.298L165.466 90.808V97H166.858V88.52H165.418ZM180.288 97H182.096L178.656 92.6L181.872 88.52H180.224L177.472 92.104H175.68V88.52H174.144V97H175.68V93.416H177.44L180.288 97ZM184.475 88.52L184.331 91.656C184.219 93.656 184.155 95.736 182.779 95.736C182.667 95.736 182.539 95.72 182.395 95.688L182.299 96.984C182.651 97.08 182.955 97.128 183.243 97.128C185.163 97.128 185.563 94.744 185.707 91.752L185.803 89.864H189.451V97H190.987V88.52H184.475ZM200.021 88.52L197.093 95.304L194.133 88.52H192.533L196.277 96.984L196.005 97.576C195.589 98.552 195.125 98.888 194.389 98.888C193.813 98.888 193.285 98.664 192.869 98.264L192.213 99.416C192.741 99.928 193.573 100.2 194.389 100.2C195.685 100.2 196.661 99.64 197.413 97.848L201.525 88.52H200.021ZM207.308 88.808C205.884 88.808 204.684 89.432 203.964 90.52C204.124 88.312 205.164 87.224 207.372 86.744L210.94 85.976L210.716 84.568L206.844 85.432C203.916 86.072 202.492 87.976 202.492 91.48C202.492 95.048 204.108 97.128 207.004 97.128C209.596 97.128 211.388 95.432 211.388 92.936C211.388 90.504 209.708 88.808 207.308 88.808ZM207.036 95.848C205.404 95.848 204.236 94.664 204.236 92.984C204.236 91.304 205.372 90.184 207.036 90.184C208.7 90.184 209.82 91.304 209.82 92.984C209.82 94.664 208.684 95.848 207.036 95.848ZM221.246 92.808C221.246 90.2 219.502 88.44 217.054 88.44C214.606 88.44 212.798 90.248 212.798 92.76C212.798 95.288 214.622 97.096 217.358 97.096C218.766 97.096 219.934 96.616 220.702 95.72L219.854 94.728C219.23 95.416 218.398 95.752 217.406 95.752C215.726 95.752 214.526 94.76 214.334 93.272H221.214C221.23 93.128 221.246 92.936 221.246 92.808ZM217.054 89.736C218.542 89.736 219.614 90.744 219.774 92.168H214.334C214.494 90.728 215.582 89.736 217.054 89.736ZM1.488 108.52V117H3.024V109.864H7.808V117H9.344V108.52H1.488ZM16.8121 108.44C15.5641 108.44 14.4761 108.92 13.7881 109.864V108.52H12.3161V120.104H13.8521V115.72C14.5561 116.632 15.6121 117.096 16.8121 117.096C19.2921 117.096 21.1001 115.368 21.1001 112.76C21.1001 110.168 19.2921 108.44 16.8121 108.44ZM16.6841 115.752C15.0681 115.752 13.8361 114.568 13.8361 112.76C13.8361 110.968 15.0681 109.784 16.6841 109.784C18.3161 109.784 19.5481 110.968 19.5481 112.76C19.5481 114.568 18.3161 115.752 16.6841 115.752ZM30.9958 112.808C30.9958 110.2 29.2518 108.44 26.8038 108.44C24.3558 108.44 22.5478 110.248 22.5478 112.76C22.5478 115.288 24.3718 117.096 27.1078 117.096C28.5158 117.096 29.6838 116.616 30.4518 115.72L29.6038 114.728C28.9798 115.416 28.1478 115.752 27.1558 115.752C25.4758 115.752 24.2758 114.76 24.0838 113.272H30.9638C30.9798 113.128 30.9958 112.936 30.9958 112.808ZM26.8038 109.736C28.2918 109.736 29.3638 110.744 29.5238 112.168H24.0838C24.2438 110.728 25.3318 109.736 26.8038 109.736ZM40.566 115.656V108.52H33.99L33.862 111.384C33.75 113.528 33.542 115.592 32.326 115.656H31.878V118.968H33.334V117H40.422V118.968H41.862V115.656H40.566ZM35.27 111.496L35.35 109.864H39.03V115.656H34.278C35.046 114.984 35.206 113.256 35.27 111.496ZM43.863 108.52V117H45.399V109.864H50.183V117H51.719V108.52H43.863ZM59.1871 108.44C57.9391 108.44 56.8511 108.92 56.1631 109.864V108.52H54.6911V120.104H56.2271V115.72C56.9311 116.632 57.9871 117.096 59.1871 117.096C61.6671 117.096 63.4751 115.368 63.4751 112.76C63.4751 110.168 61.6671 108.44 59.1871 108.44ZM59.0591 115.752C57.4431 115.752 56.2111 114.568 56.2111 112.76C56.2111 110.968 57.4431 109.784 59.0591 109.784C60.6911 109.784 61.9231 110.968 61.9231 112.76C61.9231 114.568 60.6911 115.752 59.0591 115.752ZM65.7068 117H67.1148L72.2987 110.824V117H73.8348V108.52H72.4427L67.2428 114.696V108.52H65.7068V117ZM76.8161 117H78.3521V113.448H83.1841V117H84.7201V108.52H83.1841V112.12H78.3521V108.52H76.8161V117ZM87.7068 117H89.1148L94.2987 110.824V117H95.8348V108.52H94.4427L89.2428 114.696V108.52H87.7068V117ZM107.152 108.52L103.728 114.248L100.4 108.52H98.8161V117H100.224V110.792L103.36 116.04H104.032L107.2 110.808V117H108.592V108.52H107.152ZM114.606 108.44C113.246 108.44 111.982 108.824 111.102 109.528L111.742 110.68C112.398 110.12 113.422 109.768 114.43 109.768C115.95 109.768 116.702 110.52 116.702 111.816V112.12H114.27C111.742 112.12 110.862 113.24 110.862 114.6C110.862 116.072 112.078 117.096 113.998 117.096C115.326 117.096 116.27 116.648 116.782 115.88V117H118.238V111.88C118.238 109.56 116.926 108.44 114.606 108.44ZM114.254 115.912C113.086 115.912 112.382 115.384 112.382 114.536C112.382 113.816 112.814 113.224 114.334 113.224H116.702V114.408C116.318 115.384 115.406 115.912 114.254 115.912ZM127.324 108.52H119.58V109.864H122.684V117H124.22V109.864H127.324V108.52ZM136.183 112.808C136.183 110.2 134.439 108.44 131.991 108.44C129.543 108.44 127.735 110.248 127.735 112.76C127.735 115.288 129.559 117.096 132.295 117.096C133.703 117.096 134.871 116.616 135.639 115.72L134.791 114.728C134.167 115.416 133.335 115.752 132.343 115.752C130.663 115.752 129.463 114.76 129.271 113.272H136.151C136.167 113.128 136.183 112.936 136.183 112.808ZM131.991 109.736C133.479 109.736 134.551 110.744 134.711 112.168H129.271C129.431 110.728 130.519 109.736 131.991 109.736ZM139.194 108.52L139.049 111.656C138.938 113.656 138.874 115.736 137.498 115.736C137.386 115.736 137.258 115.72 137.114 115.688L137.018 116.984C137.37 117.08 137.674 117.128 137.962 117.128C139.882 117.128 140.282 114.744 140.426 111.752L140.522 109.864H144.17V117H145.706V108.52H139.194ZM156.34 112.808C156.34 110.2 154.596 108.44 152.148 108.44C149.7 108.44 147.892 110.248 147.892 112.76C147.892 115.288 149.716 117.096 152.452 117.096C153.86 117.096 155.028 116.616 155.796 115.72L154.948 114.728C154.324 115.416 153.492 115.752 152.5 115.752C150.82 115.752 149.62 114.76 149.428 113.272H156.308C156.324 113.128 156.34 112.936 156.34 112.808ZM152.148 109.736C153.636 109.736 154.708 110.744 154.868 112.168H149.428C149.588 110.728 150.676 109.736 152.148 109.736ZM162.69 107.416C164.242 107.416 165.186 106.648 165.218 105.208H164.146C164.13 106.008 163.554 106.52 162.674 106.52C161.81 106.52 161.234 106.008 161.218 105.208H160.178C160.194 106.648 161.138 107.416 162.69 107.416ZM158.722 117H160.13L165.314 110.824V117H166.85V108.52H165.458L160.258 114.696V108.52H158.722V117Z" fill="white"/>
<path d="M77.5556 27.4577C80.3511 18.1457 64.5012 7.38725 44.9931 8.92023C26.8777 10.3438 0.479281 25.1 1.20368 47.2102C1.45234 54.8 7.82364 62.9909 18.9134 62.5988C29.5215 62.2234 38.7689 46.6578 47.7227 42.3648C59.447 36.7435 73.2468 41.8107 77.5556 27.4577Z" fill="url(#paint0_linear_221_537)"/>
<g clip-path="url(#clip0_221_537)">
<path d="M44.7867 45.7186C44.7867 46.5578 45.467 47.2369 46.3058 47.2369C47.144 47.2369 47.8232 46.5576 47.8232 45.7186C47.8232 35.7371 39.7029 27.6159 29.7205 27.6159C19.7381 27.6159 11.6169 35.7371 11.6169 45.7186C11.6169 46.5577 12.2971 47.2369 13.1351 47.2369C13.9732 47.2369 14.6534 46.5577 14.6534 45.7186C14.6534 37.4116 21.4126 30.6524 29.7205 30.6524C38.0284 30.6524 44.7867 37.4116 44.7867 45.7186Z" fill="white" stroke="white" stroke-width="0.4"/>
<path d="M19.1354 19.5752C19.1354 25.4121 23.8837 30.1604 29.7206 30.1604C35.5576 30.1604 40.3058 25.4121 40.3058 19.5752C40.3058 13.7391 35.5575 8.99092 29.7206 8.99092C23.8837 8.99092 19.1354 13.7391 19.1354 19.5752ZM22.1719 19.5752C22.1719 15.4137 25.5582 12.0274 29.7206 12.0274C33.8831 12.0274 37.2693 15.4137 37.2693 19.5752C37.2693 23.7376 33.883 27.1239 29.7206 27.1239C25.5582 27.1239 22.1719 23.7376 22.1719 19.5752Z" fill="white" stroke="white" stroke-width="0.4"/>
<path d="M22.7152 29.0115L22.7151 29.0115C20.2138 27.5649 17.6046 26.8288 14.9621 26.8288C6.32252 26.8288 -0.2 33.3225 -0.2 41.9277C-0.2 42.7658 0.480119 43.4459 1.31825 43.4459H11.4644C12.3025 43.4459 12.9826 42.7658 12.9826 41.9277C12.9826 41.0895 12.3025 40.4094 11.4644 40.4094H2.92309C3.62674 34.3015 8.56255 29.8653 14.9621 29.8653C17.0576 29.8653 19.1537 30.4594 21.1948 31.6409L21.195 31.641C21.9207 32.06 22.8497 31.8121 23.2697 31.0864L23.2699 31.0861C23.6887 30.3596 23.4409 29.4315 22.7152 29.0115Z" fill="white" stroke="white" stroke-width="0.4"/>
<path d="M21.3948 14.2665L21.3948 14.2664C19.6928 12.5653 17.4299 11.6276 15.0233 11.6276C10.0538 11.6276 6.01216 15.6693 6.01216 20.6379C6.01216 25.6066 10.0538 29.6491 15.0233 29.6491C17.9778 29.6491 20.7467 28.1958 22.4317 25.7668C22.9108 25.0781 22.7384 24.1317 22.0493 23.6541C21.3601 23.1764 20.4146 23.3474 19.9369 24.0367L19.9369 24.0367C18.8193 25.6492 16.9816 26.6126 15.0233 26.6126C11.7292 26.6126 9.04866 23.9312 9.04866 20.6379C9.04866 17.3438 11.7292 14.6641 15.0233 14.6641C16.6197 14.6641 18.1182 15.2854 19.2478 16.4141C19.8402 17.0074 20.8018 17.0072 21.3948 16.4142C21.988 15.8219 21.9878 14.8595 21.3948 14.2665Z" fill="white" stroke="white" stroke-width="0.4"/>
<path d="M39.8537 28.5526C39.8872 29.3009 40.4632 29.9121 41.207 29.9921C46.9328 30.6119 51.3634 34.9734 52.0659 40.409H46.6175C45.7794 40.409 45.0993 41.0892 45.0993 41.9273C45.0993 42.7654 45.7794 43.4456 46.6175 43.4456H53.6816C54.5197 43.4456 55.1998 42.7654 55.1998 41.9273C55.1998 35.7087 51.3499 30.313 45.7539 28.0359C47.7314 26.3925 48.9381 23.9474 48.9381 21.2246C48.9381 16.2891 44.5068 11.9753 39.4577 11.9753C38.6196 11.9753 37.9394 12.6544 37.9394 13.4935C37.9394 14.3326 38.6196 15.0118 39.4577 15.0118C42.8315 15.0118 45.9016 17.9854 45.9016 21.2246C45.9016 24.046 43.9196 26.4198 41.0695 26.995C40.3354 27.1428 39.8194 27.8048 39.8537 28.5526ZM39.8537 28.5526C39.8537 28.5527 39.8537 28.5527 39.8537 28.5527L40.0535 28.5436L39.8537 28.5525C39.8537 28.5525 39.8537 28.5526 39.8537 28.5526ZM52.2913 40.6091C52.2839 40.5422 52.276 40.4756 52.2676 40.409L52.2913 40.6091Z" fill="white" stroke="white" stroke-width="0.4"/>
</g>
<defs>
<linearGradient id="paint0_linear_221_537" x1="1.72778" y1="63.207" x2="62.6626" y2="-11.8" gradientUnits="userSpaceOnUse">
<stop stop-color="#F09642" stop-opacity="0.78"/>
<stop offset="1" stop-color="#F0D542" stop-opacity="0.79"/>
</linearGradient>
<clipPath id="clip0_221_537">
<rect width="55" height="55" fill="white" transform="translate(0 0.613281)"/>
</clipPath>
</defs>
</svg>
