<svg width="45" height="55" viewBox="0 0 45 55" fill="none" xmlns="http://www.w3.org/2000/svg">
<path d="M3.3728 0.998047C13.6205 1.99594 21.1189 11.1123 20.1211 21.36L18.5551 37.4411C8.30743 36.4432 0.808986 27.3268 1.80688 17.0791L3.3728 0.998047Z" fill="url(#paint0_linear_221_157)"/>
<path d="M44.405 18.6443C32.6747 16.9028 21.7536 25.0003 20.0121 36.7307L17.7994 51.6348C29.5298 53.3763 40.4508 45.2787 42.1923 33.5484L44.405 18.6443Z" fill="url(#paint1_linear_221_157)"/>
<mask id="mask0_221_157" style="mask-type:alpha" maskUnits="userSpaceOnUse" x="17" y="18" width="28" height="34">
<path d="M44.405 18.6443C32.6747 16.9028 21.7536 25.0003 20.0121 36.7307L17.7994 51.6348C29.5298 53.3763 40.4508 45.2787 42.1923 33.5484L44.405 18.6443Z" fill="url(#paint2_linear_221_157)"/>
</mask>
<g mask="url(#mask0_221_157)">
<path d="M38.1589 32.8181C39.9899 29.8613 42.9476 24.8647 44.3901 17.9093C46.7709 24.3629 45.3299 49.4024 39.5712 49.2067C33.8125 49.0109 17.3299 60.254 17.5862 52.713C17.1237 40.7932 33.8494 39.7774 38.1589 32.8181Z" fill="url(#paint3_linear_221_157)"/>
</g>
<defs>
<linearGradient id="paint0_linear_221_157" x1="18.4211" y1="34.7553" x2="-15.7575" y2="-10.609" gradientUnits="userSpaceOnUse">
<stop stop-color="#F09642"/>
<stop offset="1" stop-color="#F4E26E"/>
</linearGradient>
<linearGradient id="paint1_linear_221_157" x1="17.7995" y1="51.5339" x2="53.8424" y2="7.41245" gradientUnits="userSpaceOnUse">
<stop stop-color="#F09642"/>
<stop offset="1" stop-color="#F0DF42" stop-opacity="0.85"/>
</linearGradient>
<linearGradient id="paint2_linear_221_157" x1="17.7995" y1="51.5339" x2="41.4138" y2="15.491" gradientUnits="userSpaceOnUse">
<stop stop-color="#F09642"/>
<stop offset="1" stop-color="#F4E26E"/>
</linearGradient>
<linearGradient id="paint3_linear_221_157" x1="26.6651" y1="52.7007" x2="54.7203" y2="41.5624" gradientUnits="userSpaceOnUse">
<stop stop-color="#272671"/>
<stop offset="1" stop-color="#7BB3CB"/>
</linearGradient>
</defs>
</svg>
