<svg width="12" height="11" viewBox="0 0 12 11" fill="none" xmlns="http://www.w3.org/2000/svg">
<path d="M11.6723 8.07289L9.99763 6.53781C9.39955 5.98956 8.3828 6.20888 8.14357 6.92158C7.96415 7.41502 7.36606 7.68914 6.82779 7.57947C5.63162 7.30535 4.01679 5.87992 3.71775 4.7286C3.53832 4.23516 3.89717 3.68692 4.43545 3.52247C5.21296 3.30317 5.45219 2.37116 4.85411 1.82291L3.17947 0.287828C2.701 -0.0959427 1.9833 -0.0959427 1.56464 0.287828L0.428284 1.32949C-0.708076 2.42598 0.547901 5.33167 3.3589 7.90842C6.16989 10.4852 9.33974 11.6913 10.5359 10.5948L11.6723 9.55315C12.091 9.11455 12.091 8.45666 11.6723 8.07289Z" fill="#1C2D5A"/>
</svg>
