<svg width="57" height="46" viewBox="0 0 57 46" fill="none" xmlns="http://www.w3.org/2000/svg">
<path fill-rule="evenodd" clip-rule="evenodd" d="M29.3259 0.96674C28.531 0.881474 27.5592 0.85302 26.7053 0.938271C26.3814 0.909813 25.9984 0.938271 25.6157 0.96674C18.5485 1.507 12.0407 5.06148 7.97706 11.1184C8.27153 11.0899 8.62482 11.2036 8.91928 11.0899C9.62614 10.1231 10.4211 9.18467 11.3045 8.27481C12.0702 7.56392 12.7768 6.88132 13.6014 6.36955C14.3669 6.853 15.221 7.25108 15.9572 7.70608C15.0443 8.81507 14.102 9.92402 13.4247 11.1184C13.6308 11.2036 14.0137 11.1752 14.3082 11.1184C15.0443 10.0662 15.8393 9.01402 16.7817 8.0757C18.0478 8.53068 19.2846 9.01402 20.5803 9.35532L20.698 9.46903L19.9619 11.1184C20.2858 11.1752 20.492 11.1467 20.8159 11.1184C21.0809 10.6349 21.287 10.0947 21.5814 9.61122C23.2894 9.98096 25.0857 10.1799 26.9113 10.2368C27.147 10.4358 26.9703 10.8624 27.0586 11.1184H27.8537C27.942 10.834 27.8242 10.5212 27.942 10.2653C29.65 10.1799 31.4461 10.0093 33.0953 9.61122L33.2426 9.63967L34.0374 11.1184C34.3025 11.1184 34.6559 11.1752 34.8621 11.0614L34.126 9.41224L34.1846 9.35532C35.5394 9.01402 36.8055 8.50225 38.1013 7.99046C39.014 8.92877 39.8681 10.0378 40.6336 11.1184C40.9574 11.1184 41.2815 11.1467 41.517 11.0614C41.1636 10.4358 40.7219 9.81033 40.2509 9.27007C39.8681 8.72968 39.4557 8.24632 38.9551 7.73438V7.59224L41.0163 6.42649L41.3108 6.31263C43.1072 7.64916 44.6972 9.27005 45.9634 11.0614C46.3168 11.0614 46.6113 11.1752 46.9057 11.033C42.96 5.23213 36.4521 1.507 29.4144 0.96674L29.3849 1.02366L29.3259 0.96674ZM32.3592 2.30325V2.24636C29.2672 1.47854 25.5862 1.53547 22.4648 2.24636C22.4848 2.3814 22.6267 2.45097 22.7619 2.51724C22.826 2.54867 22.8886 2.57936 22.936 2.61595C25.6452 4.29378 29.7972 4.12312 32.3592 2.30325ZM40.3981 5.82929L40.457 5.71558C38.3368 4.23685 36.0104 3.15635 33.537 2.53071C33.493 2.56104 33.445 2.59138 33.3961 2.62227C33.2159 2.73615 33.0238 2.85756 32.9774 3.01419C34.8325 4.06619 36.6583 5.40274 38.2189 6.93825H38.3661L40.3981 5.82929ZM16.6344 7.02349C18.2835 5.4312 20.0798 4.12313 21.9054 3.01419C21.819 2.93077 21.7124 2.8571 21.6033 2.78174C21.5265 2.72865 21.4484 2.67472 21.3754 2.61595C21.2586 2.51937 21.1513 2.55959 21.0374 2.60229C20.9502 2.63498 20.8591 2.66911 20.757 2.64442V2.58765C20.6594 2.58765 20.6021 2.64622 20.5351 2.71482C20.5213 2.72898 20.5071 2.74356 20.492 2.75814C18.313 3.4407 16.2517 4.43596 14.3964 5.77235V5.82929C15.1031 6.31263 15.8393 6.73913 16.6344 7.02349ZM37.3061 7.39323L37.3651 7.30787C35.8042 5.77236 33.9491 4.43597 32.0351 3.4975C31.83 3.60317 31.6122 3.69653 31.3964 3.78902C31.1475 3.89571 30.9013 4.00122 30.6806 4.12312C31.7995 5.57338 32.8009 7.08044 33.7136 8.58749C34.9797 8.3316 36.1576 7.87657 37.3061 7.39323ZM24.0256 4.29378L24.1139 4.0662C23.8197 3.93372 23.5256 3.8264 23.2314 3.71909C23.0839 3.66526 22.9363 3.61143 22.7888 3.55442C20.9042 4.52121 19.1964 5.77237 17.5768 7.27957L17.5178 7.45006C18.6368 7.93351 19.8146 8.30312 21.022 8.61596L21.1397 8.58749C21.1875 8.50914 21.2352 8.43071 21.283 8.35221C22.1193 6.97792 22.967 5.58489 24.0256 4.29378ZM26.9997 9.35532C26.9997 8.91147 27.0045 8.45618 27.0093 7.99789C27.0213 6.84127 27.0335 5.66553 26.9703 4.60645L25.0857 4.35055C23.8784 5.74389 22.8772 7.25107 22.0231 8.81506C22.6447 9.01509 23.3923 9.11087 24.0688 9.19754C24.2577 9.22173 24.441 9.24522 24.6146 9.27007C24.8308 9.28497 25.0411 9.30574 25.2484 9.32623C25.8313 9.38384 26.3915 9.4392 26.9997 9.35532ZM32.7712 8.81506C32.0057 7.25107 30.8868 5.80084 29.7383 4.37905C29.4438 4.42167 29.1346 4.46433 28.8254 4.50698C28.5162 4.54964 28.207 4.5923 27.9125 4.63493C27.8832 6.1989 27.8537 7.87659 27.9125 9.38379C29.5617 9.38379 31.1813 9.18466 32.7712 8.81506Z" fill="#1D4F97"/>
<path d="M27.353 14.0472C24.1139 12.7107 19.5791 12.5685 16.6344 14.6444C14.7204 16.0093 14.1314 18.4548 14.6321 20.6159C15.0148 22.6632 17.0172 24.1703 18.9312 24.8812C21.5521 25.7912 24.2906 26.4452 26.9408 27.3268C27.2058 27.4404 27.5592 27.6964 27.5003 28.0091C27.5003 28.2611 27.2435 28.4029 27.0388 28.5158L27.0291 28.5212C24.2611 29.2604 21.2576 28.6917 19.2552 26.6442C19.0196 26.3599 18.8724 26.0186 18.6368 25.7343L14.6614 25.7628C14.6026 28.0661 14.5731 30.7105 14.6614 32.9854L19.0784 32.9571L19.1374 31.5922C19.6381 31.8196 20.1385 32.104 20.6392 32.3601C23.7016 33.611 27.6475 33.8954 30.6806 32.3601C32.8891 31.1657 34.067 28.8622 33.7429 26.3885C33.4191 23.9715 31.0634 21.7818 28.6783 21.1846L21.5521 19.1657L21.022 18.9098C20.7865 18.7107 20.6392 18.4548 20.698 18.142C21.2576 17.2036 22.5532 17.488 23.525 17.5165C25.5862 17.8008 27.7065 18.4832 28.9138 20.3316C30.2093 20.3316 31.7112 20.36 33.1247 20.3031C33.1836 17.9713 33.0953 15.924 33.0657 13.5638C31.7406 13.5354 30.121 13.5354 28.7959 13.5922C28.737 13.9335 28.8548 14.4168 28.7076 14.7581L27.353 14.0472Z" fill="#1D4F97"/>
<path d="M52.324 14.9572C48.496 12.5685 42.6655 12.398 38.7195 14.559C36.57 15.6397 35.1566 17.7724 34.7149 19.9618C33.9198 23.5732 34.126 27.867 36.9527 30.5684C40.2508 33.412 45.0506 34.0376 49.3204 32.8718C49.5229 32.8327 50.167 32.6727 50.6087 32.4417L50.7338 32.3884C52.0589 31.848 53.325 30.9666 54.2674 29.7722C56.4466 26.6442 56.5938 21.9523 55.2687 18.4263C54.7387 17.0614 53.6491 15.8386 52.324 14.9572Z" fill="#1D4F97"/>
<path d="M2.29377 13.2511L0.468139 13.2794C0.438646 14.7866 0.438646 16.5495 0.468139 18.0852C1.46928 18.1135 2.41163 18.0852 3.38334 18.1704V27.8386L3.35386 28.2368L0.438643 28.2935C0.379724 29.886 0.379724 31.4214 0.438643 32.9854H13.4247V28.2935C12.4529 28.2368 11.3635 28.3221 10.4211 28.2082L10.4506 18.2274L10.5095 18.142L13.4247 18.1135C13.4542 16.4927 13.4835 14.7581 13.3953 13.2794L2.29377 13.2511Z" fill="#1D4F97"/>
<path fill-rule="evenodd" clip-rule="evenodd" d="M20.9632 35.0898C20.6687 35.0898 20.3447 35.0328 20.1385 35.1181L20.8747 36.7959L20.7864 36.8812C19.4613 37.2511 18.1657 37.7059 16.8994 38.2177L16.7817 38.1608C15.9572 37.2794 15.1621 36.3125 14.5142 35.3458C14.3669 34.8623 13.778 35.1467 13.4542 35.0898C14.1609 36.3408 15.1031 37.4499 16.0455 38.5873C15.2504 39.0422 14.4554 39.5542 13.6308 39.9239C11.864 38.6157 10.2151 36.9095 8.97824 35.1181C8.62483 35.0615 8.38931 35.0898 8.03588 35.1181C10.1561 38.3599 13.4542 41.2035 16.8994 42.881C16.8994 42.881 16.8994 42.8527 16.9289 42.8527C16.9584 42.8527 17.0172 42.9096 16.9584 42.9382C19.2846 44.0471 21.7581 44.8432 24.3789 45.1845C33.4191 46.3505 42.047 42.5684 47.053 35.1181C46.7881 35.0898 46.4051 35.0898 46.1106 35.1181C44.8741 36.8529 43.3131 38.5307 41.6053 39.8386C41.5463 39.9239 41.3698 39.8953 41.3108 39.8103C40.5746 39.3551 39.7795 38.9855 39.073 38.5307C40.0153 37.4215 40.928 36.3125 41.6349 35.0898H40.7219L40.653 35.1882C39.9379 36.2108 39.19 37.2803 38.2485 38.1891C36.9527 37.6776 35.7749 37.2224 34.4498 36.8812L34.3025 36.7673C34.5087 36.1986 34.8914 35.6585 35.0094 35.0898H34.2143L33.4191 36.6251C31.6816 36.2558 29.7676 36.0564 28.0009 35.9428C27.9125 35.6868 28.0304 35.3172 27.9125 35.0898H27.147C27.088 35.4311 27.2353 35.6868 27.0586 35.9715C25.2329 36.0564 23.4661 36.2558 21.7581 36.5968L20.9632 35.0898ZM25.2623 41.9144C25.56 41.8425 25.8803 41.8069 26.2041 41.771C26.5209 41.7358 26.8412 41.7003 27.147 41.63L27.1175 36.8245C25.4685 36.8245 23.8784 37.0517 22.3471 37.336L22.1998 37.4499C23.0538 39.0138 24.0551 40.5212 25.2623 41.9144ZM32.9774 37.4782L32.9481 37.3932C31.3872 37.0233 29.7089 36.8529 28.0304 36.8245C27.942 38.5021 27.9715 39.9808 28.0304 41.6586L28.5311 41.7153C28.7325 41.7267 28.9292 41.7658 29.1251 41.8048C29.4157 41.8625 29.7043 41.92 30.0034 41.8858C31.1223 40.4926 32.1529 39.0139 32.9774 37.4782ZM24.2906 42.1701C23.2305 40.6917 22.1704 39.213 21.3164 37.649L21.1987 37.6204C19.9619 37.9334 18.7547 38.3313 17.6061 38.8717V38.9572C19.1669 40.5212 21.022 41.8291 22.9655 42.7675C23.1714 42.6538 23.3994 42.5615 23.6273 42.4692C23.8558 42.3766 24.0843 42.2841 24.2906 42.1701ZM34.2436 41.5731C35.3625 40.8055 36.57 39.8953 37.5123 38.8434C36.3931 38.303 35.1859 37.9048 33.9198 37.6204L33.8315 37.6776C33.0067 39.1844 32.0647 40.6062 31.0044 41.9996L30.9162 42.1987L32.1823 42.7389C32.7367 42.4714 33.2729 42.1513 33.8052 41.8335C33.9515 41.7461 34.0975 41.659 34.2436 41.5731ZM35.1566 43.3076C37.1 42.5967 39.014 41.7436 40.6629 40.464C39.9564 39.9808 39.1906 39.5542 38.3957 39.2416C36.7762 40.8055 35.068 42.1135 33.1836 43.194L33.1247 43.2793L33.1267 43.281C33.3322 43.4509 33.5378 43.6209 33.7726 43.7341L35.1566 43.3076ZM21.4049 43.7341C21.6109 43.6205 21.8466 43.4498 21.9938 43.2793C20.1091 42.1135 18.3718 40.8905 16.6934 39.2699C16.0332 39.5395 15.4168 39.9149 14.8063 40.2866C14.7088 40.346 14.6115 40.4052 14.5142 40.464V40.5495C16.6344 42.028 18.9312 43.1087 21.4049 43.7341ZM32.3295 44.104C32.3494 44.0848 32.3894 44.0786 32.4302 44.0722C32.5105 44.0596 32.5942 44.0465 32.5357 43.9335C29.8562 42.0565 25.5862 42.0565 22.8477 43.7913C22.8196 43.8184 22.7795 43.8397 22.7398 43.8608C22.6549 43.906 22.572 43.9502 22.6121 44.0471C25.7335 44.7866 29.2083 44.758 32.3295 44.104Z" fill="#1D4F97"/>
<path fill-rule="evenodd" clip-rule="evenodd" d="M32.3592 2.30325V2.24636C29.2672 1.47854 25.5862 1.53547 22.4648 2.24636C22.4848 2.3814 22.6267 2.45097 22.7619 2.51724C22.826 2.54867 22.8886 2.57936 22.936 2.61595C25.6452 4.29378 29.7972 4.12312 32.3592 2.30325ZM40.3981 5.82929L40.457 5.71558C38.3368 4.23685 36.0104 3.15635 33.537 2.53071C33.493 2.56104 33.445 2.59138 33.3961 2.62227C33.2159 2.73615 33.0238 2.85756 32.9774 3.01419C34.8325 4.06619 36.6583 5.40274 38.2189 6.93825H38.3661L40.3981 5.82929ZM16.6344 7.02349C18.2835 5.4312 20.0798 4.12313 21.9054 3.01419C21.819 2.93077 21.7124 2.8571 21.6033 2.78174C21.5265 2.72865 21.4484 2.67472 21.3754 2.61595C21.2586 2.51937 21.1513 2.55959 21.0374 2.60229C20.9502 2.63498 20.8591 2.66911 20.757 2.64442V2.58765C20.6594 2.58765 20.6021 2.64622 20.5351 2.71482C20.5213 2.72898 20.5071 2.74356 20.492 2.75814C18.313 3.4407 16.2517 4.43596 14.3964 5.77235V5.82929C15.1031 6.31263 15.8393 6.73913 16.6344 7.02349ZM37.3061 7.39323L37.3651 7.30787C35.8042 5.77236 33.9491 4.43597 32.0351 3.4975C31.83 3.60317 31.6122 3.69653 31.3964 3.78902C31.1475 3.89571 30.9013 4.00122 30.6806 4.12312C31.7995 5.57338 32.8009 7.08044 33.7136 8.58749C34.9797 8.3316 36.1576 7.87657 37.3061 7.39323ZM24.0256 4.29378L24.1139 4.0662C23.8197 3.93372 23.5256 3.8264 23.2314 3.71909C23.0839 3.66526 22.9363 3.61143 22.7888 3.55442C20.9042 4.52121 19.1964 5.77237 17.5768 7.27957L17.5178 7.45006C18.6368 7.93351 19.8146 8.30312 21.022 8.61596L21.1397 8.58749C21.1875 8.50914 21.2352 8.43071 21.283 8.35221C22.1193 6.97792 22.967 5.58489 24.0256 4.29378ZM27.0093 7.99789C27.0213 6.84127 27.0335 5.66553 26.9703 4.60645L25.0857 4.35055C23.8784 5.74389 22.8772 7.25107 22.0231 8.81506C22.6447 9.01509 23.3923 9.11087 24.0688 9.19754C24.2577 9.22173 24.441 9.24522 24.6146 9.27007C24.8308 9.28497 25.0411 9.30574 25.2484 9.32623C25.8313 9.38384 26.3915 9.4392 26.9997 9.35532C26.9997 8.91147 27.0045 8.45618 27.0093 7.99789ZM32.7712 8.81506C32.0057 7.25107 30.8868 5.80084 29.7383 4.37905C29.4438 4.42167 29.1346 4.46433 28.8254 4.50698C28.5162 4.54964 28.207 4.5923 27.9125 4.63493C27.8832 6.1989 27.8537 7.87659 27.9125 9.38379C29.5617 9.38379 31.1813 9.18466 32.7712 8.81506ZM26.2041 41.771C26.5209 41.7358 26.8412 41.7003 27.147 41.63L27.1175 36.8245C25.4685 36.8245 23.8784 37.0517 22.3471 37.336L22.1998 37.4499C23.0538 39.0138 24.0551 40.5212 25.2623 41.9144C25.56 41.8425 25.8803 41.8069 26.2041 41.771ZM32.9774 37.4782L32.9481 37.3932C31.3872 37.0233 29.7089 36.8529 28.0304 36.8245C27.942 38.5021 27.9715 39.9808 28.0304 41.6586L28.5311 41.7153C28.7325 41.7267 28.9292 41.7658 29.1251 41.8048C29.4157 41.8625 29.7043 41.92 30.0034 41.8858C31.1223 40.4926 32.1529 39.0139 32.9774 37.4782ZM24.2906 42.1701C23.2305 40.6917 22.1704 39.213 21.3164 37.649L21.1987 37.6204C19.9619 37.9334 18.7547 38.3313 17.6061 38.8717V38.9572C19.1669 40.5212 21.022 41.8291 22.9655 42.7675C23.1714 42.6538 23.3994 42.5615 23.6273 42.4692C23.8558 42.3766 24.0843 42.2841 24.2906 42.1701ZM34.2436 41.5731C35.3625 40.8055 36.57 39.8953 37.5123 38.8434C36.3931 38.303 35.1859 37.9048 33.9198 37.6204L33.8315 37.6776C33.0067 39.1844 32.0647 40.6062 31.0044 41.9996L30.9162 42.1987L32.1823 42.7389C32.7367 42.4714 33.2729 42.1513 33.8052 41.8335C33.9515 41.7461 34.0975 41.659 34.2436 41.5731ZM35.1566 43.3076C37.1 42.5967 39.014 41.7436 40.6629 40.464C39.9564 39.9808 39.1906 39.5542 38.3957 39.2416C36.7762 40.8055 35.068 42.1135 33.1836 43.194L33.1247 43.2793L33.1267 43.281C33.3322 43.4509 33.5378 43.6209 33.7726 43.7341L35.1566 43.3076ZM21.4049 43.7341C21.6109 43.6205 21.8466 43.4498 21.9938 43.2793C20.1091 42.1135 18.3718 40.8905 16.6934 39.2699C16.0332 39.5395 15.4168 39.9149 14.8063 40.2866C14.7088 40.346 14.6115 40.4052 14.5142 40.464V40.5495C16.6344 42.028 18.9312 43.1087 21.4049 43.7341ZM32.4302 44.0722C32.5105 44.0596 32.5942 44.0465 32.5357 43.9335C29.8562 42.0565 25.5862 42.0565 22.8477 43.7913C22.8196 43.8184 22.7795 43.8397 22.7398 43.8608C22.6549 43.906 22.572 43.9502 22.6121 44.0471C25.7335 44.7866 29.2083 44.758 32.3295 44.104C32.3494 44.0848 32.3894 44.0786 32.4302 44.0722Z" fill="#1D4F97"/>
</svg>
